<svg width="395" height="395" viewBox="0 0 395 395" fill="none" xmlns="http://www.w3.org/2000/svg">
<path d="M196.734 384.888C296.403 384.888 377.201 342.816 377.201 290.918C377.201 239.019 296.403 196.947 196.734 196.947C97.0642 196.947 16.2661 239.019 16.2661 290.918C16.2661 342.816 97.0642 384.888 196.734 384.888Z" fill="#F5F5F5"/>
<path d="M312.35 303.194C338.934 303.194 360.485 290.751 360.485 275.402C360.485 260.053 338.934 247.61 312.35 247.61C285.766 247.61 264.216 260.053 264.216 275.402C264.216 290.751 285.766 303.194 312.35 303.194Z" fill="#E6E6E6"/>
<path d="M118.5 258.907C136.915 269.54 137.665 287.094 119.243 297.727C100.82 308.361 70.2231 308.045 51.8003 297.411C33.3775 286.778 33.3854 269.54 51.8003 258.907C70.2152 248.273 100.069 248.273 118.5 258.907Z" fill="#E6E6E6"/>
<path d="M268.711 316.205L208.26 281.303C207.2 280.765 206.028 280.485 204.839 280.485C203.65 280.485 202.478 280.765 201.418 281.303L140.968 316.205C139.08 317.296 139.08 319.065 140.968 320.155L168.499 336.05L142.785 350.894C137.563 353.904 129.062 353.904 123.825 350.894L83.3766 327.542C81.1488 326.254 79.9164 324.635 79.9164 322.992C79.9164 321.348 81.1488 319.721 83.3766 318.433L119.219 297.735C119.408 297.636 119.575 297.5 119.71 297.336C119.844 297.171 119.945 296.98 120.004 296.775C120.063 296.571 120.081 296.356 120.055 296.145C120.029 295.933 119.961 295.729 119.854 295.545C119.748 295.36 119.605 295.199 119.434 295.071C119.264 294.943 119.069 294.851 118.862 294.801C118.655 294.75 118.44 294.742 118.23 294.776C118.02 294.811 117.819 294.888 117.639 295.002L81.8124 315.684C78.5655 317.564 76.7722 320.155 76.7722 322.984C76.7722 325.812 78.5655 328.395 81.8124 330.275L122.26 353.628C125.681 355.39 129.473 356.31 133.32 356.31C137.168 356.31 140.96 355.39 144.38 353.628L171.675 337.875L201.45 355.058C202.51 355.595 203.682 355.876 204.871 355.876C206.059 355.876 207.231 355.595 208.291 355.058L268.742 320.155C270.599 319.065 270.599 317.296 268.711 316.205Z" fill="#E6E6E6"/>
<path d="M337.788 262.351C337.788 262.351 339.984 229.819 339.368 217.827C338.855 208.347 337.567 204.397 337.298 202.256C337.298 202.256 334.968 180.136 334.778 161.263C334.683 152.193 333.846 145.747 328.877 134.971L296.937 142.611C296.289 147.398 294.093 179.235 293.572 207.541C293.122 232.323 293.825 254.017 293.825 254.017V255.32C293.825 256.774 293.509 257.785 292.576 260.107C291.411 263.1 289.738 265.869 287.631 268.292C286.975 269.003 282.417 272.984 281.817 273.822C279.857 276.105 283.918 277.393 286.928 276.982C290.088 276.555 295.033 275.347 296.408 273.419C297.34 272.123 298.043 267.612 298.999 266.309C302.23 261.901 303.557 259.989 303.581 258.599C303.629 256.055 302.752 255.051 302.436 253.614C302.696 250.612 309.182 225.924 309.293 217.179C309.348 213.016 309.064 207.28 309.064 207.28L314.088 178.429C316.032 185.634 319.444 203.52 320.598 210.385C321.996 218.775 325.654 240.31 327.818 253.155C328.648 258.109 329.035 260.613 329.398 262.912L329.485 263.892C329.556 265.14 330.465 278.491 330.955 281.272C331.982 287.11 337.172 286.375 338.001 281.651C338.712 277.638 337.828 265.187 337.804 263.662L337.788 262.351Z" fill="#FFA8A7"/>
<path d="M337.788 262.351C339.257 262.351 338.294 268.047 338.673 271.689C339.076 275.599 340.356 278.459 340.727 281.659C341.225 284.455 340.795 287.338 339.502 289.867C338.483 292.237 333.348 295.397 331.397 292.071C329.446 288.745 329.027 284.898 329.256 281.248C329.485 277.598 329.256 275.149 329.327 272.281C329.398 269.753 327.542 263.299 329.446 262.936L329.533 263.915C330.22 265.282 337.156 265.551 337.851 263.702L337.788 262.351Z" fill="#37474F"/>
<path d="M303.913 261.703C304.363 263.528 303.913 268.537 303.913 268.537C303.913 268.537 303.123 270.267 300.303 271.412L299.039 264.444L303.913 261.703Z" fill="#263238"/>
<path d="M300.287 271.412L294.077 269.374L292.576 263.86L299.56 267.391L300.287 271.412Z" fill="black"/>
<path d="M293.825 255.32V254.017C292.979 254.427 291.123 261.229 288.611 265.867C286.32 270.125 281.777 272.495 280.3 274.351C278.325 276.824 282.164 280.023 288.318 278.704C291.376 278.048 296.005 276.097 297.261 274.035C298.517 271.973 298.936 268.181 299.963 266.664C300.99 265.148 303.431 263.402 303.913 261.679C304.314 260.125 304.314 258.494 303.913 256.939C303.431 255.359 303.004 253.471 302.467 253.645V254.838C302.056 255.675 300.563 256.655 297.459 256.829C295.942 256.9 294.504 256.671 293.825 255.32Z" fill="#37474F"/>
<path d="M296.289 142.2C296.289 142.2 294.18 165.639 293.501 186.393C292.821 207.146 293.43 233.927 293.43 233.927C293.43 233.927 295.571 235.459 300.287 235.673C305.003 235.886 306.607 234.314 306.607 234.314C306.607 234.314 309.49 224.905 309.941 218.285C310.226 214.701 310.226 211.101 309.941 207.517L314.151 179.82C314.151 179.82 319.492 207.091 320.1 210.385C320.708 213.679 325.82 242.822 325.82 242.822C325.82 242.822 327.826 244.671 332.977 244.576C337.535 244.489 338.855 242.854 338.855 242.854C338.855 242.854 339.953 224.984 339.7 217.353C339.487 210.622 337.946 205.266 337.638 200.897C337.33 196.528 337.156 171.667 336.848 162.187C336.54 152.707 335.75 144.57 327.637 133.162L296.289 142.2Z" fill="black"/>
<path d="M314.183 179.844L310.675 162.464C310.675 162.464 304.569 160.884 301.717 157.139C301.717 157.139 302.507 161.279 308.827 163.925L312.556 181.21L311.26 199.08L314.183 179.844Z" fill="black"/>
<path d="M251.662 137.879C253.912 138.222 256.211 138.052 258.385 137.381C257.43 136.903 256.536 136.312 255.723 135.619C255.35 135.32 255.108 134.886 255.049 134.411C254.99 133.937 255.119 133.457 255.407 133.075C255.699 132.759 256.426 133.494 258.069 133.96C260.171 134.553 261.695 134.679 263.718 135.848C264.481 136.292 265.377 136.449 266.246 136.291C271.175 135.367 282.67 129.971 287.939 127.158C289.014 122.774 290.878 116.328 293.177 108.285C295.302 100.875 298.707 97.6361 304.142 97.7546L303.36 113.847C303.36 113.847 300.769 124.962 297.561 134.039C297.001 135.619 294.749 137.46 290.625 138.993C285.285 140.976 278.838 142.848 270.962 145.005C267.771 145.914 264.51 146.561 261.214 146.94C252.887 147.651 249.695 145.36 248.574 143.717C245.382 139.182 247.27 137.002 251.662 137.879Z" fill="#FFA8A7"/>
<path d="M318.149 97.6361L325.749 98.2207C325.094 101.309 325.28 104.517 326.286 107.51C327.291 110.502 329.081 113.171 331.468 115.237L328.079 128.888C328.19 130.579 330.986 136.267 333.696 142.382C328.601 149.207 303.605 151.538 295.452 145.542C296.708 139.111 297.648 134.229 297.901 131.788L297.49 122.963C287.268 114.582 299.6 101.807 304.142 97.7467L309.846 97.4939L318.149 97.6361Z" fill="#EF4949"/>
<path d="M350.152 165.647C349.6 165.217 349.163 164.657 348.879 164.018C348.596 163.379 348.474 162.679 348.524 161.982C348.659 160.71 348.951 159.114 349.48 158.498C350.01 157.881 353.328 153.371 354.797 155.993C356.377 158.853 356.053 160.014 356.053 160.014L350.152 165.647Z" fill="#F28F8F"/>
<path d="M339.913 225.94C336.347 225.821 332.874 224.77 329.841 222.891L290.396 200.107C284.305 196.592 279.336 188.004 279.336 180.965V147.872C279.332 146.765 279.037 145.678 278.481 144.72C277.925 143.762 277.127 142.968 276.167 142.416C275.206 141.864 274.118 141.574 273.011 141.575C271.903 141.576 270.815 141.868 269.856 142.421L256.047 150.416C255.867 150.53 255.666 150.607 255.456 150.642C255.246 150.676 255.03 150.668 254.823 150.617C254.617 150.567 254.422 150.475 254.251 150.347C254.081 150.219 253.938 150.058 253.831 149.873C253.725 149.689 253.657 149.485 253.631 149.273C253.605 149.062 253.623 148.847 253.682 148.642C253.741 148.438 253.841 148.247 253.976 148.082C254.111 147.917 254.278 147.781 254.467 147.683L268.316 139.68C269.756 138.849 271.389 138.411 273.051 138.41C274.714 138.409 276.347 138.846 277.788 139.676C279.229 140.506 280.426 141.7 281.259 143.138C282.092 144.577 282.533 146.21 282.536 147.872V180.965C282.536 186.89 286.881 194.395 292.016 197.374L331.46 220.142C336.509 223.057 341.193 223.562 344.638 221.579C348.082 219.596 349.986 215.259 349.986 209.453V167.204C349.986 160.046 354.56 151.799 360.398 148.425L370.028 142.895C370.208 142.781 370.409 142.704 370.619 142.67C370.83 142.635 371.045 142.643 371.252 142.694C371.459 142.745 371.653 142.837 371.824 142.965C371.994 143.092 372.137 143.253 372.244 143.438C372.35 143.622 372.419 143.827 372.444 144.038C372.47 144.25 372.453 144.464 372.393 144.669C372.334 144.874 372.234 145.064 372.099 145.229C371.964 145.394 371.797 145.53 371.608 145.629L361.978 151.159C357.191 153.924 353.146 161.263 353.146 167.196V209.445C353.146 216.444 350.681 221.721 346.218 224.305C344.3 225.402 342.123 225.967 339.913 225.94Z" fill="#37474F"/>
<path d="M271.76 152.699V155.282C271.76 159.414 268.861 164.447 265.274 166.508L241.353 180.325L217.029 166.279V145.218L240.618 134.3C244.371 132.57 250.312 132.839 253.898 134.9L265.258 141.465C268.837 143.535 271.76 148.567 271.76 152.699Z" fill="#37474F"/>
<path d="M240.618 134.3C244.371 132.57 250.312 132.839 253.898 134.9L265.258 141.465C268.837 143.527 268.695 146.608 264.942 148.346L241.329 159.248L216.997 145.21L240.618 134.3Z" fill="#455A64"/>
<path opacity="0.15" d="M243.628 154.192C244.571 154.807 245.355 155.636 245.918 156.61C246.48 157.585 246.806 158.678 246.867 159.801V177.126L241.337 180.286L217.013 166.24V145.218L223.175 142.374L243.628 154.192Z" fill="black"/>
<path d="M214.935 141.592C215.3 141.422 215.703 141.353 216.103 141.392C216.503 141.431 216.886 141.576 217.211 141.813L241.132 155.63C242.076 156.245 242.861 157.075 243.424 158.051C243.987 159.027 244.311 160.122 244.371 161.247V181.85C244.414 182.251 244.349 182.656 244.182 183.023C244.015 183.389 243.753 183.705 243.423 183.936C242.87 184.244 240.918 185.374 240.373 185.697C240.007 185.867 239.603 185.936 239.202 185.897C238.8 185.858 238.417 185.713 238.09 185.476L214.161 171.659C213.219 171.044 212.434 170.216 211.872 169.242C211.309 168.267 210.984 167.174 210.922 166.05V145.447C210.88 145.046 210.945 144.641 211.11 144.274C211.275 143.906 211.535 143.588 211.862 143.353L214.935 141.592Z" fill="#37474F"/>
<path d="M238.09 157.384L214.161 143.575C212.376 142.54 210.922 143.377 210.922 145.447V166.05C210.984 167.174 211.309 168.267 211.872 169.242C212.434 170.216 213.219 171.044 214.161 171.659L238.09 185.476C239.876 186.511 241.329 185.674 241.329 183.604V163.001C241.268 161.876 240.942 160.782 240.38 159.806C239.817 158.83 239.033 158.001 238.09 157.384Z" fill="#455A64"/>
<path d="M209.753 181.368V184.931C209.753 186.377 210.251 187.38 211.072 187.854L213.221 189.095C213.736 189.345 214.309 189.451 214.88 189.401C215.45 189.351 215.997 189.147 216.46 188.81L236.21 177.387V163.325L234.061 162.084L214.272 173.508C212.954 174.371 211.858 175.532 211.073 176.898C210.288 178.264 209.836 179.795 209.753 181.368ZM218.704 176.96C218.779 177.217 218.822 177.483 218.83 177.75C218.774 178.806 218.469 179.833 217.94 180.749C217.412 181.665 216.675 182.443 215.789 183.019C215.542 183.164 215.276 183.27 214.999 183.335C214.929 183.078 214.892 182.812 214.888 182.545C214.945 181.49 215.25 180.463 215.778 179.547C216.307 178.632 217.044 177.854 217.929 177.276C218.175 177.142 218.435 177.036 218.704 176.96Z" fill="#EF4949"/>
<path opacity="0.2" d="M213.111 189.016C213.152 189.052 213.197 189.084 213.245 189.11L213.166 189.063L211.088 187.854C210.259 187.396 209.769 186.393 209.769 184.939V181.376C209.821 179.793 210.28 178.25 211.104 176.897L213.253 178.137C212.437 179.494 211.981 181.035 211.926 182.617V186.179C211.868 187.102 212.164 188.012 212.755 188.723C212.861 188.834 212.981 188.933 213.111 189.016Z" fill="black"/>
<path opacity="0.5" d="M236.21 163.325L216.46 174.748C215.12 175.583 214.016 176.747 213.253 178.129L211.104 176.889C211.867 175.509 212.968 174.346 214.303 173.508L234.093 162.084L236.21 163.325Z" fill="white"/>
<path opacity="0.2" d="M218.83 177.75C218.829 177.465 218.792 177.181 218.719 176.905C220.023 176.549 220.979 177.363 220.979 178.99C220.922 180.045 220.618 181.072 220.091 181.987C219.564 182.903 218.829 183.681 217.945 184.26C216.539 185.05 215.338 184.647 215.006 183.335C215.285 183.275 215.552 183.168 215.796 183.019C216.68 182.44 217.414 181.662 217.941 180.746C218.468 179.831 218.773 178.805 218.83 177.75Z" fill="black"/>
<path d="M191.512 170.83V174.401C191.512 175.838 192.01 176.85 192.831 177.316L194.98 178.564C195.494 178.809 196.065 178.911 196.633 178.858C197.2 178.805 197.743 178.6 198.203 178.264L217.953 166.832V152.794L215.804 151.546L196.054 162.969C194.733 163.831 193.634 164.992 192.845 166.357C192.056 167.723 191.599 169.255 191.512 170.83ZM200.463 166.398C200.535 166.674 200.572 166.958 200.573 167.243C200.516 168.299 200.211 169.326 199.683 170.242C199.154 171.157 198.417 171.935 197.532 172.512C197.282 172.648 197.016 172.754 196.742 172.829C196.666 172.559 196.629 172.279 196.631 171.999C196.688 170.944 196.992 169.918 197.519 169.002C198.046 168.087 198.781 167.308 199.665 166.73C199.914 166.582 200.182 166.471 200.463 166.398Z" fill="#EF4949"/>
<path opacity="0.2" d="M195.075 178.619H195.035H194.98L192.831 177.363C192.002 176.897 191.512 175.894 191.512 174.44V170.877C191.52 170.116 191.64 169.36 191.867 168.634C192.105 167.856 192.431 167.109 192.839 166.406L194.988 167.638C194.784 167.99 194.602 168.354 194.443 168.728C193.952 169.79 193.684 170.941 193.653 172.11V175.672C193.585 176.59 193.868 177.498 194.443 178.216C194.629 178.386 194.843 178.522 195.075 178.619Z" fill="black"/>
<path opacity="0.5" d="M217.977 152.794L198.227 164.217C196.885 165.05 195.78 166.215 195.019 167.599L192.871 166.366C193.62 164.985 194.707 163.816 196.031 162.969L215.781 151.546L217.977 152.794Z" fill="white"/>
<path opacity="0.2" d="M200.565 167.235C200.567 166.953 200.532 166.671 200.463 166.398C201.758 166.034 202.722 166.856 202.722 168.483C202.665 169.538 202.361 170.565 201.834 171.48C201.307 172.395 200.572 173.174 199.688 173.753C198.274 174.543 197.081 174.14 196.75 172.82C197.029 172.762 197.296 172.655 197.54 172.504C198.423 171.926 199.157 171.147 199.682 170.232C200.208 169.316 200.511 168.289 200.565 167.235Z" fill="black"/>
<path d="M197.5 157.645C197.237 157.645 196.981 157.558 196.773 157.396C196.566 157.234 196.418 157.007 196.355 156.752L193.195 144.365C193.116 144.06 193.162 143.736 193.322 143.465C193.482 143.194 193.743 142.997 194.048 142.919C194.353 142.84 194.676 142.886 194.947 143.046C195.218 143.206 195.415 143.467 195.493 143.772L198.653 156.167C198.694 156.318 198.703 156.475 198.682 156.629C198.661 156.783 198.609 156.932 198.529 157.066C198.45 157.2 198.344 157.316 198.219 157.409C198.094 157.502 197.952 157.568 197.8 157.605C197.702 157.63 197.601 157.644 197.5 157.645Z" fill="#E0E0E0"/>
<path d="M188.605 162.811C188.338 162.812 188.079 162.723 187.87 162.558L176.107 153.26C175.977 153.166 175.868 153.047 175.785 152.91C175.702 152.773 175.648 152.621 175.626 152.462C175.604 152.304 175.615 152.142 175.657 151.988C175.699 151.833 175.772 151.689 175.871 151.564C175.97 151.438 176.094 151.334 176.235 151.258C176.375 151.181 176.53 151.134 176.689 151.119C176.849 151.104 177.01 151.122 177.162 151.171C177.314 151.219 177.455 151.299 177.576 151.404L189.339 160.694C189.585 160.89 189.744 161.175 189.781 161.487C189.818 161.799 189.73 162.113 189.537 162.361C189.426 162.502 189.285 162.617 189.123 162.695C188.962 162.773 188.784 162.813 188.605 162.811Z" fill="#E0E0E0"/>
<path d="M172.394 174.155C172.08 174.167 171.774 174.053 171.543 173.839C171.313 173.625 171.177 173.328 171.165 173.014C171.154 172.7 171.268 172.394 171.482 172.163C171.696 171.933 171.993 171.797 172.307 171.785L186.061 170.719C186.216 170.706 186.372 170.724 186.521 170.772C186.669 170.82 186.806 170.897 186.925 170.998C187.043 171.1 187.14 171.224 187.21 171.363C187.28 171.502 187.322 171.654 187.333 171.809C187.355 172.122 187.252 172.431 187.048 172.669C186.844 172.907 186.555 173.055 186.243 173.081L172.489 174.148L172.394 174.155Z" fill="#E0E0E0"/>
<path d="M360.904 152.754C360.636 149.836 360.203 146.934 359.608 144.064C357.811 137.331 355.415 130.772 352.451 124.465C351.131 121.944 348.153 118.271 346.044 115.166C343.058 110.782 340.956 108.325 338.689 105.347C333.696 98.8133 331.579 98.4341 325.749 98.2366C324.959 100.314 323.158 108.83 328.996 115.711L341.509 128.904C342.22 130.05 349.867 143.124 351.139 147.951C351.359 148.81 351.252 149.719 350.839 150.503C349.84 152.715 349.105 155.038 348.651 157.423C348.279 159.098 347.284 160.425 347.624 160.686C348.043 160.966 348.545 161.097 349.049 161.057C349.552 161.017 350.027 160.808 350.397 160.465C351.29 159.506 352.019 158.406 352.553 157.21C352.788 157.195 353.024 157.228 353.245 157.309C353.466 157.389 353.668 157.515 353.838 157.677C354.008 157.84 354.143 158.036 354.233 158.254C354.323 158.471 354.367 158.705 354.362 158.94C354.434 159.912 353.991 161.263 353.651 162.945C353.588 163.277 353.509 163.656 353.359 164.573C353.23 165.192 353.156 165.821 353.138 166.453C354.718 166.745 356.369 165.782 359.023 163.293C361.417 160.97 361.575 157.921 360.904 152.754Z" fill="#FFA8A7"/>
<path d="M319.508 93.7967C319.555 92.2167 324.69 88.5195 327.289 84.5853C329.659 80.9355 333.064 70.9025 325.085 67.6951C325.085 67.6951 326.807 62.884 323.679 60.0479C320.55 57.2118 316.34 58.9656 315.676 60.1506C315.275 58.6733 314.408 57.3648 313.204 56.4198C312 55.4747 310.523 54.9434 308.993 54.905C307.498 54.7925 306.013 55.2237 304.811 56.1194C303.609 57.015 302.771 58.3148 302.452 59.7793C301.189 59.2328 299.777 59.1371 298.452 59.5082C297.127 59.8793 295.971 60.6946 295.176 61.8175C292.245 65.8544 296.132 69.5516 296.132 69.5516C295.627 69.8918 295.225 70.3625 294.968 70.9135C294.71 71.4645 294.607 72.0751 294.67 72.68C294.899 74.3864 296.534 74.8051 296.724 75.6583C296.761 75.8368 296.738 76.0224 296.66 76.187C296.581 76.3515 296.451 76.486 296.29 76.57C296.128 76.654 295.943 76.6829 295.764 76.6524C295.584 76.6219 295.419 76.5336 295.294 76.4009C295.337 76.6237 295.423 76.8358 295.548 77.0252C295.673 77.2146 295.834 77.3774 296.021 77.5044C296.209 77.6314 296.42 77.72 296.643 77.7652C296.865 77.8104 297.094 77.8112 297.317 77.7676C299.157 77.6649 300.8 75.1606 300.8 75.1606L319.508 93.7967Z" fill="#263238"/>
<path d="M302.759 67.1895C300.389 68.2165 298.154 71.8267 298.185 81.9229C298.185 90.4786 300.84 92.6433 302.135 93.2832C303.431 93.9231 306.046 93.5913 308.566 93.2042V98.1259C308.566 98.1259 304.008 103.782 308.092 106.595C318.615 104.754 319.421 97.8494 319.421 97.8494L319.61 87.1212C319.61 87.1212 321.056 88.6379 323.56 86.4101C325.662 84.5694 326.42 81.4174 324.84 79.6794C323.26 77.9414 321.238 77.8071 319.405 79.7426C319.405 79.7426 316.047 79.9638 310.999 76.7958C305.951 73.628 304.15 70.4127 302.759 67.1895Z" fill="#FFA8A7"/>
<path d="M308.819 87.2793C308.83 87.4425 308.808 87.6062 308.755 87.7608C308.701 87.9154 308.618 88.0579 308.509 88.18C308.4 88.302 308.268 88.4012 308.121 88.4717C307.973 88.5422 307.813 88.5827 307.65 88.5907C307.397 88.6111 307.143 88.5552 306.922 88.4301C306.701 88.3051 306.522 88.1167 306.409 87.8892C306.296 87.6618 306.253 87.4056 306.287 87.1538C306.321 86.902 306.429 86.6661 306.598 86.4765C306.767 86.2869 306.989 86.1522 307.236 86.0899C307.482 86.0276 307.741 86.0404 307.98 86.1268C308.219 86.2132 308.427 86.3691 308.576 86.5745C308.726 86.78 308.81 87.0254 308.819 87.2793Z" fill="#B16668"/>
<path d="M302.317 79C302.315 79.2226 302.248 79.4398 302.124 79.6247C302 79.8095 301.825 79.954 301.62 80.0401C301.414 80.1262 301.188 80.1502 300.97 80.1092C300.751 80.0681 300.549 79.9637 300.389 79.809C300.229 79.6543 300.118 79.456 300.069 79.2388C300.021 79.0215 300.037 78.7948 300.116 78.5868C300.195 78.3787 300.334 78.1984 300.514 78.0683C300.695 77.9381 300.91 77.8638 301.132 77.8545C301.285 77.8514 301.438 77.8785 301.58 77.9345C301.723 77.9905 301.853 78.0741 301.963 78.1806C302.073 78.2871 302.161 78.4143 302.222 78.5549C302.283 78.6955 302.315 78.8468 302.317 79Z" fill="#263238"/>
<path d="M311.062 79.5215C311.073 79.6847 311.051 79.8483 310.998 80.0029C310.945 80.1576 310.861 80.3001 310.753 80.4221C310.644 80.5442 310.512 80.6433 310.364 80.7139C310.217 80.7844 310.057 80.8249 309.893 80.8329C309.563 80.835 309.245 80.7069 309.008 80.4762C308.772 80.2455 308.636 79.9309 308.629 79.6005C308.624 79.4407 308.65 79.2815 308.707 79.1319C308.763 78.9823 308.848 78.8453 308.958 78.7287C309.067 78.612 309.198 78.518 309.344 78.4521C309.489 78.3862 309.647 78.3496 309.806 78.3444C309.966 78.3392 310.125 78.3655 310.275 78.4219C310.425 78.4782 310.562 78.5635 310.678 78.6728C310.795 78.7821 310.889 78.9133 310.955 79.0589C311.021 79.2045 311.057 79.3617 311.062 79.5215Z" fill="#263238"/>
<path d="M301.527 74.4734L299.118 75.8875C299.204 76.0504 299.322 76.1938 299.466 76.3089C299.61 76.424 299.776 76.5082 299.954 76.5564C300.132 76.6046 300.318 76.6156 300.5 76.5889C300.682 76.5622 300.857 76.4982 301.014 76.401C301.33 76.2072 301.561 75.8988 301.656 75.5399C301.752 75.1811 301.706 74.7991 301.527 74.4734Z" fill="#263238"/>
<path d="M319.452 78.3523V83.0923C319.148 83.1 318.846 83.0455 318.564 82.932C318.282 82.8185 318.026 82.6485 317.812 82.4324C317.598 82.2163 317.431 81.9587 317.32 81.6754C317.21 81.3922 317.158 81.0893 317.169 80.7855C317.172 80.1665 317.409 79.5714 317.832 79.1199C318.256 78.6685 318.835 78.3942 319.452 78.3523Z" fill="#263238"/>
<path d="M305.43 77.8704L304.948 84.696L301.345 83.8507L305.43 77.8704Z" fill="#F28F8F"/>
<path d="M308.598 93.2199C311.244 92.9118 316.711 91.395 317.604 89.1672C317.25 90.2834 316.567 91.2665 315.645 91.9875C313.993 93.4095 308.59 94.8789 308.59 94.8789L308.598 93.2199Z" fill="#F28F8F"/>
<path d="M340.411 40.4321C341.419 40.8169 342.364 41.3494 343.215 42.0121C344.04 42.6149 344.749 43.3616 345.309 44.2162C345.841 45.0383 346.192 45.965 346.336 46.9338C346.478 47.9679 346.35 49.0212 345.965 49.9911C345.689 50.7676 345.262 51.4818 344.708 52.0925C344.214 52.6131 343.647 53.0601 343.026 53.4197C342.421 53.7652 341.786 54.0561 341.13 54.2887L339.265 54.9602C338.717 55.1584 338.188 55.407 337.685 55.7028C337.212 55.941 336.815 56.3079 336.54 56.7614C336.414 56.9732 336.234 57.1476 336.018 57.267C335.915 57.3238 335.801 57.3568 335.683 57.3637C335.566 57.3705 335.448 57.351 335.339 57.3065L332.874 56.3822C332.757 56.3389 332.65 56.2725 332.559 56.187C332.468 56.1015 332.395 55.9987 332.345 55.8845C332.291 55.7753 332.262 55.6549 332.262 55.5329C332.262 55.411 332.291 55.2906 332.345 55.1814C332.662 54.4213 333.129 53.7333 333.72 53.159C334.255 52.6558 334.852 52.223 335.497 51.8713C336.12 51.537 336.77 51.2568 337.441 51.0339C338.104 50.8127 338.72 50.5994 339.297 50.3782C339.818 50.187 340.318 49.9435 340.79 49.6514C341.196 49.3942 341.507 49.0113 341.675 48.5612C341.831 48.1669 341.888 47.7405 341.841 47.3191C341.794 46.8978 341.645 46.4943 341.406 46.1438C340.812 45.2806 339.948 44.6388 338.949 44.3189C338.08 43.973 337.125 43.9049 336.215 44.1242C335.305 44.3435 334.486 44.8393 333.87 45.5434C333.712 45.7099 333.528 45.8488 333.325 45.9542C333.105 46.0229 332.868 46.0059 332.661 45.9068L330.038 44.9193C329.945 44.8868 329.859 44.8358 329.785 44.7693C329.712 44.7028 329.653 44.6221 329.612 44.5322C329.566 44.44 329.543 44.3387 329.543 44.2359C329.543 44.1332 329.566 44.0319 329.612 43.9397C329.959 43.1342 330.502 42.4282 331.192 41.8857C331.959 41.2473 332.834 40.7498 333.775 40.4163C334.809 40.0511 335.894 39.8537 336.99 39.8317C338.158 39.8096 339.32 40.0135 340.411 40.4321ZM334.786 59.3131C334.901 59.354 335.007 59.4188 335.095 59.5032C335.184 59.5876 335.253 59.6897 335.3 59.8029C335.348 59.9151 335.373 60.0361 335.373 60.1584C335.373 60.2807 335.348 60.4017 335.3 60.5139L334.225 63.3658C334.184 63.481 334.12 63.5863 334.035 63.6748C333.951 63.7633 333.849 63.833 333.735 63.8793C333.623 63.928 333.502 63.9531 333.38 63.9531C333.258 63.9531 333.137 63.928 333.024 63.8793L330.236 62.8286C330.12 62.7877 330.015 62.7229 329.927 62.6385C329.838 62.5541 329.769 62.452 329.722 62.3388C329.673 62.2266 329.648 62.1056 329.648 61.9833C329.648 61.861 329.673 61.74 329.722 61.6278L330.797 58.7759C330.839 58.6604 330.904 58.5546 330.988 58.465C331.072 58.3753 331.174 58.3037 331.286 58.2545C331.399 58.2076 331.52 58.1834 331.642 58.1834C331.764 58.1834 331.885 58.2076 331.997 58.2545L334.786 59.3131Z" fill="#EF4949"/>
<path d="M341.778 74.4812C341.86 74.5621 341.926 74.6586 341.97 74.7651C342.015 74.8716 342.038 74.9859 342.038 75.1013C342.038 75.2168 342.015 75.3311 341.97 75.4376C341.926 75.5441 341.86 75.6406 341.778 75.7215L339.803 77.8071C339.724 77.8913 339.628 77.9585 339.522 78.0046C339.416 78.0508 339.302 78.075 339.187 78.0757C339.071 78.0799 338.955 78.0611 338.847 78.0204C338.738 77.9798 338.639 77.918 338.554 77.8387L336.54 75.9032C336.456 75.824 336.389 75.7286 336.342 75.6227C336.296 75.5167 336.272 75.4025 336.271 75.287C336.265 75.171 336.283 75.0551 336.324 74.9463C336.365 74.8376 336.428 74.7384 336.508 74.655L338.491 72.5773C338.657 72.4147 338.879 72.3236 339.111 72.3236C339.343 72.3236 339.566 72.4147 339.732 72.5773L341.778 74.4812ZM353.628 60.1585C354.362 60.8545 354.993 61.6527 355.5 62.5285C355.989 63.3584 356.328 64.2675 356.503 65.2145C356.651 66.1223 356.606 67.0512 356.369 67.94C356.117 68.781 355.692 69.5603 355.123 70.2281C354.553 70.8959 353.85 71.4377 353.059 71.8189C352.441 72.0918 351.786 72.2728 351.116 72.3561C350.463 72.4295 349.804 72.4481 349.148 72.4114L347.284 72.3087C346.728 72.2786 346.17 72.2972 345.617 72.364C345.122 72.4187 344.651 72.6102 344.258 72.917C344.072 73.0575 343.851 73.1424 343.618 73.1619C343.507 73.1743 343.395 73.1616 343.29 73.1247C343.185 73.0878 343.089 73.0276 343.01 72.9486L341.217 71.2422C341.044 71.0793 340.942 70.8553 340.932 70.6181C340.921 70.5014 340.938 70.3837 340.982 70.275C341.026 70.1663 341.096 70.0699 341.185 69.994C341.736 69.4467 342.391 69.0167 343.113 68.73C343.762 68.489 344.439 68.3324 345.127 68.2639C345.792 68.2087 346.461 68.2087 347.126 68.2639C347.784 68.3218 348.401 68.3613 348.975 68.3824C349.503 68.409 350.032 68.3799 350.555 68.2955C351.004 68.2256 351.418 68.0089 351.732 67.6793C352.009 67.3926 352.212 67.0431 352.325 66.6607C352.438 66.2783 352.457 65.8743 352.379 65.4831C352.183 64.514 351.669 63.6382 350.918 62.9946C350.287 62.3775 349.481 61.9703 348.61 61.8289C347.739 61.6875 346.845 61.8187 346.052 62.2046C345.857 62.2904 345.648 62.3412 345.435 62.3547C345.327 62.3482 345.222 62.3196 345.125 62.2707C345.029 62.2218 344.944 62.1536 344.874 62.0703L342.963 60.2454C342.825 60.1209 342.74 59.9485 342.726 59.7635C342.721 59.6658 342.737 59.5681 342.772 59.4769C342.807 59.3857 342.862 59.303 342.931 59.2342C343.529 58.6659 344.255 58.2511 345.048 58.0255C345.949 57.7561 346.89 57.6465 347.829 57.7016C348.862 57.7645 349.879 57.994 350.839 58.381C351.866 58.7859 352.803 59.39 353.596 60.1585H353.628Z" fill="#EF4949"/>
<g opacity="0.6">
<path d="M341.778 74.4812C341.86 74.5621 341.926 74.6586 341.97 74.7651C342.015 74.8716 342.038 74.9859 342.038 75.1013C342.038 75.2168 342.015 75.3311 341.97 75.4376C341.926 75.5441 341.86 75.6406 341.778 75.7215L339.803 77.8071C339.724 77.8913 339.628 77.9585 339.522 78.0046C339.416 78.0508 339.302 78.075 339.187 78.0757C339.071 78.0799 338.955 78.0611 338.847 78.0204C338.738 77.9798 338.639 77.918 338.554 77.8387L336.54 75.9032C336.456 75.824 336.389 75.7286 336.342 75.6227C336.296 75.5167 336.272 75.4025 336.271 75.287C336.265 75.171 336.283 75.0551 336.324 74.9463C336.365 74.8376 336.428 74.7384 336.508 74.655L338.491 72.5773C338.657 72.4147 338.879 72.3236 339.111 72.3236C339.343 72.3236 339.566 72.4147 339.732 72.5773L341.778 74.4812ZM353.628 60.1585C354.362 60.8545 354.993 61.6527 355.5 62.5285C355.989 63.3584 356.328 64.2675 356.503 65.2145C356.651 66.1223 356.606 67.0512 356.369 67.94C356.117 68.781 355.692 69.5603 355.123 70.2281C354.553 70.8959 353.85 71.4377 353.059 71.8189C352.441 72.0918 351.786 72.2728 351.116 72.3561C350.463 72.4295 349.804 72.4481 349.148 72.4114L347.284 72.3087C346.728 72.2786 346.17 72.2972 345.617 72.364C345.122 72.4187 344.651 72.6102 344.258 72.917C344.072 73.0575 343.851 73.1424 343.618 73.1619C343.507 73.1743 343.395 73.1616 343.29 73.1247C343.185 73.0878 343.089 73.0276 343.01 72.9486L341.217 71.2422C341.044 71.0793 340.942 70.8553 340.932 70.6181C340.921 70.5014 340.938 70.3837 340.982 70.275C341.026 70.1663 341.096 70.0699 341.185 69.994C341.736 69.4467 342.391 69.0167 343.113 68.73C343.762 68.489 344.439 68.3324 345.127 68.2639C345.792 68.2087 346.461 68.2087 347.126 68.2639C347.784 68.3218 348.401 68.3613 348.975 68.3824C349.503 68.409 350.032 68.3799 350.555 68.2955C351.004 68.2256 351.418 68.0089 351.732 67.6793C352.009 67.3926 352.212 67.0431 352.325 66.6607C352.438 66.2783 352.457 65.8743 352.379 65.4831C352.183 64.514 351.669 63.6382 350.918 62.9946C350.287 62.3775 349.481 61.9703 348.61 61.8289C347.739 61.6875 346.845 61.8187 346.052 62.2046C345.857 62.2904 345.648 62.3412 345.435 62.3547C345.327 62.3482 345.222 62.3196 345.125 62.2707C345.029 62.2218 344.944 62.1536 344.874 62.0703L342.963 60.2454C342.825 60.1209 342.74 59.9485 342.726 59.7635C342.721 59.6658 342.737 59.5681 342.772 59.4769C342.807 59.3857 342.862 59.303 342.931 59.2342C343.529 58.6659 344.255 58.2511 345.048 58.0255C345.949 57.7561 346.89 57.6465 347.829 57.7016C348.862 57.7645 349.879 57.994 350.839 58.381C351.866 58.7859 352.803 59.39 353.596 60.1585H353.628Z" fill="white"/>
</g>
<path d="M60.6798 273.111C63.1841 274.636 66.51 274.691 69.6463 273.593L72.0163 257.003L60.9563 254.175L60.6798 273.111Z" fill="#FFA8A7"/>
<path d="M78.5259 288.99C78.8024 289.274 78.6365 291.36 78.2968 291.826C77.9571 292.292 76.0532 293.872 72.5456 293.935C69.2039 293.991 66.2256 293.382 64.3612 292.031C62.4968 290.68 61.6041 289.266 61.5172 287.354C61.4303 285.443 61.7463 283.634 60.9247 282.125C60.1031 280.616 59.1156 279.352 58.8628 278.609C58.5661 277.264 58.5661 275.87 58.8628 274.525L78.5259 288.99Z" fill="#263238"/>
<path d="M70.4126 272.898C70.4282 273.618 70.529 274.334 70.7128 275.031C71.1436 276.525 71.7509 277.962 72.5219 279.312C72.9054 280.017 73.3356 280.695 73.8096 281.343C74.7497 282.599 75.9505 283.65 76.9696 284.858C78.0514 286.004 78.702 287.489 78.8103 289.061C78.8103 291.684 75.9268 292.419 73.7227 292.687C71.3276 292.979 68.8975 292.728 66.6127 291.952C65.417 291.57 64.3569 290.851 63.5596 289.881C62.7623 288.912 62.2617 287.733 62.1176 286.486C62.0307 285.751 62.1176 285.016 62.0702 284.282C61.8735 282.596 61.2599 280.986 60.2848 279.597C59.718 278.793 59.2411 277.929 58.8628 277.021C58.2624 275.37 58.9102 273.577 59.4316 271.989C59.8819 270.622 60.2216 268.971 60.7272 269.129C60.7272 269.406 60.7272 270.022 60.7272 270.022C60.8694 270.33 61.217 270.551 61.3039 270.915C61.3859 271.29 61.4995 271.657 61.6436 272.013C61.8588 272.563 62.2398 273.032 62.7338 273.356C62.8207 272.368 62.9076 271.381 62.9866 270.401C62.9642 270.246 62.9776 270.087 63.0257 269.937C63.0738 269.787 63.1554 269.651 63.2643 269.537C63.3732 269.424 63.5065 269.336 63.6542 269.282C63.8018 269.228 63.9599 269.208 64.1163 269.224C65.9695 268.885 67.8633 268.829 69.7332 269.058C69.8741 269.069 70.0115 269.107 70.1376 269.171C70.2636 269.234 70.3759 269.322 70.4679 269.43C70.5644 269.639 70.5947 269.874 70.5548 270.101C70.457 271.03 70.4096 271.964 70.4126 272.898Z" fill="#EF4949"/>
<path opacity="0.2" d="M70.4126 272.898C70.4282 273.618 70.529 274.334 70.7128 275.031C71.1436 276.525 71.7509 277.962 72.5219 279.312C72.9054 280.017 73.3356 280.695 73.8096 281.343C74.7497 282.599 75.9505 283.65 76.9696 284.858C78.0514 286.004 78.702 287.489 78.8103 289.061C78.8103 291.684 75.9268 292.419 73.7227 292.687C71.3276 292.979 68.8975 292.728 66.6127 291.952C65.417 291.57 64.3569 290.851 63.5596 289.881C62.7623 288.912 62.2617 287.733 62.1176 286.486C62.0307 285.751 62.1176 285.016 62.0702 284.282C61.8735 282.596 61.2599 280.986 60.2848 279.597C59.718 278.793 59.2411 277.929 58.8628 277.021C58.2624 275.37 58.9102 273.577 59.4316 271.989C59.8819 270.622 60.2216 268.971 60.7272 269.129C60.7272 269.406 60.7272 270.022 60.7272 270.022C60.8694 270.33 61.217 270.551 61.3039 270.915C61.3859 271.29 61.4995 271.657 61.6436 272.013C61.8588 272.563 62.2398 273.032 62.7338 273.356C62.8207 272.368 62.9076 271.381 62.9866 270.401C62.9642 270.246 62.9776 270.087 63.0257 269.937C63.0738 269.787 63.1554 269.651 63.2643 269.537C63.3732 269.424 63.5065 269.336 63.6542 269.282C63.8018 269.228 63.9599 269.208 64.1163 269.224C65.9695 268.885 67.8633 268.829 69.7332 269.058C69.8741 269.069 70.0115 269.107 70.1376 269.171C70.2636 269.234 70.3759 269.322 70.4679 269.43C70.5644 269.639 70.5947 269.874 70.5548 270.101C70.457 271.03 70.4096 271.964 70.4126 272.898Z" fill="black"/>
<path d="M72.8459 279.881C71.9137 279.091 69.7333 278.973 68.5325 279.036C67.316 279.077 66.129 279.421 65.0802 280.039C64.9252 280.134 64.7424 280.172 64.5626 280.147C64.3828 280.123 64.2168 280.037 64.0927 279.905C64.0197 279.828 63.9645 279.736 63.9309 279.635C63.8973 279.535 63.8861 279.428 63.8981 279.322C63.9102 279.217 63.9452 279.115 64.0006 279.025C64.056 278.935 64.1306 278.857 64.2191 278.799C65.38 278.042 66.7285 277.624 68.1138 277.59C71.1 277.543 71.89 278.08 71.89 278.08C71.89 278.08 73.1856 279.028 72.8459 279.881Z" fill="#455A64"/>
<path d="M74.9393 282.678C73.7543 281.888 71.3527 281.888 70.1519 281.927C68.9577 281.984 67.7996 282.354 66.7944 283.002C66.6387 283.098 66.4542 283.137 66.2726 283.113C66.0911 283.088 65.9236 283.002 65.799 282.867C65.7251 282.79 65.6692 282.698 65.6354 282.597C65.6016 282.496 65.5908 282.388 65.6036 282.282C65.6165 282.177 65.6527 282.075 65.7098 281.985C65.7668 281.895 65.8432 281.818 65.9333 281.761C67.101 280.962 68.4697 280.508 69.8833 280.45C72.83 280.395 73.5647 281.042 73.5647 281.042C73.9035 281.192 74.2035 281.417 74.4418 281.701C74.6801 281.984 74.8503 282.318 74.9393 282.678Z" fill="#455A64"/>
<path d="M67.0946 274.722C68.3422 274.573 69.6073 274.747 70.7681 275.228C71.2658 275.552 71.5581 276.381 71.2184 276.571C70.1939 276.095 69.0675 275.881 67.9399 275.947C66.8358 275.996 65.7483 276.234 64.7246 276.65C64.4639 276.745 64.1637 276.887 63.9346 277.013C63.8502 277.057 63.7578 277.082 63.6631 277.088C63.5684 277.093 63.4736 277.08 63.3846 277.047C63.2955 277.014 63.2142 276.964 63.1457 276.898C63.0772 276.832 63.0231 276.753 62.9866 276.666C62.9371 276.52 62.9399 276.361 62.9947 276.217C63.0495 276.073 63.1528 275.952 63.2868 275.876C64.4595 275.225 65.7577 274.831 67.0946 274.722Z" fill="#455A64"/>
<path d="M91.8532 266.878C93.7808 271.705 96.7986 270.219 101.396 267.439L102.092 250.959L90.3917 249.877L91.8532 266.878Z" fill="#FFA8A7"/>
<path d="M119.045 278.499C119.258 279.274 119.168 280.102 118.792 280.813C118.429 281.477 114.771 283.294 109.992 282.709C106.448 282.273 103.086 280.893 100.259 278.712C98.4971 277.401 96.609 277.077 94.239 276.808C91.869 276.54 90.0915 275.718 89.6254 274.58C89.1593 273.443 89.8703 271.562 89.8703 271.562L119.045 278.499Z" fill="#263238"/>
<path d="M100.433 263.307C100.865 263.216 101.29 263.094 101.704 262.944C101.936 262.858 102.191 262.858 102.423 262.944C102.724 263.078 102.818 263.441 102.889 263.734C102.957 264.449 103.095 265.155 103.3 265.843C103.624 266.414 104.052 266.918 104.564 267.328C105.703 268.347 106.945 269.245 108.269 270.006C109.794 270.938 111.295 271.673 112.867 272.487C114.439 273.301 116.643 273.885 117.892 274.857C119.701 276.231 119.772 279.431 117.56 280.569C115.656 281.556 110.726 282.472 105.71 280.75C102.968 279.81 100.045 276.674 96.4115 276.192C94.0968 275.892 91.0158 275.528 89.6175 273.688C89.1119 272.898 89.5543 270.607 89.9651 267.929C90.3364 265.559 90.6761 261.767 91.4424 262.019L91.4977 262.746L92.4299 263.86C92.6341 264.077 92.8504 264.283 93.0777 264.476C93.3271 264.768 93.5908 265.048 93.8677 265.314C94.2433 265.635 94.7101 265.831 95.2028 265.875C95.4363 265.889 95.6692 265.837 95.8743 265.724C96.2693 265.503 96.3246 264.982 96.6643 264.658C97.0317 264.28 97.4726 263.982 97.9599 263.781C98.6366 263.54 99.3442 263.396 100.061 263.354C100.186 263.347 100.31 263.331 100.433 263.307Z" fill="#EF4949"/>
<path opacity="0.2" d="M100.433 263.307C100.865 263.216 101.29 263.094 101.704 262.944C101.936 262.858 102.191 262.858 102.423 262.944C102.724 263.078 102.818 263.441 102.889 263.734C102.957 264.449 103.095 265.155 103.3 265.843C103.624 266.414 104.052 266.918 104.564 267.328C105.703 268.347 106.945 269.245 108.269 270.006C109.794 270.938 111.295 271.673 112.867 272.487C114.439 273.301 116.643 273.885 117.892 274.857C119.701 276.231 119.772 279.431 117.56 280.569C115.656 281.556 110.726 282.472 105.71 280.75C102.968 279.81 100.045 276.674 96.4115 276.192C94.0968 275.892 91.0158 275.528 89.6175 273.688C89.1119 272.898 89.5543 270.607 89.9651 267.929C90.3364 265.559 90.6761 261.767 91.4424 262.019L91.4977 262.746L92.4299 263.86C92.6341 264.077 92.8504 264.283 93.0777 264.476C93.3271 264.768 93.5908 265.048 93.8677 265.314C94.2433 265.635 94.7101 265.831 95.2028 265.875C95.4363 265.889 95.6692 265.837 95.8743 265.724C96.2693 265.503 96.3246 264.982 96.6643 264.658C97.0317 264.28 97.4726 263.982 97.9599 263.781C98.6366 263.54 99.3442 263.396 100.061 263.354C100.186 263.347 100.31 263.331 100.433 263.307Z" fill="black"/>
<path d="M106.176 268.6C106.024 268.272 105.793 267.987 105.503 267.77C105.214 267.554 104.875 267.413 104.517 267.36C103.474 267.107 101.57 267.786 100.362 268.679C100.247 268.763 100.154 268.873 100.092 269C100.03 269.128 99.9995 269.269 100.004 269.411C100.009 269.552 100.048 269.691 100.119 269.814C100.189 269.937 100.289 270.041 100.409 270.117C100.561 270.209 100.738 270.253 100.915 270.243C101.093 270.233 101.263 270.17 101.404 270.062C102.741 268.966 104.455 268.441 106.176 268.6Z" fill="#455A64"/>
<path d="M109.344 270.63C109.131 270.294 108.84 270.014 108.497 269.813C108.153 269.613 107.766 269.497 107.369 269.477C105.739 269.461 104.146 269.961 102.818 270.907C102.706 270.985 102.614 271.089 102.551 271.21C102.487 271.331 102.454 271.465 102.454 271.602C102.454 271.739 102.487 271.873 102.551 271.995C102.614 272.116 102.706 272.219 102.818 272.297C102.966 272.386 103.138 272.428 103.31 272.417C103.483 272.406 103.647 272.342 103.782 272.234C104.529 271.565 105.416 271.073 106.379 270.796C107.342 270.518 108.356 270.461 109.344 270.63Z" fill="#455A64"/>
<path d="M112.867 272.479C112.621 272.165 112.31 271.908 111.956 271.725C111.601 271.543 111.212 271.439 110.813 271.42C109.24 271.433 107.711 271.942 106.445 272.874C106.335 272.955 106.246 273.062 106.187 273.186C106.127 273.309 106.099 273.445 106.103 273.581C106.108 273.718 106.146 273.852 106.214 273.971C106.281 274.09 106.377 274.19 106.492 274.264C106.635 274.361 106.807 274.408 106.979 274.398C107.152 274.388 107.316 274.321 107.448 274.209C108.153 273.517 109.011 273 109.952 272.7C110.893 272.399 111.892 272.323 112.867 272.479Z" fill="#455A64"/>
<path d="M60.3718 228.634C60.7273 220.679 62.4179 216.539 62.6549 214.335C62.6549 214.335 63.3027 170.569 64.3692 157.289L103.553 155.622C104.13 169.842 104.651 208.046 104.343 213.102C104.051 217.945 102.084 259.949 102.084 259.949C96.5538 261.68 90.6525 259.159 90.6525 259.159C90.6525 259.159 87.3661 235.262 86.8289 229.993C86.4476 225.253 86.5694 220.487 87.1923 215.773L84.688 181.747C84.688 181.747 81.6623 208.133 80.1692 218.087C78.4628 229.471 71.1 264.761 71.1 264.761C65.807 266.08 60.6562 263.797 60.6562 263.797C60.6562 263.797 59.8504 240.16 60.3718 228.634Z" fill="black"/>
<path d="M84.6958 181.779L85.4384 177.086C87.7215 176.747 93.5043 173.136 96.925 169.976C94.4883 173.664 91.1914 176.703 87.3186 178.832L87.2001 215.788L84.6958 181.779Z" fill="black"/>
<path d="M100.764 132.57C98.1022 126.495 93.5202 116.264 93.5202 116.264L92.3589 99.6743C94.054 99.7283 95.7447 99.8787 97.4228 100.125C99.8876 100.512 103.798 102.866 105.583 107.306C106.919 110.6 113.855 130.698 113.855 130.698L125.942 124.33C129.039 122.363 130.137 119.1 132.112 117.22C134.087 115.34 136.062 115.056 138.25 113.547C140.438 112.038 141.299 110.829 141.852 112.338C142.405 113.847 139.956 116.162 139.482 116.738C139.008 117.315 136.63 118.547 139.664 118.705C142.698 118.863 148.836 115.909 150.305 115.403C151.775 114.898 151.648 116.644 150.882 117.726C150.116 118.808 150.037 121.984 148.757 123.761C147.398 125.657 146.663 126.471 143.748 127.601C141.039 128.644 135.422 128.912 132.53 130.579C129.639 132.246 122.64 138.574 117.971 141.821C111.706 146.182 108.183 146.466 105.726 142.99C103.269 139.514 101.705 134.711 100.764 132.57Z" fill="#FFA8A7"/>
<path d="M90.7235 99.3189C94.8315 99.0029 99.6742 99.2557 102.352 101.689C104.493 103.64 105.299 104.849 107.685 111.595C109.265 116.122 112.646 126.55 112.646 126.55C108.004 127.598 103.838 130.15 100.796 133.81L93.0935 116.501L90.7235 99.3189Z" fill="#E0E0E0"/>
<path d="M113.855 130.658C111.773 131.395 109.982 132.779 108.743 134.608C108.743 134.608 109.036 131.448 113.483 129.56L113.855 130.658Z" fill="#F28F8F"/>
<path d="M80.888 98.5763C78.9422 98.4961 76.9955 98.7091 75.1131 99.2083C71.5028 100.164 65.0327 101.981 65.0327 101.981C62.9787 103.048 62.1808 106.603 61.7147 108.649C60.2295 115.198 64.0847 129.979 64.6772 135.738C65.2697 141.497 63.9899 159.138 63.9899 159.138C68.406 164.257 92.3351 167.654 103.988 159.138C103.988 159.138 104.493 118.634 103.348 112.82C101.61 104.019 99.0264 99.8403 89.9177 99.311L80.888 98.5763Z" fill="#F5F5F5"/>
<path d="M85.9994 76.8513L83.4003 78.2812C83.2204 77.9233 83.1832 77.5105 83.2962 77.1263C83.4091 76.742 83.6637 76.415 84.0085 76.2114C84.1803 76.1181 84.3692 76.0606 84.5638 76.0424C84.7585 76.0242 84.9547 76.0457 85.1408 76.1055C85.3269 76.1653 85.4989 76.2622 85.6465 76.3904C85.7941 76.5186 85.9141 76.6754 85.9994 76.8513Z" fill="#263238"/>
<path d="M97.3042 77.8941L94.9342 76.0692C95.0455 75.9089 95.1883 75.773 95.3539 75.6697C95.5195 75.5663 95.7044 75.4978 95.8973 75.4683C96.0902 75.4387 96.2871 75.4487 96.476 75.4977C96.6649 75.5467 96.8419 75.6336 96.9961 75.7532C97.3101 76.004 97.5167 76.365 97.5739 76.7627C97.6312 77.1604 97.5347 77.565 97.3042 77.8941Z" fill="#263238"/>
<path d="M74.0546 68.5798C74.0546 68.5798 71.258 68.9669 70.231 71.0999C69.3462 72.9327 69.6622 77.3567 70.8551 82.1599C71.5292 85.2764 72.5357 88.3115 73.8571 91.2133C74.3239 92.0355 75.0868 92.6486 75.9901 92.9276L75.84 87.1922L75.6346 83.2422C75.6346 83.2422 78.1863 79.7504 78.4707 76.9222C78.8341 73.2408 78.0599 71.7319 78.0599 71.7319L74.0546 68.5798Z" fill="#263238"/>
<path d="M78.5655 74.1099C78.5759 76.9407 79.7088 79.6516 81.7157 81.6481C83.7225 83.6445 86.4393 84.7634 89.27 84.7592C95.1634 84.7592 99.5874 79.9006 99.54 73.9993C99.4926 68.098 95.0686 63.3738 89.1673 63.3975C86.3428 63.4184 83.6416 64.5573 81.6547 66.5649C79.6678 68.5725 78.557 71.2854 78.5655 74.1099Z" fill="#263238"/>
<path d="M75.84 82.5708C74.8762 83.4082 74.0941 81.2515 73.2883 80.4062C72.4825 79.5609 69.836 78.4233 68.5483 81.1962C67.2606 83.9691 69.7017 87.9902 71.7083 88.7644C72.314 88.9937 72.9793 89.0124 73.597 88.8175C74.2147 88.6226 74.7488 88.2254 75.1132 87.69V100.33C78.1547 105.813 83.5188 105.639 86.3865 105.331C89.2542 105.023 89.8783 102.044 87.7848 99.6427V95.6927C89.3781 95.9427 90.9939 96.0195 92.6038 95.9218C95.2266 95.511 96.5538 93.5518 97.3438 90.6841C98.6078 86.11 99.1213 78.4312 97.3438 69.5595C94.405 67.2843 84.214 67.6635 78.0441 71.574C78.526 79.5293 76.7564 81.7413 75.84 82.5708Z" fill="#FFA8A7"/>
<path d="M97.8651 65.1671C98.262 63.5203 98.4399 61.8283 98.3944 60.1349C98.3944 59.4713 98.2285 58.6655 97.6044 58.4127C96.9803 58.1599 96.3641 58.6181 95.8269 58.9815C93.5517 60.5141 90.7235 60.9485 87.9822 61.0986C83.2422 61.3593 75.9979 61.0512 73.5884 66.2415C72.9169 67.6793 72.7984 69.1961 74.1256 70.1915C75.3089 70.9842 76.6619 71.4875 78.0756 71.6609C80.4456 72.0796 82.8156 72.601 85.2488 72.9249C87.682 73.2488 90.5734 73.5648 92.9829 72.8222C95.0132 72.1981 97.0751 71.6609 98.584 70.0493C99.8918 68.6441 100.63 66.8023 100.654 64.8827C100.654 64.6141 100.598 64.2744 100.33 64.2033C100.196 64.1865 100.06 64.2142 99.9428 64.2824L97.8651 65.1671Z" fill="#263238"/>
<path d="M87.7611 95.7797C87.7611 95.7797 81.8993 94.6184 79.8611 93.5361C78.6538 92.9106 77.6628 91.9361 77.0171 90.7395C77.3173 91.9349 77.8546 93.0579 78.5971 94.0417C80.106 95.9535 87.7453 97.336 87.7453 97.336L87.7611 95.7797Z" fill="#F28F8F"/>
<path d="M86.5839 80.7301C86.5762 80.9892 86.4922 81.2403 86.3426 81.452C86.193 81.6637 85.9844 81.8267 85.7427 81.9205C85.5011 82.0143 85.2371 82.0349 84.9839 81.9796C84.7306 81.9243 84.4993 81.7956 84.3187 81.6097C84.1381 81.4237 84.0163 81.1886 83.9685 80.9338C83.9207 80.6791 83.9491 80.4158 84.05 80.1771C84.1509 79.9383 84.3199 79.7345 84.5359 79.5912C84.752 79.4479 85.0054 79.3715 85.2646 79.3713C85.6194 79.3776 85.9574 79.524 86.2046 79.7786C86.4518 80.0332 86.5882 80.3753 86.5839 80.7301Z" fill="#263238"/>
<path d="M88.48 89.8547C88.4863 90.1887 88.3603 90.5115 88.1294 90.7528C87.8985 90.9941 87.5814 91.1342 87.2476 91.1425C86.9116 91.1362 86.5918 90.9973 86.3579 90.756C86.124 90.5148 85.9951 90.1907 85.9994 89.8547C85.9962 89.6898 86.0256 89.5258 86.0859 89.3722C86.1461 89.2186 86.236 89.0784 86.3505 88.9595C86.4649 88.8407 86.6016 88.7456 86.7529 88.6796C86.9041 88.6136 87.0668 88.578 87.2318 88.575C87.5663 88.5812 87.885 88.719 88.1186 88.9586C88.3523 89.1981 88.4821 89.5201 88.48 89.8547Z" fill="#B16668"/>
<path d="M84.925 76.5826L82.2074 78.2969C81.9832 77.9239 81.9122 77.4785 82.0094 77.0542C82.1067 76.63 82.3645 76.2599 82.7288 76.0217C82.909 75.9113 83.1095 75.8381 83.3185 75.8065C83.5275 75.775 83.7407 75.7857 83.9454 75.838C84.1502 75.8903 84.3424 75.9831 84.5107 76.111C84.6789 76.2389 84.8198 76.3993 84.925 76.5826Z" fill="#263238"/>
<path d="M94.5155 74.908L97.3753 76.1878C97.2982 76.3755 97.1837 76.5456 97.039 76.6879C96.8942 76.8301 96.7221 76.9415 96.5331 77.0154C96.344 77.0892 96.142 77.124 95.9391 77.1175C95.7363 77.111 95.5368 77.0635 95.3529 76.9778C94.9795 76.8002 94.6863 76.4891 94.5313 76.1059C94.3762 75.7226 94.3706 75.2952 94.5155 74.908Z" fill="#263238"/>
<path d="M96.0245 80.3352C96.0152 80.5842 95.933 80.8249 95.788 81.0276C95.6431 81.2303 95.4418 81.3859 95.2092 81.4752C94.9766 81.5645 94.7229 81.5835 94.4795 81.5298C94.2362 81.4761 94.014 81.3522 93.8405 81.1733C93.667 80.9945 93.5499 80.7686 93.5037 80.5238C93.4574 80.279 93.4841 80.0259 93.5804 79.7961C93.6767 79.5663 93.8384 79.3699 94.0454 79.2312C94.2524 79.0925 94.4955 79.0176 94.7447 79.0159C95.089 79.0221 95.4169 79.1644 95.6567 79.4116C95.8965 79.6588 96.0287 79.9908 96.0245 80.3352Z" fill="#263238"/>
<path d="M89.5623 78.1074L90.0363 86.8922L94.1996 85.7862L89.5623 78.1074Z" fill="#F28F8F"/>
<path d="M15.7999 114.289C17.1666 115.024 22.7361 118.943 25.7618 119.282C27.0416 119.424 27.3892 119.219 27.3418 118.887C27.2786 118.429 26.4649 117.742 26.2674 117.37C25.9277 116.723 23.8974 114.037 24.6874 112.63C25.4774 111.224 26.1647 112.567 28.0449 114.408C29.9251 116.249 31.8527 116.888 33.5038 119.029C35.1549 121.17 35.7079 124.559 38.4413 127.016L49.3275 134.45C49.3275 134.45 54.3993 110.916 56.6271 108.143C58.9971 105.228 69.1644 111.58 67.0314 120.846C64.8984 130.113 60.0399 146.197 56.6587 149.35C54.4783 151.396 49.8884 149.468 44.1609 144.373C39.6342 140.344 33.4327 134.3 30.8099 132.159C28.1871 130.018 22.7361 128.865 20.2318 127.419C17.5379 125.839 16.9454 124.915 15.9105 122.821C14.9388 120.854 15.3733 117.702 14.7966 116.501C14.2199 115.301 14.4095 113.555 15.7999 114.289Z" fill="#FFA8A7"/>
<path d="M65.0327 101.981C68.5245 104.162 68.6983 107.337 68.8721 110.971C68.9216 115.225 68.2484 119.457 66.8813 123.485C65.404 128.059 63.0577 136.409 63.0577 136.409C63.0577 136.409 53.9411 136.623 49.2485 132.57C49.2485 132.57 51.3894 123.564 52.8983 116.77C54.4072 109.976 56.24 102.748 65.0327 101.981Z" fill="#E0E0E0"/>
<path d="M49.2881 134.466C51.7766 135.849 53.2381 138.819 53.6884 139.996C53.5806 138.625 53.1492 137.3 52.4296 136.128C51.71 134.957 50.7227 133.973 49.5488 133.257L49.2881 134.466Z" fill="#F28F8F"/>
<path d="M143.867 305.209L204.839 340.411V353.383L143.867 318.181V305.209Z" fill="#EF4949"/>
<path opacity="0.35" d="M143.867 305.209L204.839 340.411V353.383L143.867 318.181V305.209Z" fill="black"/>
<path d="M265.811 305.209L204.839 340.411V353.383L265.811 318.181V305.209Z" fill="#EF4949"/>
<path opacity="0.2" d="M265.811 305.209L204.839 340.411V353.383L265.811 318.181V305.209Z" fill="black"/>
<path d="M265.811 305.209L204.839 270.014L143.867 305.209L204.839 340.411L265.811 305.209Z" fill="#EF4949"/>
<path opacity="0.15" d="M265.811 305.209L204.839 270.014L143.867 305.209L204.839 340.411L265.811 305.209Z" fill="black"/>
<path opacity="0.1" d="M204.839 340.411V336.706L150.282 305.209H143.867L204.839 340.411Z" fill="black"/>
<path opacity="0.1" d="M204.839 270.014V273.719L259.396 305.209H265.811L204.839 270.014Z" fill="black"/>
<path d="M265.811 305.209H259.396L204.839 336.706V340.411L265.811 305.209Z" fill="#EF4949"/>
<path d="M204.839 270.014V273.719L150.282 305.209H143.867L204.839 270.014Z" fill="#EF4949"/>
<path d="M205.06 289.93L231.257 305.051C233.216 306.188 233.216 308.021 231.257 309.151L211.72 320.464C210.619 321.026 209.401 321.319 208.165 321.319C206.929 321.319 205.711 321.026 204.61 320.464L178.413 305.343C176.454 304.205 176.454 302.373 178.413 301.243L197.958 289.93C199.058 289.369 200.275 289.076 201.509 289.076C202.744 289.076 203.961 289.369 205.06 289.93Z" fill="#37474F"/>
<path d="M211.72 320.464L230.609 309.554L205.06 294.804C203.958 294.249 202.74 293.959 201.505 293.959C200.27 293.959 199.053 294.249 197.95 294.804L179.061 305.73L204.61 320.464C205.711 321.026 206.929 321.319 208.165 321.319C209.401 321.319 210.619 321.026 211.72 320.464Z" fill="#455A64"/>
<path d="M189.237 305.232L200.699 298.62C200.913 298.513 201.148 298.457 201.387 298.457C201.625 298.457 201.861 298.513 202.074 298.62L203.48 299.41C203.859 299.623 203.859 299.979 203.48 300.2L192.017 306.812C191.805 306.919 191.571 306.975 191.334 306.975C191.097 306.975 190.863 306.919 190.651 306.812L189.244 306.022C189.162 305.994 189.091 305.942 189.04 305.871C188.989 305.801 188.961 305.717 188.961 305.63C188.96 305.543 188.986 305.459 189.035 305.387C189.085 305.316 189.155 305.262 189.237 305.232Z" fill="#263238"/>
<path d="M206.356 315.131L217.819 308.519C218.031 308.412 218.265 308.356 218.502 308.356C218.739 308.356 218.973 308.412 219.185 308.519L220.599 309.309C220.979 309.522 220.979 309.878 220.599 310.099L209.137 316.711C208.925 316.818 208.691 316.874 208.453 316.874C208.216 316.874 207.982 316.818 207.77 316.711L206.364 315.921C206.282 315.893 206.21 315.84 206.159 315.77C206.109 315.7 206.081 315.616 206.08 315.529C206.079 315.442 206.105 315.357 206.154 315.286C206.204 315.215 206.274 315.161 206.356 315.131Z" fill="#263238"/>
<path d="M178.35 330.828C178.286 329.629 177.939 328.463 177.337 327.423C176.736 326.384 175.897 325.502 174.89 324.848C174.542 324.594 174.131 324.437 173.702 324.396C173.273 324.354 172.84 324.428 172.449 324.611L170.956 325.48C170.604 325.728 170.325 326.065 170.148 326.457C169.97 326.848 169.9 327.28 169.945 327.708C170.01 328.907 170.357 330.074 170.957 331.114C171.556 332.154 172.392 333.039 173.397 333.696C173.747 333.95 174.159 334.107 174.589 334.148C175.02 334.19 175.454 334.116 175.846 333.933L177.331 333.04C177.68 332.794 177.959 332.459 178.137 332.071C178.316 331.683 178.39 331.254 178.35 330.828Z" fill="#EF4949"/>
<path opacity="0.1" d="M173.397 325.741C174.404 326.394 175.243 327.277 175.844 328.316C176.446 329.355 176.793 330.522 176.857 331.721C176.857 333.925 175.277 334.818 173.397 333.72C172.392 333.062 171.556 332.178 170.957 331.138C170.357 330.097 170.01 328.931 169.945 327.732C169.945 325.535 171.493 324.643 173.397 325.741Z" fill="black"/>
<path d="M133.32 350.973C129.465 351.041 125.657 350.119 122.26 348.295L81.8123 324.943C78.5654 323.063 76.7721 320.471 76.7721 317.643C76.7721 314.815 78.5654 312.232 81.8123 310.352L128.675 283.294C133.81 280.332 138.155 272.819 138.155 266.886V118.579C138.155 118.16 138.322 117.758 138.618 117.462C138.914 117.165 139.316 116.999 139.735 116.999C140.154 116.999 140.556 117.165 140.852 117.462C141.149 117.758 141.315 118.16 141.315 118.579V266.886C141.315 274.043 136.465 282.457 130.255 286.035L83.3923 313.093C81.1645 314.381 79.9321 315.992 79.9321 317.643C79.9321 319.294 81.1645 320.914 83.3923 322.202L123.84 345.554C129.062 348.572 137.563 348.572 142.8 345.554L172.623 328.348C172.803 328.233 173.004 328.157 173.214 328.122C173.424 328.087 173.639 328.096 173.846 328.146C174.053 328.197 174.248 328.289 174.418 328.417C174.589 328.545 174.732 328.706 174.838 328.89C174.945 329.075 175.013 329.279 175.039 329.491C175.065 329.702 175.047 329.917 174.988 330.121C174.928 330.326 174.828 330.517 174.693 330.681C174.559 330.846 174.392 330.982 174.203 331.081L144.38 348.295C140.984 350.12 137.175 351.042 133.32 350.973Z" fill="#37474F"/>
<path d="M62.3467 61.8648C62.3234 61.7577 62.3225 61.6469 62.3443 61.5395C62.366 61.432 62.4099 61.3303 62.4731 61.2407C62.5327 61.1471 62.6113 61.067 62.7039 61.0057C62.7964 60.9445 62.9009 60.9034 63.0103 60.8852L66.8497 60.1426C66.9581 60.1181 67.0703 60.1167 67.1792 60.1384C67.2881 60.1602 67.3912 60.2047 67.4817 60.269C67.6653 60.3954 67.7927 60.5879 67.8372 60.8062L68.4297 63.8872C68.452 63.9949 68.4516 64.106 68.4284 64.2135C68.4053 64.3209 68.36 64.4224 68.2954 64.5113C68.2376 64.6056 68.1606 64.6866 68.0694 64.7492C67.9782 64.8118 67.8749 64.8546 67.7661 64.8747L63.9188 65.6094C63.8117 65.6328 63.7009 65.6337 63.5935 65.6119C63.4861 65.5901 63.3843 65.5463 63.2947 65.483C63.2011 65.4235 63.121 65.3449 63.0598 65.2523C62.9985 65.1598 62.9574 65.0553 62.9392 64.9458L62.3467 61.8648ZM59.1393 45.2274C59.1175 45.119 59.1175 45.0073 59.1391 44.8988C59.1607 44.7903 59.2036 44.6872 59.2653 44.5953C59.327 44.5035 59.4063 44.4248 59.4985 44.3638C59.5908 44.3028 59.6943 44.2607 59.8029 44.2399L63.6502 43.4973C63.7579 43.4751 63.869 43.4755 63.9765 43.4986C64.0839 43.5218 64.1854 43.5671 64.2743 43.6316C64.3671 43.6903 64.4467 43.7677 64.5079 43.8588C64.5691 43.95 64.6106 44.0529 64.6298 44.1609L67.1499 57.3302C67.1722 57.4379 67.1718 57.549 67.1486 57.6565C67.1255 57.7639 67.0802 57.8654 67.0156 57.9543C66.957 58.0471 66.8796 58.1266 66.7884 58.1879C66.6973 58.2491 66.5944 58.2906 66.4863 58.3098L62.639 59.0524C62.5314 59.0747 62.4203 59.0743 62.3128 59.0511C62.2054 59.028 62.1039 58.9827 62.0149 58.9181C61.9222 58.8595 61.8426 58.7821 61.7814 58.6909C61.7202 58.5998 61.6787 58.4969 61.6594 58.3888L59.1393 45.2274Z" fill="#EF4949"/>
<path d="M55.9319 74.7577C55.858 74.6759 55.8011 74.5802 55.7642 74.4763C55.7274 74.3724 55.7115 74.2622 55.7174 74.1521C55.7232 74.042 55.7508 73.9341 55.7985 73.8347C55.8461 73.7353 55.9129 73.6463 55.9951 73.5727L58.9102 70.9578C58.9916 70.8829 59.0878 70.8259 59.1925 70.7905C59.2973 70.7552 59.4084 70.7422 59.5185 70.7524C59.628 70.7548 59.7358 70.7799 59.8351 70.8261C59.9344 70.8723 60.0229 70.9387 60.0952 71.021L62.1887 73.391C62.2626 73.4729 62.3195 73.5685 62.3564 73.6724C62.3932 73.7764 62.4091 73.8866 62.4032 73.9967C62.3974 74.1068 62.3698 74.2146 62.3221 74.314C62.2745 74.4135 62.2077 74.5025 62.1255 74.576L59.2499 77.1593C59.1685 77.2342 59.0723 77.2912 58.9676 77.3266C58.8628 77.362 58.7517 77.375 58.6416 77.3647C58.5321 77.3624 58.4243 77.3373 58.325 77.291C58.2257 77.2448 58.1372 77.1784 58.0649 77.0961L55.9319 74.7577ZM44.627 62.1177C44.4783 61.9511 44.4017 61.7324 44.4137 61.5094C44.417 61.3993 44.4434 61.2912 44.491 61.1918C44.5386 61.0925 44.6065 61.0043 44.6902 60.9327L47.6053 58.3178C47.686 58.2415 47.7819 58.1831 47.8867 58.1463C47.9915 58.1096 48.1029 58.0953 48.2136 58.1045C48.3237 58.1079 48.4319 58.1342 48.5312 58.1818C48.6305 58.2294 48.7188 58.2973 48.7903 58.381L57.7331 68.3824C57.808 68.4638 57.865 68.56 57.9004 68.6648C57.9358 68.7696 57.9488 68.8806 57.9385 68.9907C57.9362 69.1002 57.9111 69.208 57.8648 69.3073C57.8186 69.4066 57.7522 69.4952 57.6699 69.5674L54.7469 72.1823C54.6665 72.2562 54.5716 72.3126 54.4682 72.348C54.3649 72.3833 54.2553 72.3968 54.1465 72.3877C54.0357 72.3865 53.9263 72.3619 53.8256 72.3156C53.7249 72.2694 53.6351 72.2024 53.5619 72.1191L44.627 62.1177Z" fill="#EF4949"/>
<g opacity="0.6">
<path d="M55.9319 74.7577C55.858 74.6759 55.8011 74.5802 55.7642 74.4763C55.7274 74.3724 55.7115 74.2622 55.7174 74.1521C55.7232 74.042 55.7508 73.9341 55.7985 73.8347C55.8461 73.7353 55.9129 73.6463 55.9951 73.5727L58.9102 70.9578C58.9916 70.8829 59.0878 70.8259 59.1925 70.7905C59.2973 70.7552 59.4084 70.7422 59.5185 70.7524C59.628 70.7548 59.7358 70.7799 59.8351 70.8261C59.9344 70.8723 60.0229 70.9387 60.0952 71.021L62.1887 73.391C62.2626 73.4729 62.3195 73.5685 62.3564 73.6724C62.3932 73.7764 62.4091 73.8866 62.4032 73.9967C62.3974 74.1068 62.3698 74.2146 62.3221 74.314C62.2745 74.4135 62.2077 74.5025 62.1255 74.576L59.2499 77.1593C59.1685 77.2342 59.0723 77.2912 58.9676 77.3266C58.8628 77.362 58.7517 77.375 58.6416 77.3647C58.5321 77.3624 58.4243 77.3373 58.325 77.291C58.2257 77.2448 58.1372 77.1784 58.0649 77.0961L55.9319 74.7577ZM44.627 62.1177C44.4783 61.9511 44.4017 61.7324 44.4137 61.5094C44.417 61.3993 44.4434 61.2912 44.491 61.1918C44.5386 61.0925 44.6065 61.0043 44.6902 60.9327L47.6053 58.3178C47.686 58.2415 47.7819 58.1831 47.8867 58.1463C47.9915 58.1096 48.1029 58.0953 48.2136 58.1045C48.3237 58.1079 48.4319 58.1342 48.5312 58.1818C48.6305 58.2294 48.7188 58.2973 48.7903 58.381L57.7331 68.3824C57.808 68.4638 57.865 68.56 57.9004 68.6648C57.9358 68.7696 57.9488 68.8806 57.9385 68.9907C57.9362 69.1002 57.9111 69.208 57.8648 69.3073C57.8186 69.4066 57.7522 69.4952 57.6699 69.5674L54.7469 72.1823C54.6665 72.2562 54.5716 72.3126 54.4682 72.348C54.3649 72.3833 54.2553 72.3968 54.1465 72.3877C54.0357 72.3865 53.9263 72.3619 53.8256 72.3156C53.7249 72.2694 53.6351 72.2024 53.5619 72.1191L44.627 62.1177Z" fill="white"/>
</g>
<path d="M131.14 37.92C132.493 37.8352 133.831 38.242 134.908 39.0655C135.369 39.4853 135.73 40.0039 135.962 40.5826C136.195 41.1612 136.294 41.785 136.251 42.4072C136.292 43.0326 136.192 43.6592 135.96 44.2414C135.727 44.8235 135.368 45.3466 134.908 45.7726C133.839 46.6134 132.499 47.0348 131.14 46.9576H127.98V51.421C127.982 51.493 127.969 51.5645 127.942 51.6311C127.914 51.6978 127.874 51.758 127.822 51.8082C127.773 51.8584 127.714 51.8983 127.648 51.9254C127.583 51.9526 127.513 51.9664 127.443 51.9662H125.823C125.751 51.9672 125.68 51.9538 125.614 51.9268C125.547 51.8998 125.486 51.8597 125.436 51.8089C125.385 51.758 125.345 51.6975 125.318 51.6309C125.291 51.5643 125.277 51.4929 125.278 51.421V38.4809C125.278 38.4096 125.292 38.3391 125.32 38.2734C125.347 38.2077 125.388 38.1482 125.438 38.0982C125.489 38.0482 125.549 38.0088 125.615 37.9823C125.681 37.9557 125.752 37.9426 125.823 37.9437L131.14 37.92ZM127.98 44.4533H131.085C131.724 44.4864 132.359 44.3297 132.91 44.003C133.151 43.8217 133.34 43.5805 133.46 43.3034C133.579 43.0262 133.623 42.7227 133.589 42.423C133.628 42.1229 133.585 41.818 133.465 41.5401C133.346 41.2622 133.154 41.0214 132.91 40.843C132.354 40.532 131.721 40.3842 131.085 40.4164H127.98V44.4533Z" fill="black"/>
<path d="M138.06 44.1138C138.131 43.7944 138.257 43.4896 138.432 43.2132C138.639 42.8679 138.906 42.5629 139.222 42.3126C139.614 42.0096 140.055 41.7746 140.525 41.6174C141.104 41.4272 141.71 41.3364 142.319 41.3488C142.943 41.3389 143.564 41.4296 144.159 41.6174C144.679 41.7829 145.16 42.0516 145.573 42.4074C145.974 42.7678 146.285 43.2168 146.482 43.7188C146.705 44.2981 146.815 44.9149 146.806 45.5358V51.4213C146.806 51.4937 146.792 51.5655 146.763 51.632C146.734 51.6986 146.693 51.7586 146.64 51.8084C146.591 51.859 146.532 51.8991 146.466 51.9263C146.401 51.9535 146.331 51.9671 146.261 51.9664H144.744C144.672 51.9674 144.601 51.9541 144.534 51.9271C144.467 51.9 144.407 51.8599 144.356 51.8091C144.305 51.7583 144.265 51.6977 144.238 51.6311C144.211 51.5645 144.198 51.4932 144.199 51.4213V50.7656C143.882 51.1877 143.467 51.5265 142.99 51.7531C142.361 52.0498 141.67 52.1907 140.976 52.1639C140.44 52.1752 139.906 52.0977 139.396 51.9348C138.973 51.8016 138.582 51.5809 138.25 51.287C137.946 51.0084 137.704 50.6693 137.539 50.2916C137.372 49.897 137.288 49.4719 137.294 49.0434C137.274 48.6308 137.353 48.2193 137.523 47.843C137.693 47.4667 137.951 47.1362 138.274 46.8788C139.066 46.2998 139.994 45.9352 140.968 45.8202L144.23 45.2593C144.251 45.0356 144.212 44.8105 144.117 44.6067C144.023 44.4028 143.877 44.2274 143.693 44.098C143.286 43.8627 142.821 43.7451 142.35 43.7583C142.079 43.7445 141.809 43.7932 141.56 43.9005C141.363 43.9995 141.182 44.1273 141.023 44.2797C140.925 44.3705 140.813 44.4452 140.691 44.5009C140.585 44.5423 140.473 44.5638 140.359 44.5641H138.495C138.369 44.5686 138.247 44.5232 138.155 44.4377C138.11 44.3988 138.076 44.3474 138.06 44.2899C138.043 44.2323 138.043 44.1711 138.06 44.1138ZM141.41 49.7702C141.821 49.7765 142.23 49.7124 142.619 49.5806C142.946 49.4675 143.249 49.2933 143.511 49.0671C143.74 48.8686 143.923 48.6234 144.049 48.3482C144.165 48.1009 144.227 47.8315 144.23 47.5582V47.3212L141.505 47.7952C141.087 47.8451 140.686 47.9853 140.328 48.206C140.211 48.2886 140.116 48.399 140.053 48.5273C139.99 48.6556 139.959 48.7977 139.964 48.9407C139.963 49.077 140.004 49.2103 140.082 49.3222C140.16 49.434 140.271 49.5188 140.399 49.5648C140.718 49.7034 141.062 49.7733 141.41 49.7702Z" fill="black"/>
<path d="M154.05 53.965C154.342 53.9639 154.632 53.9214 154.911 53.8386C155.199 53.7539 155.467 53.6144 155.701 53.4278C155.943 53.232 156.145 52.9904 156.294 52.7168C156.451 52.4032 156.529 52.0562 156.523 51.7056V50.963C156.394 51.1034 156.254 51.2328 156.104 51.3501C155.909 51.5059 155.697 51.6384 155.472 51.7451C155.196 51.8749 154.908 51.9755 154.611 52.0453C154.246 52.128 153.872 52.1677 153.497 52.1638C152.872 52.174 152.254 52.0416 151.688 51.7767C151.16 51.528 150.69 51.173 150.305 50.7339C149.917 50.292 149.612 49.7835 149.405 49.2329C149.183 48.6653 149.057 48.0645 149.034 47.4554C149.034 47.2579 149.034 47.0209 149.034 46.7602C149.034 46.4995 149.034 46.2546 149.034 46.0571C149.057 45.448 149.183 44.8472 149.405 44.2796C149.614 43.7299 149.919 43.2217 150.305 42.7786C150.687 42.3403 151.155 41.9854 151.68 41.7358C152.246 41.4709 152.865 41.3385 153.489 41.3487C153.864 41.3448 154.238 41.3845 154.603 41.4672C154.9 41.537 155.188 41.6376 155.464 41.7674C155.689 41.8741 155.902 42.0066 156.096 42.1624C156.246 42.2797 156.386 42.4091 156.515 42.5495V42.0913C156.517 41.9487 156.574 41.8124 156.674 41.7108C156.774 41.6092 156.91 41.5503 157.052 41.5462H158.577C158.719 41.552 158.855 41.6113 158.956 41.7123C159.057 41.8133 159.116 41.9486 159.122 42.0913V51.4844C159.168 52.1556 159.071 52.8289 158.836 53.4595C158.602 54.0902 158.236 54.6638 157.763 55.1421C156.727 56.0092 155.399 56.4497 154.05 56.3745C153.408 56.3792 152.768 56.286 152.154 56.098C151.615 55.9422 151.106 55.6994 150.645 55.3791C150.241 55.1078 149.893 54.762 149.618 54.36C149.376 54.0121 149.231 53.6056 149.199 53.1829C149.193 53.1123 149.203 53.0412 149.229 52.9753C149.255 52.9094 149.296 52.8506 149.35 52.8037C149.453 52.7031 149.592 52.6465 149.737 52.6457H151.103C151.192 52.6438 151.281 52.6596 151.363 52.6922C151.446 52.7247 151.522 52.7734 151.585 52.8353C151.72 52.9617 151.83 53.0802 151.925 53.1829C152.113 53.4248 152.357 53.6173 152.636 53.7438C153.086 53.9193 153.568 53.9948 154.05 53.965ZM151.68 46.1993C151.641 46.5722 151.641 46.9482 151.68 47.3211C151.685 48.0251 151.97 48.6983 152.47 49.1934C152.936 49.578 153.525 49.7802 154.129 49.7622C154.733 49.7798 155.322 49.5713 155.78 49.1776C156.016 48.9676 156.207 48.7127 156.342 48.4278C156.478 48.1429 156.556 47.8338 156.57 47.5186C156.599 47.2563 156.612 46.9925 156.61 46.7286C156.612 46.4647 156.599 46.2009 156.57 45.9386C156.537 45.3225 156.266 44.7435 155.813 44.3245C155.36 43.9056 154.762 43.6797 154.145 43.695C153.541 43.677 152.952 43.8792 152.486 44.2638C152.228 44.5151 152.023 44.8162 151.884 45.1489C151.746 45.4816 151.676 45.8389 151.68 46.1993Z" fill="black"/>
<path d="M161.373 46.7602C161.37 46.0399 161.487 45.3242 161.721 44.643C161.941 44.006 162.288 43.4202 162.74 42.9208C163.178 42.4274 163.717 42.034 164.32 41.7674C164.963 41.4938 165.655 41.3528 166.354 41.3528C167.053 41.3528 167.745 41.4938 168.389 41.7674C168.984 42.0227 169.522 42.3963 169.969 42.8655C170.401 43.3393 170.739 43.8917 170.964 44.4929C171.195 45.1173 171.313 45.7782 171.312 46.4442V47.3448C171.314 47.4156 171.301 47.4862 171.274 47.5517C171.247 47.6172 171.206 47.676 171.154 47.724C171.106 47.7768 171.047 47.8189 170.982 47.8475C170.916 47.8761 170.846 47.8905 170.774 47.8899H164.083C164.08 48.1648 164.145 48.4362 164.273 48.6799C164.397 48.9133 164.573 49.1157 164.786 49.2724C165.009 49.4384 165.261 49.5617 165.529 49.6358C165.809 49.7154 166.099 49.7553 166.39 49.7543C166.74 49.7637 167.089 49.7184 167.425 49.62C167.661 49.5473 167.885 49.438 168.088 49.2961C168.201 49.2086 168.322 49.1344 168.452 49.0749C168.573 49.0293 168.702 49.0079 168.831 49.0117H170.411C170.556 49.0125 170.694 49.0691 170.798 49.1697C170.853 49.2165 170.896 49.2765 170.922 49.3441C170.949 49.4117 170.957 49.4848 170.948 49.5568C170.902 49.8168 170.796 50.0627 170.64 50.2757C170.402 50.6102 170.108 50.9015 169.771 51.1368C169.328 51.4433 168.844 51.6854 168.333 51.8557C167.699 52.0655 167.034 52.1669 166.366 52.1559C165.667 52.1671 164.974 52.0353 164.328 51.7688C163.723 51.5223 163.183 51.1413 162.748 50.6549C162.296 50.1718 161.946 49.602 161.721 48.9801C161.479 48.2653 161.362 47.5145 161.373 46.7602ZM166.287 43.7503C165.947 43.7404 165.608 43.7995 165.292 43.9241C165.035 44.0232 164.801 44.1737 164.604 44.3665C164.421 44.5358 164.273 44.7399 164.17 44.9669C164.073 45.1659 164.009 45.3793 163.98 45.5989H168.507C168.478 45.3838 168.428 45.1721 168.357 44.9669C168.282 44.742 168.158 44.5368 167.994 44.3665C167.81 44.1724 167.586 44.0213 167.338 43.9241C167.003 43.7964 166.645 43.7373 166.287 43.7503Z" fill="black"/>
<path d="M187.736 51.4211C187.737 51.4923 187.724 51.563 187.697 51.6291C187.671 51.6952 187.631 51.7553 187.581 51.8061C187.531 51.8568 187.472 51.8971 187.406 51.9245C187.34 51.952 187.27 51.9662 187.199 51.9662H185.65C185.579 51.9669 185.509 51.9533 185.444 51.9261C185.379 51.8989 185.32 51.8588 185.271 51.8082C185.218 51.7584 185.176 51.6984 185.148 51.6318C185.119 51.5653 185.105 51.4935 185.105 51.4211V46.3335C185.142 45.6484 184.944 44.9713 184.544 44.4138C184.335 44.1655 184.07 43.9707 183.77 43.8456C183.471 43.7206 183.145 43.6689 182.822 43.6949C182.508 43.6796 182.194 43.7364 181.905 43.861C181.616 43.9856 181.36 44.1747 181.155 44.4138C180.723 44.9577 180.504 45.64 180.539 46.3335V51.4211C180.541 51.493 180.527 51.5645 180.5 51.6312C180.473 51.6978 180.432 51.7581 180.381 51.8082C180.331 51.8585 180.272 51.8983 180.207 51.9255C180.142 51.9526 180.072 51.9664 180.002 51.9662H178.54C178.47 51.9664 178.4 51.9526 178.335 51.9255C178.269 51.8983 178.21 51.8585 178.161 51.8082C178.109 51.7581 178.069 51.6978 178.041 51.6312C178.014 51.5645 178.001 51.493 178.003 51.4211V42.0912C178 42.0203 178.013 41.9497 178.04 41.8842C178.068 41.8187 178.109 41.76 178.161 41.712C178.209 41.6591 178.267 41.617 178.333 41.5884C178.398 41.5599 178.469 41.5454 178.54 41.5461H180.065C180.136 41.5454 180.207 41.5599 180.272 41.5884C180.338 41.617 180.396 41.6591 180.444 41.712C180.496 41.76 180.537 41.8187 180.565 41.8842C180.592 41.9497 180.605 42.0203 180.602 42.0912V42.5494C180.96 42.1968 181.374 41.9059 181.827 41.6883C182.346 41.449 182.914 41.3328 183.486 41.3486C184.187 41.3255 184.885 41.4548 185.532 41.7278C186.047 41.9565 186.499 42.3061 186.851 42.7469C187.193 43.1872 187.436 43.6966 187.562 44.24C187.706 44.8268 187.778 45.429 187.775 46.0333L187.736 51.4211Z" fill="black"/>
<path d="M194.988 41.3486C195.667 41.3376 196.342 41.4528 196.979 41.6883C197.548 41.9129 198.071 42.2425 198.519 42.66C198.952 43.0592 199.306 43.5362 199.562 44.0662C199.825 44.6048 199.978 45.1902 200.012 45.7884C200.022 45.941 200.022 46.094 200.012 46.2466V47.3605C200.022 47.5105 200.022 47.6609 200.012 47.8108C199.963 48.4075 199.808 48.9906 199.554 49.533C199.305 50.0607 198.953 50.5334 198.519 50.9234C198.068 51.3273 197.546 51.6434 196.979 51.8556C195.7 52.3011 194.308 52.3011 193.029 51.8556C192.447 51.6489 191.911 51.3325 191.449 50.9234C191.017 50.5331 190.668 50.0604 190.422 49.533C190.166 48.9911 190.008 48.408 189.956 47.8108C189.956 47.6897 189.956 47.5396 189.956 47.3605C189.956 47.1788 189.956 46.9971 189.956 46.8075C189.956 46.6179 189.956 46.4362 189.956 46.2466C189.956 46.057 189.956 45.9069 189.956 45.7884C189.998 45.1914 190.15 44.6074 190.406 44.0662C190.662 43.5362 191.016 43.0592 191.449 42.66C191.91 42.2486 192.447 41.9295 193.029 41.7199C193.654 41.4774 194.318 41.3516 194.988 41.3486ZM197.413 45.8516C197.386 45.4931 197.286 45.1438 197.121 44.8246C196.981 44.5697 196.787 44.3486 196.552 44.1768C196.331 44.014 196.078 43.9008 195.809 43.845C195.55 43.7843 195.285 43.7525 195.019 43.7502C194.753 43.752 194.488 43.7838 194.229 43.845C193.961 43.9008 193.708 44.014 193.487 44.1768C193.248 44.3442 193.053 44.5664 192.918 44.8246C192.749 45.1423 192.649 45.4924 192.626 45.8516C192.626 45.9622 192.626 46.0965 192.626 46.2545C192.626 46.4125 192.626 46.5863 192.626 46.7601C192.626 46.9339 192.626 47.0998 192.626 47.2657C192.619 47.3973 192.619 47.5291 192.626 47.6607C192.648 48.0201 192.748 48.3704 192.918 48.6877C193.055 48.9467 193.25 49.1709 193.487 49.3434C193.711 49.5 193.963 49.6125 194.229 49.6752C194.489 49.7302 194.754 49.7593 195.019 49.7621C195.285 49.7589 195.55 49.7298 195.809 49.6752C196.076 49.6125 196.328 49.5 196.552 49.3434C196.785 49.1667 196.979 48.9434 197.121 48.6877C197.287 48.369 197.387 48.0194 197.413 47.6607C197.413 47.5659 197.413 47.4316 197.413 47.2657V46.2545C197.429 46.0965 197.421 45.9622 197.413 45.82V45.8516Z" fill="black"/>
<path d="M205.7 48.19C205.682 48.5516 205.801 48.9068 206.032 49.1854C206.201 49.3278 206.398 49.4342 206.61 49.498C206.822 49.5619 207.045 49.5818 207.264 49.5567H208.489C208.56 49.5555 208.63 49.5689 208.695 49.5961C208.76 49.6233 208.819 49.6636 208.868 49.7147C208.919 49.7639 208.959 49.8229 208.986 49.888C209.013 49.9532 209.027 50.0233 209.026 50.0939V51.4132C209.027 51.4844 209.014 51.5551 208.988 51.6212C208.961 51.6873 208.922 51.7474 208.872 51.7981C208.822 51.8489 208.762 51.8891 208.696 51.9166C208.631 51.9441 208.56 51.9583 208.489 51.9583H206.98C205.935 52.0272 204.903 51.7 204.089 51.0419C203.728 50.6782 203.451 50.2404 203.276 49.7588C203.101 49.2773 203.034 48.7635 203.077 48.2532V43.9556H201.75C201.608 43.9515 201.472 43.8925 201.372 43.791C201.272 43.6894 201.215 43.5531 201.213 43.4105V42.0912C201.215 41.9486 201.272 41.8123 201.372 41.7107C201.472 41.6091 201.608 41.5501 201.75 41.5461H203.077V38.2834C203.077 38.1409 203.134 38.0043 203.235 37.9035C203.335 37.8028 203.472 37.7462 203.615 37.7462H205.139C205.21 37.745 205.28 37.7584 205.345 37.7856C205.411 37.8128 205.47 37.8531 205.519 37.9042C205.569 37.9534 205.609 38.0124 205.636 38.0776C205.664 38.1427 205.677 38.2128 205.677 38.2834V41.5461H208.26C208.403 41.5519 208.538 41.6112 208.639 41.7122C208.74 41.8132 208.799 41.9485 208.805 42.0912V43.45C208.799 43.5927 208.74 43.728 208.639 43.8289C208.538 43.9299 208.403 43.9892 208.26 43.9951H205.677L205.7 48.19Z" fill="black"/>
<path d="M218.83 41.5462H221.611C221.683 41.5459 221.755 41.5604 221.822 41.589C221.888 41.6175 221.948 41.6594 221.998 41.7121C222.049 41.7613 222.089 41.8203 222.116 41.8854C222.143 41.9506 222.157 42.0207 222.156 42.0913V43.4501C222.157 43.5207 222.143 43.5907 222.116 43.6559C222.089 43.7211 222.049 43.7801 221.998 43.8293C221.948 43.8819 221.888 43.9238 221.822 43.9524C221.755 43.9809 221.683 43.9955 221.611 43.9952H218.83V51.4607C218.831 51.5319 218.818 51.6026 218.791 51.6687C218.765 51.7348 218.726 51.7949 218.676 51.8456C218.626 51.8964 218.566 51.9366 218.5 51.9641C218.435 51.9916 218.364 52.0058 218.293 52.0058H216.768C216.698 52.0065 216.628 51.9928 216.562 51.9657C216.497 51.9385 216.438 51.8984 216.389 51.8478C216.336 51.798 216.294 51.738 216.266 51.6714C216.237 51.6048 216.223 51.5331 216.223 51.4607V43.9557H214.88C214.809 43.9568 214.738 43.9426 214.672 43.914C214.607 43.8854 214.548 43.843 214.501 43.7898C214.449 43.7418 214.407 43.683 214.38 43.6175C214.353 43.5521 214.34 43.4814 214.343 43.4106V42.0913C214.34 42.0204 214.353 41.9498 214.38 41.8843C214.407 41.8188 214.449 41.7601 214.501 41.7121C214.548 41.6588 214.607 41.6164 214.672 41.5878C214.738 41.5592 214.809 41.545 214.88 41.5462H216.199V40.6456C216.184 40.0895 216.281 39.536 216.484 39.0182C216.649 38.5909 216.921 38.2129 217.274 37.9201C217.645 37.6334 218.073 37.4287 218.53 37.3197C219.063 37.197 219.61 37.1386 220.157 37.1459H221.785C221.855 37.1447 221.926 37.1581 221.991 37.1853C222.056 37.2125 222.115 37.2528 222.164 37.3039C222.215 37.3531 222.255 37.4121 222.282 37.4772C222.309 37.5424 222.323 37.6125 222.322 37.6831V39.0024C222.323 39.0736 222.31 39.1443 222.283 39.2104C222.257 39.2765 222.217 39.3366 222.167 39.3873C222.117 39.4381 222.058 39.4783 221.992 39.5058C221.926 39.5333 221.856 39.5475 221.785 39.5475H220.41C220.005 39.5193 219.6 39.6128 219.249 39.8161C219.101 39.9412 218.986 40.1015 218.916 40.2822C218.845 40.463 218.821 40.6585 218.846 40.851L218.83 41.5462Z" fill="black"/>
<path d="M228.31 41.3486C228.989 41.3376 229.664 41.4528 230.301 41.6883C230.859 41.9164 231.371 42.2458 231.81 42.66C232.242 43.0592 232.596 43.5362 232.853 44.0662C233.115 44.6048 233.268 45.1902 233.303 45.7884C233.313 45.941 233.313 46.094 233.303 46.2466V47.3605C233.312 47.5105 233.312 47.6609 233.303 47.8108C233.253 48.4075 233.098 48.9906 232.845 49.533C232.596 50.0607 232.244 50.5334 231.81 50.9234C231.359 51.3273 230.836 51.6434 230.269 51.8556C229.639 52.0685 228.975 52.1649 228.31 52.14C227.629 52.1509 226.951 52.0358 226.311 51.8003C225.744 51.5881 225.222 51.272 224.771 50.8681C224.339 50.4778 223.99 50.0051 223.744 49.4777C223.484 48.9371 223.326 48.3533 223.278 47.7555C223.278 47.637 223.278 47.4869 223.278 47.3052C223.278 47.1235 223.278 46.9418 223.278 46.7522C223.278 46.5626 223.278 46.3809 223.278 46.1913C223.278 46.0017 223.278 45.8516 223.278 45.7331C223.312 45.1349 223.465 44.5495 223.728 44.0109C223.981 43.5032 224.323 43.0455 224.739 42.66C225.19 42.2538 225.712 41.935 226.28 41.7199C226.927 41.4698 227.616 41.3439 228.31 41.3486ZM230.68 45.82C230.655 45.4621 230.558 45.1128 230.396 44.793C230.255 44.5359 230.058 44.3143 229.819 44.1452C229.601 43.9826 229.35 43.8694 229.084 43.8134C228.825 43.7527 228.56 43.7209 228.294 43.7186C228.028 43.72 227.763 43.7518 227.504 43.8134C227.236 43.8692 226.982 43.9824 226.762 44.1452C226.523 44.3126 226.328 44.5348 226.193 44.793C226.024 45.1107 225.924 45.4608 225.901 45.82C225.901 45.9306 225.901 46.0649 225.901 46.2229C225.901 46.3809 225.901 46.5547 225.901 46.7285C225.901 46.9023 225.901 47.0682 225.901 47.2341C225.894 47.3657 225.894 47.4975 225.901 47.6291C225.923 47.9885 226.023 48.3388 226.193 48.6561C226.33 48.9151 226.525 49.1393 226.762 49.3118C226.986 49.4684 227.238 49.5809 227.504 49.6436C227.764 49.6991 228.029 49.7282 228.294 49.7305C228.56 49.7273 228.824 49.6982 229.084 49.6436C229.348 49.5807 229.597 49.4681 229.819 49.3118C230.056 49.1377 230.253 48.9139 230.396 48.6561C230.559 48.3368 230.656 47.9873 230.68 47.6291C230.69 47.4977 230.69 47.3656 230.68 47.2341V46.2545C230.691 46.1099 230.691 45.9647 230.68 45.82Z" fill="black"/>
<path d="M235.507 42.0912C235.509 41.9486 235.566 41.8123 235.666 41.7108C235.766 41.6092 235.902 41.5502 236.044 41.5461H237.569C237.712 41.552 237.847 41.6113 237.948 41.7123C238.049 41.8133 238.108 41.9485 238.114 42.0912V47.1788C238.08 47.8557 238.256 48.5265 238.62 49.0985C238.816 49.3498 239.072 49.5478 239.365 49.6748C239.657 49.8017 239.977 49.8535 240.294 49.8253C240.603 49.8428 240.911 49.7859 241.193 49.6595C241.475 49.533 241.722 49.3406 241.914 49.0985C242.314 48.541 242.511 47.8639 242.475 47.1788V42.0912C242.481 41.9485 242.54 41.8133 242.641 41.7123C242.742 41.6113 242.877 41.552 243.02 41.5461H244.537C244.609 41.5458 244.681 41.5604 244.747 41.5889C244.814 41.6175 244.874 41.6594 244.924 41.712C244.974 41.7613 245.015 41.8202 245.042 41.8854C245.069 41.9506 245.083 42.0206 245.082 42.0912V51.4211C245.083 51.493 245.07 51.5644 245.042 51.631C245.015 51.6976 244.975 51.7581 244.925 51.809C244.874 51.8598 244.813 51.8999 244.747 51.9269C244.68 51.9539 244.609 51.9673 244.537 51.9662H243.02C242.949 51.967 242.879 51.9533 242.814 51.9262C242.749 51.899 242.69 51.8589 242.641 51.8082C242.588 51.7585 242.546 51.6985 242.518 51.6319C242.489 51.5653 242.474 51.4936 242.475 51.4211V50.9629C242.135 51.2787 241.752 51.5446 241.337 51.7529C240.83 52.015 240.264 52.1428 239.694 52.1242C239 52.1475 238.31 52.018 237.672 51.745C237.166 51.5178 236.726 51.1674 236.392 50.7259C236.061 50.2819 235.826 49.7732 235.704 49.2328C235.569 48.6447 235.503 48.0429 235.507 47.4395V42.0912Z" fill="black"/>
<path d="M257.619 51.4211C257.62 51.4923 257.607 51.563 257.58 51.6291C257.554 51.6952 257.515 51.7553 257.465 51.8061C257.415 51.8568 257.355 51.8971 257.289 51.9245C257.224 51.952 257.153 51.9662 257.082 51.9662H255.557C255.487 51.9669 255.417 51.9533 255.351 51.9261C255.286 51.8989 255.227 51.8588 255.178 51.8082C255.125 51.7584 255.083 51.6984 255.055 51.6318C255.026 51.5653 255.012 51.4935 255.012 51.4211V46.3335C255.049 45.6484 254.851 44.9713 254.451 44.4138C254.242 44.1655 253.977 43.9707 253.677 43.8456C253.378 43.7206 253.053 43.6689 252.729 43.6949C252.415 43.6796 252.101 43.7364 251.812 43.861C251.523 43.9856 251.267 44.1747 251.062 44.4138C250.63 44.9577 250.411 45.64 250.446 46.3335V51.4211C250.448 51.493 250.435 51.5645 250.407 51.6312C250.38 51.6978 250.34 51.7581 250.288 51.8082C250.238 51.8585 250.179 51.8983 250.114 51.9255C250.049 51.9526 249.979 51.9664 249.909 51.9662H248.384C248.313 51.9664 248.244 51.9526 248.178 51.9255C248.113 51.8983 248.054 51.8585 248.005 51.8082C247.953 51.7581 247.912 51.6978 247.885 51.6312C247.858 51.5645 247.845 51.493 247.847 51.4211V42.0912C247.844 42.0203 247.857 41.9497 247.884 41.8842C247.911 41.8187 247.953 41.76 248.005 41.712C248.053 41.6591 248.111 41.617 248.177 41.5884C248.242 41.5599 248.313 41.5454 248.384 41.5461H249.909C249.98 41.5454 250.051 41.5599 250.116 41.5884C250.181 41.617 250.24 41.6591 250.288 41.712C250.34 41.76 250.381 41.8187 250.409 41.8842C250.436 41.9497 250.449 42.0203 250.446 42.0912V42.5494C250.804 42.1968 251.218 41.9059 251.67 41.6883C252.19 41.449 252.758 41.3328 253.329 41.3486C254.031 41.3255 254.729 41.4548 255.375 41.7278C255.891 41.9565 256.343 42.3061 256.695 42.7469C257.037 43.1872 257.28 43.6966 257.406 44.24C257.55 44.8268 257.622 45.429 257.619 46.0333V51.4211Z" fill="black"/>
<path d="M264.287 41.3486C264.661 41.3439 265.035 41.3837 265.4 41.4671C265.697 41.5369 265.986 41.6375 266.262 41.7673C266.487 41.874 266.699 42.0065 266.894 42.1623C267.045 42.2775 267.186 42.4071 267.312 42.5494V38.2834C267.312 38.2122 267.326 38.1417 267.354 38.076C267.381 38.0103 267.422 37.9507 267.472 37.9007C267.523 37.8507 267.583 37.8113 267.649 37.7848C267.715 37.7583 267.786 37.7452 267.857 37.7462H269.39C269.461 37.7435 269.531 37.7562 269.597 37.7835C269.662 37.8108 269.721 37.852 269.769 37.9042C269.822 37.9518 269.865 38.0103 269.893 38.0757C269.922 38.1412 269.936 38.212 269.935 38.2834V51.4211C269.935 51.4935 269.921 51.5653 269.892 51.6319C269.864 51.6985 269.822 51.7585 269.769 51.8082C269.72 51.8588 269.661 51.899 269.596 51.9261C269.531 51.9533 269.461 51.9669 269.39 51.9662H267.873C267.801 51.9673 267.73 51.9539 267.663 51.9269C267.597 51.8999 267.536 51.8598 267.485 51.8089C267.435 51.7581 267.394 51.6976 267.367 51.631C267.34 51.5643 267.327 51.493 267.328 51.4211V50.9629C267.201 51.1052 267.061 51.2348 266.909 51.35C266.715 51.5058 266.503 51.6383 266.277 51.745C266.002 51.8748 265.713 51.9754 265.416 52.0452C265.051 52.1286 264.677 52.1684 264.302 52.1637C263.678 52.1739 263.059 52.0415 262.493 51.7766C261.966 51.528 261.495 51.1729 261.111 50.7338C260.725 50.2899 260.42 49.7819 260.21 49.2328C259.988 48.6652 259.862 48.0644 259.839 47.4553C259.839 47.2578 259.839 47.0208 259.839 46.7601C259.839 46.4994 259.839 46.2545 259.839 46.057C259.862 45.4479 259.988 44.8471 260.21 44.2795C260.422 43.7312 260.727 43.2235 261.111 42.7785C261.495 42.3394 261.966 41.9844 262.493 41.7357C263.054 41.4731 263.667 41.3408 264.287 41.3486ZM262.422 46.1992C262.383 46.5721 262.383 46.9481 262.422 47.321C262.431 48.0243 262.715 48.6963 263.212 49.1933C263.679 49.5767 264.268 49.7787 264.871 49.7621C265.477 49.7787 266.068 49.5704 266.53 49.1775C266.766 48.9675 266.957 48.7126 267.092 48.4277C267.228 48.1428 267.306 47.8337 267.32 47.5185C267.349 47.2562 267.362 46.9924 267.36 46.7285C267.362 46.4646 267.349 46.2008 267.32 45.9385C267.287 45.3224 267.016 44.7434 266.563 44.3244C266.11 43.9055 265.512 43.6796 264.895 43.6949C264.291 43.6783 263.702 43.8803 263.236 44.2637C262.978 44.5154 262.772 44.8164 262.633 45.1489C262.493 45.4814 262.421 45.8385 262.422 46.1992Z" fill="black"/>
<path d="M155.188 71.7004C155.253 71.6997 155.318 71.7127 155.377 71.7385C155.437 71.7644 155.491 71.8025 155.535 71.8505C155.581 71.8957 155.618 71.9498 155.642 72.0096C155.667 72.0694 155.679 72.1335 155.677 72.1981V74.1415C155.679 74.206 155.667 74.2702 155.642 74.33C155.618 74.3897 155.581 74.4439 155.535 74.4891C155.491 74.537 155.437 74.5752 155.377 74.601C155.318 74.6269 155.253 74.6399 155.188 74.6392H146.498C146.432 74.6404 146.368 74.6276 146.308 74.6017C146.248 74.5758 146.194 74.5374 146.15 74.4891C146.103 74.4443 146.065 74.3904 146.039 74.3306C146.014 74.2709 146 74.2065 146 74.1415V62.2915C146 62.2264 146.014 62.1621 146.039 62.1023C146.065 62.0426 146.103 61.9887 146.15 61.9439C146.194 61.8955 146.248 61.8571 146.308 61.8312C146.368 61.8054 146.432 61.7926 146.498 61.7938H155.053C155.184 61.7977 155.308 61.8514 155.401 61.9439C155.493 62.0364 155.547 62.1607 155.551 62.2915V64.227C155.552 64.2934 155.539 64.3592 155.513 64.4204C155.487 64.4816 155.449 64.5368 155.401 64.5825C155.356 64.6286 155.302 64.665 155.242 64.6895C155.182 64.7139 155.118 64.7259 155.053 64.7247H149.397V66.7076H154.65C154.716 66.7064 154.781 66.7192 154.841 66.745C154.9 66.7709 154.954 66.8093 154.998 66.8577C155.045 66.9025 155.083 66.9564 155.109 67.0161C155.135 67.0759 155.148 67.1402 155.148 67.2053V69.1487C155.148 69.2137 155.135 69.2781 155.109 69.3378C155.083 69.3976 155.045 69.4515 154.998 69.4963C154.954 69.5446 154.9 69.583 154.841 69.6089C154.781 69.6348 154.716 69.6476 154.65 69.6464H149.397V71.7004H155.188Z" fill="#EF4949"/>
<path d="M163.261 61.7859C163.991 61.7761 164.719 61.8638 165.426 62.0466C166.014 62.203 166.567 62.4712 167.053 62.8366C167.5 63.1839 167.853 63.6374 168.08 64.1559C168.328 64.7428 168.449 65.3754 168.436 66.0124C168.467 66.8145 168.27 67.6089 167.867 68.3034C167.488 68.9093 166.938 69.3901 166.287 69.6859L168.562 74.0546C168.597 74.1175 168.616 74.188 168.618 74.26C168.618 74.3668 168.575 74.4693 168.5 74.5449C168.424 74.6204 168.322 74.6629 168.215 74.6629H165.718C165.625 74.6724 165.53 74.6626 165.44 74.6341C165.351 74.6055 165.268 74.5589 165.197 74.497C165.098 74.398 165.013 74.2865 164.944 74.1652L162.906 70.2152H161.16V74.1652C161.161 74.2298 161.149 74.2939 161.125 74.3537C161.1 74.4134 161.064 74.4676 161.018 74.5128C160.974 74.5607 160.92 74.5989 160.86 74.6247C160.8 74.6506 160.735 74.6636 160.67 74.6629H158.3C158.235 74.6636 158.17 74.6506 158.11 74.6247C158.051 74.5989 157.997 74.5607 157.953 74.5128C157.906 74.4676 157.87 74.4134 157.846 74.3537C157.821 74.2939 157.809 74.2298 157.81 74.1652V62.3152C157.809 62.2506 157.821 62.1865 157.846 62.1267C157.87 62.0669 157.906 62.0128 157.953 61.9676C157.997 61.9196 158.051 61.8815 158.11 61.8557C158.17 61.8298 158.235 61.8168 158.3 61.8175L163.261 61.7859ZM161.184 67.3159H163.261C163.706 67.3336 164.148 67.2327 164.541 67.0236C164.714 66.9087 164.852 66.7484 164.94 66.5603C165.028 66.3721 165.062 66.1634 165.039 65.9571C165.062 65.7518 165.028 65.5441 164.94 65.3572C164.852 65.1703 164.714 65.0114 164.541 64.8985C164.148 64.6893 163.706 64.5885 163.261 64.6062H161.16L161.184 67.3159Z" fill="#EF4949"/>
<path d="M176.02 61.7859C176.75 61.7761 177.478 61.8638 178.185 62.0466C178.773 62.203 179.325 62.4712 179.812 62.8366C180.261 63.1817 180.615 63.6358 180.839 64.1559C181.087 64.7428 181.208 65.3754 181.195 66.0124C181.225 66.8145 181.028 67.6089 180.626 68.3034C180.246 68.9093 179.697 69.3901 179.046 69.6859L181.321 74.0546C181.356 74.1175 181.375 74.188 181.376 74.26C181.376 74.3668 181.334 74.4693 181.258 74.5449C181.183 74.6204 181.08 74.6629 180.973 74.6629H178.477C178.383 74.6724 178.289 74.6626 178.199 74.6341C178.109 74.6055 178.026 74.5589 177.956 74.497C177.857 74.398 177.772 74.2865 177.703 74.1652L175.665 70.2152H173.982V74.1652C173.982 74.2303 173.968 74.2946 173.942 74.3543C173.917 74.4141 173.879 74.468 173.832 74.5128C173.787 74.5607 173.734 74.5989 173.674 74.6247C173.614 74.6506 173.549 74.6636 173.484 74.6629H171.075C171.009 74.6636 170.945 74.6506 170.885 74.6247C170.825 74.5989 170.771 74.5607 170.727 74.5128C170.681 74.4676 170.644 74.4134 170.62 74.3537C170.596 74.2939 170.584 74.2298 170.585 74.1652V62.3152C170.584 62.2506 170.596 62.1865 170.62 62.1267C170.644 62.0669 170.681 62.0128 170.727 61.9676C170.771 61.9196 170.825 61.8815 170.885 61.8557C170.945 61.8298 171.009 61.8168 171.075 61.8175L176.02 61.7859ZM173.95 67.3159H176.02C176.465 67.3336 176.907 67.2327 177.3 67.0236C177.473 66.9087 177.611 66.7484 177.699 66.5603C177.786 66.3721 177.821 66.1634 177.798 65.9571C177.821 65.7518 177.787 65.5441 177.699 65.3572C177.611 65.1703 177.473 65.0114 177.3 64.8985C176.907 64.6893 176.465 64.5885 176.02 64.6062H173.95V67.3159Z" fill="#EF4949"/>
<path d="M182.885 66.5813C182.919 65.9145 183.072 65.2592 183.335 64.6458C183.592 64.0452 183.975 63.5064 184.457 63.0658C184.968 62.597 185.567 62.2345 186.219 61.9993C187.769 61.4726 189.449 61.4726 190.998 61.9993C191.65 62.2364 192.248 62.5987 192.76 63.0658C193.24 63.5067 193.62 64.0455 193.874 64.6458C194.145 65.2568 194.298 65.9135 194.324 66.5813C194.324 67.1027 194.364 67.6557 194.364 68.2324C194.364 68.8091 194.364 69.3463 194.324 69.8124C194.297 70.4826 194.144 71.1417 193.874 71.7558C193.613 72.3523 193.234 72.8898 192.76 73.3358C192.245 73.8049 191.64 74.165 190.983 74.3944C189.431 74.9106 187.754 74.9106 186.203 74.3944C185.55 74.1648 184.951 73.8046 184.441 73.3358C183.965 72.8901 183.583 72.3526 183.32 71.7558C183.057 71.1393 182.905 70.4815 182.869 69.8124C182.869 69.3147 182.869 68.7775 182.869 68.2324C182.869 67.6873 182.861 67.1027 182.885 66.5813ZM190.943 69.7413C190.943 69.5201 190.943 69.2752 190.983 69.0066C191.022 68.738 190.983 68.4615 190.983 68.1771C190.983 67.8927 190.983 67.6241 190.983 67.3871C190.983 67.1501 190.983 66.8894 190.943 66.6761C190.923 66.3889 190.859 66.1065 190.754 65.8387C190.654 65.5865 190.504 65.3579 190.311 65.1672C190.11 64.9709 189.871 64.8177 189.608 64.7169C189.289 64.6005 188.952 64.5442 188.613 64.551C188.276 64.5433 187.941 64.5996 187.625 64.7169C187.359 64.8157 187.117 64.9691 186.914 65.1672C186.724 65.3599 186.574 65.5881 186.472 65.8387C186.366 66.1065 186.302 66.3889 186.282 66.6761C186.282 66.8867 186.266 67.1237 186.235 67.3871C186.235 67.6478 186.235 67.9243 186.235 68.1771C186.235 68.4299 186.235 68.738 186.235 69.0066C186.235 69.2752 186.235 69.5201 186.282 69.7413C186.312 70.3069 186.535 70.8451 186.914 71.266C187.139 71.48 187.407 71.6442 187.699 71.7476C187.992 71.8511 188.303 71.8916 188.613 71.8664C188.921 71.8925 189.231 71.8524 189.523 71.7488C189.814 71.6453 190.08 71.4807 190.303 71.266C190.675 70.8461 190.9 70.3163 190.943 69.7571V69.7413Z" fill="#EF4949"/>
<path d="M201.964 61.7861C202.693 61.7769 203.421 61.8645 204.128 62.0468C204.714 62.2024 205.264 62.4708 205.748 62.8368C206.197 63.1836 206.553 63.6371 206.783 64.1561C207.03 64.743 207.152 65.3756 207.138 66.0126C207.169 66.8147 206.972 67.6091 206.569 68.3036C206.18 68.9164 205.616 69.3981 204.95 69.6861L207.225 74.0548C207.262 74.1174 207.283 74.1877 207.288 74.2602C207.287 74.3136 207.276 74.3664 207.254 74.4153C207.232 74.4642 207.201 74.5082 207.162 74.5446C207.125 74.5827 207.081 74.6129 207.032 74.6333C206.983 74.6537 206.93 74.6638 206.877 74.6631H204.381C204.287 74.6726 204.193 74.6628 204.103 74.6342C204.013 74.6057 203.93 74.559 203.86 74.4972C203.763 74.3984 203.681 74.2867 203.615 74.1654L201.576 70.2154H199.87V74.1654C199.866 74.2961 199.812 74.4204 199.72 74.5129C199.627 74.6054 199.503 74.6591 199.372 74.6631H197.002C196.872 74.6591 196.747 74.6054 196.655 74.5129C196.562 74.4204 196.509 74.2961 196.505 74.1654V62.3154C196.509 62.1846 196.562 62.0603 196.655 61.9678C196.747 61.8753 196.872 61.8216 197.002 61.8177L201.964 61.7861ZM199.886 67.3161H201.964C202.406 67.3339 202.845 67.233 203.235 67.0238C203.411 66.9112 203.552 66.7515 203.641 66.563C203.73 66.3744 203.765 66.1645 203.741 65.9573C203.765 65.7511 203.73 65.5426 203.64 65.3554C203.551 65.1682 203.411 65.0099 203.235 64.8987C202.845 64.6894 202.406 64.5885 201.964 64.6064H199.87L199.886 67.3161Z" fill="#EF4949"/>
<path d="M219.201 74.6394C219.135 74.6402 219.069 74.6273 219.008 74.6015C218.947 74.5756 218.892 74.5374 218.846 74.4893C218.8 74.4441 218.763 74.3899 218.739 74.3302C218.714 74.2704 218.702 74.2062 218.704 74.1417V72.2694H212.921C212.856 72.2706 212.792 72.2586 212.732 72.2342C212.673 72.2097 212.618 72.1733 212.573 72.1272C212.525 72.0815 212.487 72.0263 212.461 71.9651C212.435 71.9039 212.422 71.8381 212.423 71.7717V69.8283C212.413 69.5461 212.497 69.2685 212.66 69.0383L218.151 62.1179C218.233 62.0105 218.335 61.9194 218.451 61.8493C218.572 61.8038 218.701 61.7823 218.83 61.7861H221.603C221.668 61.7849 221.733 61.7976 221.793 61.8235C221.853 61.8494 221.907 61.8878 221.951 61.9362C221.998 61.981 222.035 62.0349 222.061 62.0946C222.087 62.1543 222.1 62.2187 222.101 62.2838V69.3306H223.681C223.812 69.3329 223.937 69.3868 224.028 69.4807C224.074 69.5259 224.111 69.58 224.135 69.6398C224.16 69.6996 224.172 69.7637 224.17 69.8283V71.7717C224.171 71.9042 224.12 72.0319 224.028 72.1272C223.982 72.1726 223.928 72.2085 223.869 72.2329C223.809 72.2573 223.745 72.2697 223.681 72.2694H222.101V74.1417C222.1 74.2067 222.087 74.2711 222.061 74.3308C222.035 74.3906 221.998 74.4445 221.951 74.4893C221.907 74.5376 221.853 74.576 221.793 74.6019C221.733 74.6278 221.668 74.6406 221.603 74.6394H219.201ZM218.83 69.3306V65.9573L216.152 69.3306H218.83Z" fill="#EF4949"/>
<path d="M231.075 61.6201C231.884 61.6015 232.688 61.7383 233.445 62.023C234.062 62.2648 234.622 62.6335 235.088 63.1053C235.52 63.5576 235.851 64.0961 236.06 64.6853C236.275 65.2991 236.402 65.94 236.439 66.5892C236.439 67.1106 236.439 67.6636 236.439 68.2403C236.439 68.817 236.439 69.3542 236.439 69.8203C236.402 70.4695 236.275 71.1103 236.06 71.7242C235.854 72.3151 235.523 72.8542 235.088 73.3042C234.622 73.7759 234.062 74.1446 233.445 74.3865C231.911 74.9236 230.239 74.9236 228.705 74.3865C228.088 74.1446 227.528 73.7759 227.062 73.3042C226.627 72.8542 226.296 72.3151 226.09 71.7242C225.876 71.1103 225.748 70.4695 225.711 69.8203C225.711 69.3226 225.711 68.7854 225.711 68.2403C225.711 67.6952 225.711 67.1106 225.711 66.5892C225.748 65.94 225.876 65.2991 226.09 64.6853C226.299 64.0961 226.63 63.5576 227.062 63.1053C227.528 62.6335 228.088 62.2648 228.705 62.023C229.462 61.7383 230.267 61.6015 231.075 61.6201ZM233.05 69.7571C233.097 68.7143 233.097 67.6873 233.05 66.6682C233.03 66.3851 232.982 66.1047 232.908 65.8308C232.85 65.5877 232.742 65.3591 232.592 65.1593C232.433 64.9641 232.23 64.8098 231.999 64.709C231.709 64.5893 231.397 64.5327 231.083 64.5431C230.769 64.5334 230.457 64.59 230.167 64.709C229.936 64.8098 229.733 64.9641 229.574 65.1593C229.424 65.3604 229.314 65.5883 229.25 65.8308C229.171 66.1033 229.126 66.3846 229.116 66.6682C229.061 67.6971 229.061 68.7282 229.116 69.7571C229.129 70.0419 229.168 70.325 229.234 70.6024C229.3 70.8459 229.412 71.0741 229.566 71.2739C229.728 71.4671 229.934 71.6188 230.167 71.7163C230.457 71.8353 230.769 71.8918 231.083 71.8822C231.397 71.8925 231.709 71.836 231.999 71.7163C232.232 71.6188 232.438 71.4671 232.6 71.2739C232.754 71.0741 232.866 70.8459 232.932 70.6024C232.997 70.325 233.037 70.0419 233.05 69.7571Z" fill="#EF4949"/>
<path d="M244.734 74.6393C244.603 74.6354 244.479 74.5816 244.387 74.4892C244.294 74.3967 244.24 74.2724 244.236 74.1416V72.2693H238.454C238.389 72.2705 238.325 72.2586 238.265 72.2341C238.205 72.2097 238.151 72.1733 238.106 72.1271C238.012 72.0326 237.958 71.9051 237.956 71.7716V69.8282C237.945 69.5446 238.031 69.2658 238.201 69.0382L243.683 62.1178C243.767 62.0081 243.871 61.9167 243.992 61.8492C244.11 61.8029 244.236 61.7814 244.363 61.786H247.136C247.266 61.79 247.391 61.8437 247.483 61.9362C247.576 62.0287 247.629 62.153 247.633 62.2837V69.3305H249.213C249.344 69.3345 249.468 69.3882 249.561 69.4807C249.653 69.5732 249.707 69.6975 249.711 69.8282V71.7716C249.709 71.9051 249.655 72.0326 249.561 72.1271C249.516 72.1733 249.462 72.2097 249.402 72.2341C249.342 72.2586 249.278 72.2705 249.213 72.2693H247.633V74.1416C247.629 74.2724 247.576 74.3967 247.483 74.4892C247.391 74.5816 247.266 74.6354 247.136 74.6393H244.734ZM244.331 69.3305V65.9572L241.653 69.3305H244.331Z" fill="#EF4949"/>
</svg>
