<svg width="17" height="29" viewBox="0 0 17 29" fill="none" xmlns="http://www.w3.org/2000/svg">
<path d="M16.5714 6.21425C16.5714 5.93957 16.4623 5.67613 16.2681 5.48189C16.0738 5.28766 15.8104 5.17854 15.5357 5.17854H7.6153L7.24244 1.9526C7.21985 1.75688 7.1419 1.57165 7.01774 1.41867C6.89358 1.26569 6.72836 1.1513 6.54147 1.08892L3.43432 0.0532051C3.30529 0.0101709 3.16904 -0.00702669 3.03336 0.00259429C2.89768 0.0122153 2.76522 0.0484665 2.64355 0.109278C2.39783 0.232092 2.21095 0.44749 2.12404 0.708087C2.08101 0.837122 2.06381 0.973369 2.07343 1.10905C2.08305 1.24473 2.1193 1.37719 2.18012 1.49886C2.24093 1.62053 2.32511 1.72903 2.42785 1.81817C2.5306 1.90731 2.64989 1.97534 2.77892 2.01837L5.26039 2.84518L5.53071 5.17854H1.03571C0.761026 5.17854 0.497588 5.28766 0.303354 5.48189C0.10912 5.67613 0 5.93957 0 6.21425V9.92211V14.5C0.00377962 16.5163 0.741843 18.4621 2.07618 19.9738C3.41052 21.4854 5.24977 22.4592 7.25 22.7132V26.1191L3.89159 26.9587C3.64563 27.0193 3.43043 27.1681 3.28671 27.3767C3.14298 27.5853 3.0807 27.8394 3.11165 28.0908C3.1426 28.3422 3.26463 28.5736 3.45466 28.7411C3.64468 28.9087 3.88952 29.0008 4.14286 29H12.4286C12.6813 28.9999 12.9252 28.9074 13.1144 28.74C13.3037 28.5725 13.4252 28.3417 13.4561 28.0909C13.487 27.8401 13.4251 27.5867 13.2822 27.3783C13.1392 27.17 12.925 27.021 12.6799 26.9596L9.32143 26.1199V22.7139C11.3218 22.4599 13.1611 21.486 14.4955 19.9742C15.8298 18.4624 16.5678 16.5164 16.5714 14.5V10.7921V6.21425ZM14.5 7.24997V9.67043C14.4702 9.66505 14.4352 9.66163 14.4068 9.65583C14.3032 9.63512 14.2073 9.61109 14.1139 9.58571C14.0414 9.56624 13.9653 9.54894 13.8964 9.5273C13.7539 9.48204 13.6157 9.43408 13.4735 9.38292L13.4114 9.36086C12.551 9.02518 11.6325 8.8639 10.7093 8.8864C9.81745 8.86423 8.92964 9.01338 8.094 9.32575L7.85444 7.24997H14.5ZM2.07143 7.24997H5.76955L6.058 9.74791C6.02692 9.74873 6.00258 9.75143 5.97079 9.75194C5.93495 9.75194 5.90968 9.75629 5.8724 9.75629C5.82486 9.75629 5.79233 9.75143 5.74718 9.7507C5.14341 9.75438 4.54384 9.65032 3.97662 9.44341C3.91769 9.42269 3.85886 9.40353 3.799 9.38209L3.71614 9.35288C3.63501 9.32347 3.55177 9.29419 3.46643 9.26505L3.42583 9.25138C3.15892 9.16023 2.88645 9.08624 2.6101 9.02984L2.57282 9.0229C2.43134 8.99529 2.27916 8.97112 2.11627 8.95041C2.10032 8.94833 2.08769 8.94523 2.07143 8.94326V7.24997ZM8.28571 19.6785C6.91241 19.6781 5.5955 19.1323 4.62443 18.1613C3.65336 17.1902 3.10761 15.8733 3.10714 14.5C3.10714 14.2253 3.21626 13.9618 3.4105 13.7676C3.60473 13.5734 3.86817 13.4643 4.14286 13.4643C4.41754 13.4643 4.68098 13.5734 4.87522 13.7676C5.06945 13.9618 5.17857 14.2253 5.17857 14.5C5.18092 15.3233 5.50903 16.1123 6.09123 16.6945C6.67342 17.2766 7.46237 17.6048 8.28571 17.6071C8.5604 17.6071 8.82384 17.7162 9.01807 17.9105C9.21231 18.1047 9.32143 18.3681 9.32143 18.6428C9.32143 18.9175 9.21231 19.181 9.01807 19.3752C8.82384 19.5694 8.5604 19.6785 8.28571 19.6785Z" fill="#EF4949"/>
</svg>
