<svg width="29" height="29" viewBox="0 0 29 29" fill="none" xmlns="http://www.w3.org/2000/svg">
<path d="M11.3036 11.9642C12.237 11.9821 13.1684 11.871 14.0714 11.6339C15.1116 11.3616 16.1839 11.2325 17.2589 11.2499C18.3328 11.2231 19.4052 11.3432 20.4464 11.6071C21.3496 11.8435 22.2809 11.9547 23.2143 11.9374V10.2321C23.2143 9.41275 22.8888 8.62698 22.3095 8.04763C21.7301 7.46827 20.9443 7.14279 20.125 7.14279H18.4822C18.8552 6.67275 19.0595 6.09107 19.0625 5.49101C19.0669 5.1355 19.0005 4.78266 18.8671 4.45308C18.7338 4.1235 18.5361 3.82377 18.2857 3.57137C17.7743 3.08392 17.0949 2.81201 16.3884 2.81201C15.6819 2.81201 15.0025 3.08392 14.4911 3.57137C14.4128 3.65591 14.3439 3.74872 14.2857 3.84815C14.2297 3.74999 14.1606 3.65989 14.0804 3.58029C13.5694 3.09547 12.8919 2.82519 12.1875 2.82519C11.4831 2.82519 10.8056 3.09547 10.2947 3.58029C9.82629 4.04563 9.54628 4.66756 9.50838 5.3267C9.47048 5.98585 9.67735 6.63577 10.0893 7.15172H8.44644C7.62866 7.15172 6.84423 7.47597 6.26514 8.0534C5.68604 8.63082 5.35952 9.4143 5.35716 10.2321V11.2499C6.43094 11.2237 7.50329 11.3439 8.54465 11.6071C9.44344 11.8527 10.3719 11.9729 11.3036 11.9642ZM15.7679 4.82137C15.9387 4.67509 16.1584 4.59866 16.3831 4.60734C16.6078 4.61602 16.821 4.70917 16.98 4.86818C17.139 5.0272 17.2321 5.24036 17.2408 5.46507C17.2495 5.68978 17.1731 5.90949 17.0268 6.08029C16.5233 6.31328 15.9745 6.43218 15.4197 6.42851C15.417 5.88624 15.5328 5.34993 15.7589 4.85708L15.7679 4.82137ZM11.5625 4.82137C11.7298 4.65507 11.9561 4.56173 12.192 4.56173C12.4279 4.56173 12.6542 4.65507 12.8214 4.82137C13.0544 5.32491 13.1733 5.87369 13.1697 6.42851C12.6148 6.43218 12.0661 6.31328 11.5625 6.08029C11.3962 5.91301 11.3029 5.68671 11.3029 5.45083C11.3029 5.21495 11.3962 4.98865 11.5625 4.82137ZM17.8572 21.8928C16.7221 21.8725 15.5895 22.0077 14.4911 22.2946C13.2588 22.618 11.9881 22.7713 10.7143 22.7499C9.43874 22.7806 8.165 22.6364 6.92858 22.3214C5.8346 22.0247 4.70488 21.8804 3.57144 21.8928V24.9999C3.57144 25.2367 3.66551 25.4638 3.83295 25.6313C4.0004 25.7987 4.2275 25.8928 4.4643 25.8928H24.1072C24.344 25.8928 24.5711 25.7987 24.7385 25.6313C24.9059 25.4638 25 25.2367 25 24.9999V22.7499C23.7274 22.7807 22.4566 22.6365 21.2232 22.3214C20.126 22.0254 18.9935 21.8812 17.8572 21.8928ZM23.2143 16.3749V13.7499C22.1405 13.7768 21.068 13.6567 20.0268 13.3928C19.1237 13.1564 18.1923 13.0452 17.2589 13.0624C16.3255 13.0452 15.3942 13.1564 14.4911 13.3928C13.4511 13.6657 12.3786 13.7949 11.3036 13.7767C10.2315 13.7951 9.16193 13.6659 8.12501 13.3928C7.22315 13.1473 6.29179 13.0272 5.35716 13.0357V16.3749C4.82532 16.6213 4.3748 17.0142 4.0585 17.5077C3.74219 18.0011 3.57323 18.5745 3.57144 19.1607V20.1071C4.84405 20.0763 6.11486 20.2206 7.34823 20.5357C8.44665 20.8226 9.5792 20.9578 10.7143 20.9374C11.8465 20.958 12.9761 20.8228 14.0714 20.5357C15.3079 20.2206 16.5816 20.0764 17.8572 20.1071C19.131 20.0851 20.4018 20.2383 21.6339 20.5624C22.7324 20.8494 23.8649 20.9846 25 20.9642V19.1785C25.0016 18.5894 24.8343 18.0121 24.5178 17.5152C24.2013 17.0183 23.7489 16.6226 23.2143 16.3749Z" fill="#EF4949"/>
</svg>
