<svg width="28" height="28" viewBox="0 0 28 28" fill="none" xmlns="http://www.w3.org/2000/svg">
<path d="M15.6569 0.801747C14.7816 -0.267251 13.1469 -0.267247 12.2717 0.801747L11.0319 2.31606C10.9469 2.41985 10.8052 2.45783 10.6797 2.41043L8.84883 1.7189C7.5564 1.23073 6.14066 2.0481 5.9172 3.41148L5.60066 5.34282C5.57896 5.4752 5.4752 5.57896 5.34281 5.60066L3.41148 5.9172C2.04811 6.14066 1.23072 7.55638 1.7189 8.84883L2.41043 10.6797C2.45783 10.8052 2.41985 10.9469 2.31606 11.0319L0.801747 12.2717C-0.26725 13.1469 -0.267248 14.7817 0.801747 15.6569L2.31606 16.8967C2.41985 16.9817 2.45783 17.1234 2.41043 17.2489L1.7189 19.0798C1.23073 20.3722 2.0481 21.7879 3.41148 22.0114L5.34281 22.3279C5.4752 22.3497 5.57896 22.4534 5.60066 22.5858L5.9172 24.5171C6.14066 25.8804 7.55639 26.6978 8.84883 26.2097L10.6797 25.5182C10.8052 25.4708 10.9469 25.5087 11.0319 25.6126L12.2717 27.1268C13.1469 28.1958 14.7816 28.1958 15.6569 27.1268L16.8966 25.6126C16.9816 25.5087 17.1234 25.4708 17.2489 25.5182L19.0797 26.2097C20.3722 26.6978 21.788 25.8804 22.0114 24.5171L22.328 22.5858C22.3496 22.4534 22.4534 22.3497 22.5857 22.3279L24.5171 22.0114C25.8805 21.7879 26.6979 20.3722 26.2097 19.0798L25.5181 17.2489C25.4707 17.1234 25.5087 16.9817 25.6125 16.8967L27.1269 15.6569C28.1959 14.7817 28.1959 13.1469 27.1269 12.2717L25.6125 11.0319C25.5087 10.9469 25.4707 10.8052 25.5181 10.6797L26.2097 8.84883C26.6979 7.55638 25.8805 6.14066 24.5171 5.9172L22.5857 5.60066C22.4534 5.57896 22.3496 5.4752 22.328 5.34282L22.0114 3.41148C21.788 2.04811 20.3722 1.23072 19.0797 1.7189L17.2489 2.41043C17.1234 2.45783 16.9816 2.41985 16.8966 2.31606L15.6569 0.801747Z" fill="#009DDD"/>
<path fill-rule="evenodd" clip-rule="evenodd" d="M21.5017 8.92644C21.8679 9.29255 21.8679 9.88615 21.5017 10.2523L12.7517 19.0022C12.576 19.1781 12.3375 19.2769 12.0889 19.2769C11.8402 19.2769 11.6017 19.1781 11.426 19.0022L6.42595 14.0022C6.05984 13.6361 6.05984 13.0426 6.42595 12.6765C6.79206 12.3104 7.38566 12.3104 7.75178 12.6765L12.0889 17.0135L20.176 8.92644C20.5421 8.56033 21.1356 8.56033 21.5017 8.92644Z" fill="#ECEFF1"/>
</svg>
