<svg width="240" height="240" viewBox="0 0 240 240" fill="none" xmlns="http://www.w3.org/2000/svg">
<path d="M67.92 75.8977C31.008 97.4401 28.8 170.174 81.3024 168.782C104.779 168.158 111.638 143.539 132.826 134.899C152.717 126.782 169.867 143.059 189.946 124.627C213.605 102.931 217.003 49.8673 181.838 46.3201C166.526 44.7745 160.622 60.0625 147.245 63.4465C120.125 70.3105 95.3472 59.8993 67.92 75.8977Z" fill="#F5F5F5"/>
<path d="M120 205.229C171.399 205.229 213.067 202.796 213.067 199.795C213.067 196.794 171.399 194.362 120 194.362C68.6002 194.362 26.9326 196.794 26.9326 199.795C26.9326 202.796 68.6002 205.229 120 205.229Z" fill="#F5F5F5"/>
<path d="M23.4526 72.2688L132.878 88.0224L147.561 102.84L23.4526 72.2688Z" fill="#EF4949"/>
<path opacity="0.6" d="M23.4526 72.2688L132.878 88.0224L147.561 102.84L23.4526 72.2688Z" fill="white"/>
<path d="M23.4526 72.2688L132.878 88.0224L127.8 109.45L23.4526 72.2688Z" fill="#EF4949"/>
<path opacity="0.2" d="M23.4526 72.2688L132.878 88.0224L127.8 109.45L23.4526 72.2688Z" fill="black"/>
<path d="M125.553 47.4625L131.904 77.2225C132.069 77.9996 131.919 78.8105 131.487 79.4773C131.055 80.1441 130.376 80.6123 129.6 80.7793L72.9213 92.8753C72.1443 93.0392 71.334 92.8888 70.6676 92.4571C70.0011 92.0254 69.5326 91.3474 69.3645 90.5713L63.0093 60.8113C62.8456 60.0336 62.9966 59.2227 63.4293 58.5561C63.862 57.8895 64.5411 57.4215 65.3181 57.2545L121.997 45.1585C122.774 44.9947 123.585 45.1457 124.252 45.5784C124.918 46.0111 125.386 46.6903 125.553 47.4673V47.4625Z" fill="#EF4949"/>
<path opacity="0.4" d="M125.553 47.4625L131.904 77.2225C132.069 77.9996 131.919 78.8105 131.487 79.4773C131.055 80.1441 130.376 80.6123 129.6 80.7793L72.9213 92.8753C72.1443 93.0392 71.334 92.8888 70.6676 92.4571C70.0011 92.0254 69.5326 91.3474 69.3645 90.5713L63.0093 60.8113C62.8456 60.0336 62.9966 59.2227 63.4293 58.5561C63.862 57.8895 64.5411 57.4215 65.3181 57.2545L121.997 45.1585C122.774 44.9947 123.585 45.1457 124.252 45.5784C124.918 46.0111 125.386 46.6903 125.553 47.4673V47.4625Z" fill="black"/>
<path d="M124.156 45.5137L105.22 68.7601C103.464 70.9153 101.025 72.4065 98.3061 72.9869C95.5872 73.5674 92.7516 73.2023 90.2685 71.9521L63.4893 58.4641C63.9225 57.8417 64.5764 57.4075 65.3181 57.2497L121.996 45.1537C122.736 44.9962 123.508 45.1249 124.156 45.5137Z" fill="#EF4949"/>
<path d="M23.4526 72.2688L113.707 93.72L127.8 109.45L23.4526 72.2688Z" fill="#EF4949"/>
<path opacity="0.6" d="M23.4526 72.2688L113.707 93.72L127.8 109.45L23.4526 72.2688Z" fill="white"/>
<path d="M56.3754 92.945L56.1328 93.3591L66.1766 99.2424L66.4192 98.8282L56.3754 92.945Z" fill="#EF4949"/>
<path d="M70.8534 101.422L70.6108 101.836L74.2225 103.952L74.4651 103.538L70.8534 101.422Z" fill="#EF4949"/>
<path d="M23.4526 72.2688L113.707 93.72L96.163 114.864L23.4526 72.2688Z" fill="#EF4949"/>
<path d="M144.173 122.525C144.051 122.525 143.931 122.502 143.817 122.458L129.12 116.64C128.885 116.545 128.697 116.361 128.597 116.128C128.496 115.896 128.493 115.633 128.586 115.397C128.679 115.161 128.862 114.972 129.094 114.87C129.326 114.768 129.589 114.763 129.825 114.854L144.528 120.672C144.736 120.754 144.909 120.906 145.016 121.102C145.124 121.298 145.16 121.526 145.118 121.746C145.076 121.965 144.958 122.163 144.786 122.306C144.613 122.448 144.396 122.525 144.173 122.525Z" fill="#EF4949"/>
<path opacity="0.3" d="M144.173 122.525C144.051 122.525 143.931 122.502 143.817 122.458L129.12 116.64C128.885 116.545 128.697 116.361 128.597 116.128C128.496 115.896 128.493 115.633 128.586 115.397C128.679 115.161 128.862 114.972 129.094 114.87C129.326 114.768 129.589 114.763 129.825 114.854L144.528 120.672C144.736 120.754 144.909 120.906 145.016 121.102C145.124 121.298 145.16 121.526 145.118 121.746C145.076 121.965 144.958 122.163 144.786 122.306C144.613 122.448 144.396 122.525 144.173 122.525Z" fill="black"/>
<path d="M143.304 114.096C143.183 114.095 143.064 114.071 142.953 114.024L135.057 110.88C134.939 110.834 134.832 110.766 134.74 110.678C134.649 110.59 134.576 110.486 134.525 110.37C134.474 110.254 134.447 110.129 134.444 110.002C134.442 109.876 134.465 109.75 134.512 109.632C134.558 109.514 134.627 109.407 134.716 109.316C134.804 109.225 134.909 109.153 135.025 109.103C135.142 109.053 135.267 109.026 135.393 109.025C135.52 109.024 135.646 109.047 135.763 109.094L143.659 112.224C143.896 112.317 144.086 112.5 144.187 112.733C144.289 112.967 144.294 113.23 144.201 113.467C144.134 113.651 144.012 113.81 143.851 113.922C143.691 114.035 143.5 114.095 143.304 114.096Z" fill="#EF4949"/>
<path opacity="0.5" d="M143.304 114.096C143.183 114.095 143.064 114.071 142.953 114.024L135.057 110.88C134.939 110.834 134.832 110.766 134.74 110.678C134.649 110.59 134.576 110.486 134.525 110.37C134.474 110.254 134.447 110.129 134.444 110.002C134.442 109.876 134.465 109.75 134.512 109.632C134.558 109.514 134.627 109.407 134.716 109.316C134.804 109.225 134.909 109.153 135.025 109.103C135.142 109.053 135.267 109.026 135.393 109.025C135.52 109.024 135.646 109.047 135.763 109.094L143.659 112.224C143.896 112.317 144.086 112.5 144.187 112.733C144.289 112.967 144.294 113.23 144.201 113.467C144.134 113.651 144.012 113.81 143.851 113.922C143.691 114.035 143.5 114.095 143.304 114.096Z" fill="white"/>
<path d="M126.797 122.4C126.677 122.399 126.558 122.376 126.446 122.333L112.109 116.64C111.991 116.594 111.883 116.526 111.791 116.438C111.7 116.35 111.627 116.246 111.576 116.13C111.525 116.014 111.498 115.889 111.496 115.762C111.493 115.636 111.516 115.51 111.563 115.392C111.609 115.274 111.679 115.167 111.767 115.076C111.855 114.985 111.96 114.913 112.077 114.863C112.193 114.813 112.318 114.786 112.445 114.785C112.571 114.784 112.697 114.807 112.814 114.854L127.152 120.528C127.36 120.61 127.533 120.762 127.64 120.958C127.748 121.154 127.784 121.382 127.742 121.602C127.7 121.821 127.582 122.019 127.41 122.162C127.237 122.304 127.02 122.381 126.797 122.381V122.4Z" fill="#EF4949"/>
<path opacity="0.3" d="M126.797 122.4C126.677 122.399 126.558 122.376 126.446 122.333L112.109 116.64C111.991 116.594 111.883 116.526 111.791 116.438C111.7 116.35 111.627 116.246 111.576 116.13C111.525 116.014 111.498 115.889 111.496 115.762C111.493 115.636 111.516 115.51 111.563 115.392C111.609 115.274 111.679 115.167 111.767 115.076C111.855 114.985 111.96 114.913 112.077 114.863C112.193 114.813 112.318 114.786 112.445 114.785C112.571 114.784 112.697 114.807 112.814 114.854L127.152 120.528C127.36 120.61 127.533 120.762 127.64 120.958C127.748 121.154 127.784 121.382 127.742 121.602C127.7 121.821 127.582 122.019 127.41 122.162C127.237 122.304 127.02 122.381 126.797 122.381V122.4Z" fill="black"/>
<path d="M178.704 79.1138C179.976 81.5954 181.143 84.0818 182.251 86.6258C183.36 89.1698 184.392 91.7474 185.295 94.4498L185.621 95.4722C185.679 95.6546 185.76 95.9522 185.808 96.1634C185.856 96.3746 185.899 96.6146 185.923 96.8162C186.033 97.5906 186.089 98.3716 186.091 99.1538C186.099 100.596 186.031 102.038 185.89 103.474C185.622 106.253 185.186 109.013 184.584 111.739L181.949 111.447C181.915 108.744 181.891 106.013 181.795 103.349C181.752 102.024 181.675 100.695 181.541 99.4466C181.48 98.8605 181.384 98.2786 181.253 97.7042C181.229 97.5698 181.191 97.469 181.162 97.3586C181.133 97.2482 181.104 97.2098 181.056 97.0658L180.691 96.1586C179.688 93.7298 178.56 91.2818 177.408 88.8434L173.923 81.5282L178.704 79.1138Z" fill="#E4897B"/>
<path d="M181.987 110.602L180.758 112.901L184.685 113.995C184.685 113.995 185.434 112.147 184.541 110.688L181.987 110.602Z" fill="#E4897B"/>
<path d="M179.256 116.213L182.865 116.501L184.685 113.995L180.758 112.901L179.256 116.213Z" fill="#E4897B"/>
<path d="M162.178 62.5249C162.125 62.8081 161.928 63.0049 161.746 62.9665C161.563 62.9281 161.463 62.6737 161.52 62.3953C161.578 62.1169 161.77 61.9153 161.952 61.9537C162.135 61.9921 162.24 62.2465 162.178 62.5249Z" fill="#263238"/>
<path d="M161.957 63.0049C161.45 63.7902 160.838 64.5024 160.138 65.1217C160.301 65.2956 160.5 65.432 160.722 65.5215C160.943 65.611 161.181 65.6514 161.419 65.6401L161.957 63.0049Z" fill="#DE5753"/>
<path d="M163.512 61.1856C163.467 61.1845 163.424 61.1655 163.392 61.1328C163.254 60.9751 163.081 60.8521 162.887 60.7737C162.692 60.6953 162.482 60.6638 162.274 60.6816C162.234 60.682 162.195 60.6683 162.165 60.6429C162.134 60.6175 162.113 60.582 162.107 60.5428C162.1 60.5037 162.107 60.4633 162.127 60.429C162.147 60.3946 162.179 60.3685 162.216 60.3552C162.483 60.3214 162.754 60.3541 163.005 60.4504C163.257 60.5467 163.48 60.7036 163.656 60.9072C163.687 60.9386 163.704 60.9809 163.704 61.0248C163.704 61.0688 163.687 61.111 163.656 61.1424C163.637 61.16 163.614 61.173 163.589 61.1805C163.564 61.188 163.538 61.1897 163.512 61.1856Z" fill="#263238"/>
<path d="M170.117 66.4465C169.613 69.0289 169.109 73.7521 170.914 75.4753C170.914 75.4753 170.208 78.0913 165.413 78.0913C160.133 78.0913 162.898 75.4753 162.898 75.4753C165.778 74.7889 165.696 72.6529 165.197 70.6513L170.117 66.4465Z" fill="#E4897B"/>
<path d="M171.638 77.1026C172.017 75.8402 172.435 74.3954 171.571 73.9394C170.611 73.4594 165.393 72.9314 163.593 73.8674C161.793 74.8034 162.307 77.3714 162.307 77.3714L171.638 77.1026Z" fill="#263238"/>
<path d="M182.707 196.8C182.558 196.82 182.407 196.81 182.262 196.77C182.117 196.731 181.981 196.662 181.863 196.57C181.821 196.512 181.798 196.442 181.798 196.37C181.798 196.299 181.821 196.229 181.863 196.171C181.89 196.121 181.928 196.078 181.973 196.044C182.019 196.01 182.071 195.986 182.127 195.974C182.645 195.859 183.615 196.522 183.658 196.55C183.67 196.561 183.68 196.574 183.686 196.589C183.692 196.604 183.694 196.621 183.691 196.637C183.689 196.652 183.681 196.667 183.67 196.678C183.659 196.689 183.645 196.696 183.629 196.699C183.326 196.765 183.017 196.798 182.707 196.8ZM182.266 196.128H182.165C182.133 196.135 182.102 196.149 182.075 196.168C182.049 196.188 182.027 196.214 182.011 196.243C181.935 196.378 181.983 196.435 182.011 196.454C182.16 196.656 182.88 196.656 183.408 196.57C183.064 196.343 182.674 196.195 182.266 196.138V196.128Z" fill="#EF4949"/>
<path d="M183.61 196.714H183.571C183.207 196.512 182.501 195.754 182.573 195.351C182.585 195.288 182.619 195.232 182.668 195.192C182.717 195.152 182.778 195.13 182.842 195.13C182.905 195.123 182.969 195.129 183.03 195.147C183.091 195.165 183.148 195.195 183.197 195.235C183.605 195.571 183.677 196.589 183.677 196.632C183.679 196.647 183.676 196.663 183.67 196.676C183.663 196.69 183.652 196.701 183.639 196.709C183.629 196.713 183.62 196.714 183.61 196.714ZM182.899 195.274H182.88C182.77 195.274 182.76 195.341 182.755 195.36C182.712 195.595 183.163 196.176 183.523 196.45C183.499 196.049 183.355 195.664 183.111 195.346C183.078 195.32 183.041 195.302 183.002 195.291C182.962 195.281 182.921 195.278 182.88 195.283L182.899 195.274Z" fill="#EF4949"/>
<path d="M161.535 196.8C161.083 196.8 160.647 196.738 160.498 196.536C160.46 196.483 160.44 196.419 160.44 196.354C160.44 196.288 160.46 196.225 160.498 196.171C160.527 196.122 160.566 196.079 160.612 196.045C160.658 196.011 160.711 195.987 160.767 195.974C161.347 195.816 162.586 196.517 162.639 196.546C162.653 196.555 162.664 196.568 162.671 196.583C162.677 196.598 162.68 196.615 162.677 196.632C162.674 196.649 162.666 196.664 162.654 196.676C162.642 196.689 162.627 196.696 162.61 196.699C162.255 196.766 161.895 196.8 161.535 196.8ZM160.973 196.118C160.92 196.111 160.867 196.111 160.815 196.118C160.781 196.125 160.749 196.139 160.721 196.159C160.693 196.178 160.669 196.204 160.651 196.234C160.589 196.339 160.613 196.387 160.651 196.416C160.81 196.637 161.703 196.651 162.365 196.56C161.933 196.327 161.461 196.18 160.973 196.128V196.118Z" fill="#EF4949"/>
<path d="M162.6 196.714H162.566C162.139 196.526 161.299 195.754 161.362 195.365C161.362 195.269 161.443 195.154 161.674 195.13C161.759 195.117 161.847 195.123 161.93 195.148C162.013 195.173 162.089 195.216 162.154 195.274C162.605 195.638 162.696 196.589 162.701 196.632C162.703 196.647 162.701 196.662 162.695 196.675C162.689 196.689 162.679 196.7 162.667 196.709C162.657 196.714 162.646 196.718 162.634 196.719C162.623 196.719 162.611 196.718 162.6 196.714ZM161.741 195.274H161.688C161.539 195.274 161.53 195.35 161.525 195.37C161.486 195.61 162.062 196.21 162.485 196.469C162.443 196.066 162.275 195.686 162.005 195.384C161.936 195.325 161.85 195.289 161.76 195.283L161.741 195.274Z" fill="#EF4949"/>
<path d="M166.478 196.627H162.951L162.6 188.462H166.128L166.478 196.627Z" fill="#E4897B"/>
<path d="M187.651 196.627H184.123L182.352 188.462H185.875L187.651 196.627Z" fill="#E4897B"/>
<path d="M183.874 196.219H187.834C187.904 196.22 187.973 196.244 188.028 196.289C188.083 196.333 188.121 196.395 188.136 196.464L188.832 199.598C188.848 199.675 188.846 199.754 188.828 199.829C188.809 199.905 188.773 199.975 188.723 200.035C188.673 200.095 188.611 200.143 188.54 200.176C188.469 200.208 188.392 200.224 188.314 200.222C186.931 200.198 186.259 200.117 184.517 200.117C183.446 200.117 181.238 200.232 179.755 200.232C178.272 200.232 178.085 198.792 178.69 198.634C181.406 198.038 182.429 197.218 183.298 196.44C183.455 196.297 183.661 196.219 183.874 196.219Z" fill="#263238"/>
<path d="M162.975 196.219H166.815C166.885 196.22 166.954 196.244 167.009 196.289C167.064 196.333 167.102 196.395 167.117 196.464L167.813 199.598C167.83 199.674 167.829 199.752 167.811 199.828C167.793 199.903 167.758 199.973 167.709 200.033C167.661 200.093 167.599 200.142 167.528 200.174C167.458 200.207 167.382 200.224 167.304 200.222C165.917 200.198 163.911 200.117 162.163 200.117C160.123 200.117 158.357 200.232 155.962 200.232C154.522 200.232 154.114 198.792 154.719 198.634C157.479 198.029 159.73 197.966 162.115 196.498C162.369 196.325 162.668 196.228 162.975 196.219Z" fill="#263238"/>
<path d="M161.28 81.6672C158.331 81.4387 155.397 81.0494 152.491 80.5008C151.051 80.2224 149.582 79.9104 148.123 79.5168C146.627 79.134 145.158 78.653 143.726 78.0768C143.357 77.9232 142.982 77.7552 142.613 77.5968C142.196 77.3918 141.795 77.1576 141.413 76.896C140.721 76.44 140.126 75.9648 139.536 75.4944C138.36 74.5344 137.27 73.5744 136.176 72.5904C134.03 70.6032 131.995 68.5488 130.032 66.3888L131.798 64.416L138.763 69.4224C139.91 70.248 141.072 71.0592 142.214 71.8224C142.781 72.2016 143.361 72.5568 143.894 72.8592C144.117 72.9863 144.348 73.0985 144.585 73.1952C144.869 73.3056 145.157 73.416 145.459 73.5216C148.053 74.3204 150.706 74.9143 153.393 75.2976C156.134 75.7296 158.966 76.0848 161.702 76.3728L161.28 81.6672Z" fill="#E4897B"/>
<path d="M177.225 76.2722C180.533 77.0306 183.873 86.693 183.873 86.693L177.072 91.5746C177.072 91.5746 175.152 87.0722 173.299 83.1362C171.36 79.013 173.846 75.4994 177.225 76.2722Z" fill="#EF4949"/>
<path opacity="0.4" d="M177.225 76.2722C180.533 77.0306 183.873 86.693 183.873 86.693L177.072 91.5746C177.072 91.5746 175.152 87.0722 173.299 83.1362C171.36 79.013 173.846 75.4994 177.225 76.2722Z" fill="black"/>
<path d="M175.32 81.552L173.971 84.5712C175.368 87.5856 176.645 90.5712 176.986 91.368C176.938 87.8016 176.261 83.376 175.32 81.552Z" fill="#EF4949"/>
<path opacity="0.6" d="M175.32 81.552L173.971 84.5712C175.368 87.5856 176.645 90.5712 176.986 91.368C176.938 87.8016 176.261 83.376 175.32 81.552Z" fill="black"/>
<path d="M157.473 76.4546C157.473 76.4546 153.72 80.693 157.262 106.935H176.121C176.256 104.055 174.437 89.9138 177.225 76.2722C175.141 75.8708 173.032 75.6046 170.913 75.4754C168.244 75.3217 165.567 75.3217 162.897 75.4754C161.067 75.6598 159.253 75.9872 157.473 76.4546Z" fill="#EF4949"/>
<path opacity="0.4" d="M157.473 76.4546C157.473 76.4546 153.72 80.693 157.262 106.935H176.121C176.256 104.055 174.437 89.9138 177.225 76.2722C175.141 75.8708 173.032 75.6046 170.913 75.4754C168.244 75.3217 165.567 75.3217 162.897 75.4754C161.067 75.6598 159.253 75.9872 157.473 76.4546Z" fill="black"/>
<path d="M156.077 81.552C155.952 82.5456 155.856 83.7216 155.793 85.1088C157.656 84.5498 159.425 83.7184 161.045 82.6416L156.077 81.552Z" fill="#EF4949"/>
<path opacity="0.6" d="M156.077 81.552C155.952 82.5456 155.856 83.7216 155.793 85.1088C157.656 84.5498 159.425 83.7184 161.045 82.6416L156.077 81.552Z" fill="black"/>
<path d="M164.16 82.08C161.635 84.3168 151.997 84.0912 151.997 84.0912L151.68 74.76C154.935 75.2236 158.218 75.461 161.506 75.4704C166.877 75.36 166.915 79.6128 164.16 82.08Z" fill="#EF4949"/>
<path opacity="0.4" d="M164.16 82.08C161.635 84.3168 151.997 84.0912 151.997 84.0912L151.68 74.76C154.935 75.2236 158.218 75.461 161.506 75.4704C166.877 75.36 166.915 79.6128 164.16 82.08Z" fill="black"/>
<path d="M131.89 64.4354L129.49 61.6082L126.902 64.4882C126.902 64.4882 128.496 67.1666 131.026 66.7442L131.89 64.4354Z" fill="#E4897B"/>
<path d="M126.053 58.3105L125.122 62.0017L126.883 64.4689L129.47 61.6081L126.053 58.3105Z" fill="#E4897B"/>
<path d="M162.6 188.467L162.782 192.672H166.311L166.128 188.467H162.6Z" fill="#CE6F64"/>
<path d="M185.88 188.467H182.352L183.264 192.672H186.792L185.88 188.467Z" fill="#CE6F64"/>
<path d="M164.721 59.0401C161.558 57.6001 160.56 51.2017 169.661 52.8001C169.661 52.8001 168.288 54.3169 171.072 55.2769C173.856 56.2369 171.528 62.1649 164.721 59.0401Z" fill="#263238"/>
<path d="M171.595 63.8401C170.688 67.2001 170.333 69.2449 168.235 70.6513C165.096 72.7633 161.193 70.3393 161.069 66.7537C160.958 63.5329 162.461 58.5457 166.085 57.8641C166.885 57.7072 167.711 57.7579 168.486 58.0114C169.261 58.2648 169.958 58.7125 170.51 59.3118C171.063 59.911 171.453 60.6419 171.643 61.4346C171.832 62.2273 171.816 63.0555 171.595 63.8401Z" fill="#E4897B"/>
<path d="M169.536 54.48C171.691 55.68 174.609 56.4 174.336 58.1088C173.976 60.1968 176.097 58.8912 175.603 61.9968C175.281 64.0272 171.537 70.1808 168.883 69.8832C164.918 69.4032 165.422 63.3744 165.408 60.1968C165.398 58.32 165.312 52.1136 169.536 54.48Z" fill="#263238"/>
<path d="M164.933 57.1729C163.973 57.3985 162.701 62.9328 166.421 63.4416C170.698 64.0224 164.933 57.1729 164.933 57.1729Z" fill="#263238"/>
<path d="M165.029 59.136C163.853 59.2416 161.189 57.8256 161.515 55.6944C161.515 55.68 163.2 58.1856 165.029 59.136Z" fill="#263238"/>
<path d="M166.776 63.8832C166.415 64.6746 165.803 65.3244 165.034 65.7312C164.021 66.2592 163.45 65.4912 163.68 64.4736C163.887 63.5616 164.664 62.184 165.706 62.0736C166.747 61.9632 167.194 62.9232 166.776 63.8832Z" fill="#E4897B"/>
<path d="M172.056 60.0001C172.773 59.6888 173.402 59.2044 173.887 58.5904C174.371 57.9764 174.695 57.2518 174.831 56.4817C174.831 56.4817 176.415 60.8833 172.056 60.0001Z" fill="#263238"/>
<path d="M176.059 59.928C175.725 59.7037 175.341 59.5656 174.94 59.5263C174.54 59.4869 174.136 59.5474 173.765 59.7024C173.765 59.7024 175.243 57.7872 176.059 59.928Z" fill="#263238"/>
<path d="M163.954 106.934C163.954 106.934 167.957 133.882 170.15 143.976C172.55 155.016 181.622 191.861 181.622 191.861H188.078C188.078 191.861 182.102 155.923 180.73 144.96C179.242 133.08 176.122 106.915 176.122 106.915L163.954 106.934Z" fill="#EF4949"/>
<path opacity="0.5" d="M163.954 106.934C163.954 106.934 167.957 133.882 170.15 143.976C172.55 155.016 181.622 191.861 181.622 191.861H188.078C188.078 191.861 182.102 155.923 180.73 144.96C179.242 133.08 176.122 106.915 176.122 106.915L163.954 106.934Z" fill="white"/>
<path d="M180.59 189.48C180.561 189.48 181.257 191.962 181.257 191.962H188.525L188.39 189.749L180.59 189.48Z" fill="#EF4949"/>
<path opacity="0.1" d="M180.59 189.48C180.561 189.48 181.257 191.962 181.257 191.962H188.525L188.39 189.749L180.59 189.48Z" fill="black"/>
<path d="M166.483 116.534C171.11 117.442 170.621 134.698 170.064 143.573C168.729 137.299 166.776 125.227 165.441 116.659C165.764 116.5 166.132 116.456 166.483 116.534Z" fill="#EF4949"/>
<path opacity="0.4" d="M166.483 116.534C171.11 117.442 170.621 134.698 170.064 143.573C168.729 137.299 166.776 125.227 165.441 116.659C165.764 116.5 166.132 116.456 166.483 116.534Z" fill="white"/>
<path d="M157.262 106.935C157.262 106.935 156.782 133.296 157.161 144.053C157.56 155.237 161.481 191.861 161.481 191.861H167.453C167.453 191.861 167.673 155.89 167.933 144.907C168.225 132.931 169.67 106.935 169.67 106.935H157.262Z" fill="#EF4949"/>
<path opacity="0.5" d="M157.262 106.935C157.262 106.935 156.782 133.296 157.161 144.053C157.56 155.237 161.481 191.861 161.481 191.861H167.453C167.453 191.861 167.673 155.89 167.933 144.907C168.225 132.931 169.67 106.935 169.67 106.935H157.262Z" fill="white"/>
<path d="M162.72 187.57C162.705 187.57 162.691 187.564 162.681 187.555C162.67 187.545 162.663 187.531 162.662 187.517C161.606 177.379 159.125 152.851 158.822 144.053C158.501 135.072 158.793 114.922 158.889 108.96C158.889 108.945 158.895 108.93 158.906 108.919C158.917 108.909 158.932 108.903 158.947 108.903C158.963 108.903 158.978 108.908 158.989 108.919C159.001 108.93 159.008 108.944 159.009 108.96C158.913 114.922 158.621 135.072 158.942 144.048C159.254 152.847 161.736 177.365 162.782 187.503C162.782 187.519 162.777 187.535 162.766 187.547C162.755 187.559 162.741 187.567 162.725 187.57H162.72Z" fill="#EF4949"/>
<path opacity="0.4" d="M162.72 187.57C162.705 187.57 162.691 187.564 162.681 187.555C162.67 187.545 162.663 187.531 162.662 187.517C161.606 177.379 159.125 152.851 158.822 144.053C158.501 135.072 158.793 114.922 158.889 108.96C158.889 108.945 158.895 108.93 158.906 108.919C158.917 108.909 158.932 108.903 158.947 108.903C158.963 108.903 158.978 108.908 158.989 108.919C159.001 108.93 159.008 108.944 159.009 108.96C158.913 114.922 158.621 135.072 158.942 144.048C159.254 152.847 161.736 177.365 162.782 187.503C162.782 187.519 162.777 187.535 162.766 187.547C162.755 187.559 162.741 187.567 162.725 187.57H162.72Z" fill="white"/>
<path d="M160.32 189.48C160.296 189.48 160.661 191.962 160.661 191.962H167.923L168.12 189.749L160.32 189.48Z" fill="#EF4949"/>
<path opacity="0.1" d="M160.32 189.48C160.296 189.48 160.661 191.962 160.661 191.962H167.923L168.12 189.749L160.32 189.48Z" fill="black"/>
</svg>
