<svg width="215" height="215" viewBox="0 0 215 215" fill="none" xmlns="http://www.w3.org/2000/svg">
<path d="M160.712 39.0613L159.908 37.7326C153.114 26.5526 140.829 19.7844 127.873 20.6057C126.206 20.7078 124.549 20.9349 122.915 21.2851C111.138 23.8049 100.891 32.7102 96.6468 44.1181C94.1485 50.8261 93.4476 58.5489 88.709 63.8723C82.5385 70.8039 72.0637 71.0189 62.8574 70.7523C53.6511 70.4857 43.1677 70.7136 37.0273 77.6667C33.1831 82.0269 31.9619 88.2232 32.2715 94.054C33.0928 109.504 43.8557 123.316 57.5469 130.174C71.2381 137.033 87.3502 137.643 102.34 134.62C123.328 130.389 143.289 118.77 155.286 100.827C167.283 82.8826 170.314 58.4285 160.712 39.0613Z" fill="#F5F5F5"/>
<path d="M68.3836 51.4579C73.648 46.1935 73.648 37.6581 68.3836 32.3936C63.1191 27.1292 54.5837 27.1292 49.3193 32.3936C44.0548 37.6581 44.0548 46.1935 49.3193 51.4579C54.5837 56.7224 63.1191 56.7224 68.3836 51.4579Z" fill="#EBEBEB"/>
<path d="M197.736 205.777C197.736 205.837 157.316 205.888 107.504 205.888C57.6932 205.888 17.2646 205.837 17.2646 205.777C17.2646 205.716 57.6588 205.665 107.504 205.665C157.35 205.665 197.736 205.712 197.736 205.777Z" fill="#263238"/>
<path d="M106.765 151.304L124.493 205.777H121.264L100.495 151.304H106.765Z" fill="#E0E0E0"/>
<path d="M106.765 151.304H106.335H105.131L100.478 151.33L100.521 151.266C104.082 160.541 111.757 180.6 120.649 203.82C120.89 204.457 121.131 205.11 121.372 205.716L121.269 205.648H124.494L124.386 205.794C119.437 190.525 115.021 176.915 111.843 167.12C110.261 162.213 108.988 158.266 108.111 155.535C107.681 154.172 107.337 153.115 107.104 152.392L106.846 151.571C106.791 151.386 106.765 151.287 106.765 151.287C106.765 151.287 106.799 151.373 106.859 151.554L107.13 152.358C107.367 153.076 107.715 154.121 108.162 155.471C109.057 158.193 110.347 162.127 111.955 167.012C115.158 176.82 119.609 190.443 124.597 205.712L124.644 205.858H121.204L121.174 205.785C120.938 205.157 120.692 204.525 120.452 203.889C111.615 180.635 103.983 160.554 100.461 151.291V151.227H100.53L105.208 151.253H106.399C106.64 151.296 106.765 151.304 106.765 151.304Z" fill="#263238"/>
<path d="M71.8744 151.304L54.1455 205.777H57.3705L78.1438 151.304H71.8744Z" fill="#E0E0E0"/>
<path d="M71.8743 151.304C71.8743 151.304 72.0076 151.304 72.2742 151.304H73.4653L78.1437 151.278H78.2125L78.1867 151.343C74.6693 160.605 67.0368 180.686 58.2003 203.94L57.4736 205.837L57.4478 205.91H54.0078L54.0551 205.764L66.7014 167.064L70.494 155.522C70.924 154.172 71.2895 153.127 71.526 152.409L71.7969 151.605C71.8571 151.425 71.8915 151.339 71.8915 151.339C71.8915 151.339 71.8657 151.437 71.8098 151.622L71.5518 152.444C71.3196 153.166 70.9799 154.224 70.5456 155.587C69.6641 158.317 68.3956 162.265 66.8132 167.171C63.6312 176.967 59.2194 190.576 54.2701 205.845L54.1626 205.699H57.3876L57.2844 205.768L58.0068 203.872C66.8992 180.652 74.5747 160.575 78.1136 151.321L78.1609 151.386L73.504 151.36H72.3043L71.8743 151.304Z" fill="#263238"/>
<path d="M100.951 152.5C100.853 152.582 100.75 152.657 100.641 152.723L99.7294 153.325L96.3711 155.527C93.5374 157.393 89.6287 159.982 85.333 162.863L74.3336 170.28L70.9968 172.52L70.0895 173.097C69.987 173.173 69.8776 173.239 69.7627 173.294C69.8574 173.21 69.958 173.132 70.0637 173.062L70.9495 172.43L74.2476 170.134C77.0383 168.207 80.9126 165.563 85.2126 162.682C89.5126 159.801 93.4299 157.23 96.2894 155.398C97.717 154.486 98.8694 153.751 99.6864 153.248L100.619 152.68C100.725 152.612 100.836 152.551 100.951 152.5Z" fill="#263238"/>
<path d="M66.9375 93.2326C66.9375 93.2326 61.3819 93.8045 60.5735 97.1499C59.7651 100.495 57.1335 141.87 60.5735 147.731C64.0135 153.592 108.304 152.775 111.378 151.971C114.453 151.167 115.902 149.171 115.588 146.733C115.274 144.295 85.1136 141.272 85.1136 141.272L86.954 98.0916C86.954 98.0916 76.1094 92.6306 66.9375 93.2326Z" fill="#263238"/>
<path d="M115.614 147.778H115.481H115.085L113.567 147.817C112.247 147.851 110.338 147.868 107.977 147.864C103.247 147.864 96.7328 147.701 89.5475 147.185C85.957 146.922 82.5385 146.591 79.4382 146.239C76.3379 145.886 73.5515 145.499 71.2209 145.134C70.0513 144.962 69.0021 144.777 68.0776 144.622C67.1531 144.467 66.3576 144.325 65.7083 144.192L64.2162 143.904L63.8292 143.826L63.7002 143.792C63.7444 143.786 63.7892 143.786 63.8335 143.792L64.2248 143.848L65.7255 144.093C66.3748 144.205 67.1703 144.338 68.0991 144.476C69.0279 144.613 70.0771 144.794 71.2424 144.953C73.5773 145.301 76.3637 145.658 79.4597 146.011C82.5557 146.363 85.9742 146.677 89.5647 146.94C96.7457 147.456 103.26 147.632 107.977 147.683C110.334 147.709 112.243 147.714 113.567 147.709H115.485L115.614 147.778Z" fill="#455A64"/>
<path d="M109.112 173.905C109.078 173.957 102.06 169.024 93.4431 162.897C84.8259 156.769 77.8642 151.751 77.8986 151.717C77.933 151.683 84.9506 156.597 93.5721 162.729C102.194 168.861 109.147 173.853 109.112 173.905Z" fill="#263238"/>
<path d="M70.8649 56.0847L67.3174 49.8368C69.5084 46.2793 70.2895 42.031 69.5073 37.9269C68.725 33.8227 66.4359 30.1596 63.0899 27.6576C59.7439 25.1555 55.583 23.9955 51.4252 24.4055C47.2673 24.8156 43.4132 26.766 40.6204 29.8734C37.8276 32.9809 36.2981 37.0206 36.3326 41.1985C36.3671 45.3764 37.963 49.3902 40.8067 52.4512C43.6505 55.5121 47.5362 57.3986 51.7003 57.74C55.8644 58.0813 60.0055 56.8528 63.3098 54.2959L70.8649 56.0847Z" fill="white"/>
<path d="M70.8645 56.0848L63.2879 54.3648H63.1847L63.2492 54.2788L63.3438 54.3734C61.0146 56.1932 58.2443 57.3625 55.3157 57.7618C54.4386 57.8865 53.5521 57.9325 52.6669 57.8994C52.2111 57.8736 51.7467 57.8607 51.278 57.822L49.8633 57.6113C45.6476 56.7842 41.9052 54.3826 39.3971 50.8947C38.0042 48.9709 37.0381 46.7719 36.5634 44.4447C36.0816 41.9763 36.1492 39.4322 36.7612 36.9928C37.3946 34.4469 38.6254 32.0884 40.3517 30.1128C42.1043 28.085 44.3155 26.5047 46.8017 25.5032C49.1863 24.5616 51.7521 24.1677 54.3095 24.3508C56.7245 24.5174 59.0734 25.2133 61.1895 26.389C64.9925 28.4927 67.8431 31.9759 69.1531 36.1199C69.6692 37.8888 69.9142 39.7257 69.8798 41.568C69.7886 44.5067 68.9239 47.3693 67.3729 49.867V49.7982L70.8645 56.0805C70.6323 55.6849 69.5401 53.7972 67.2611 49.8627V49.8326V49.7982C68.7787 47.3122 69.6165 44.4711 69.6906 41.5594C69.7186 39.7406 69.4692 37.9281 68.951 36.1844C67.6565 32.0878 64.8422 28.6426 61.0863 26.5567C58.9984 25.4015 56.6817 24.7203 54.3009 24.5615C51.7827 24.3828 49.2566 24.7722 46.9092 25.701C44.4626 26.6884 42.2868 28.2451 40.5624 30.2418C38.8618 32.1874 37.6501 34.5107 37.0278 37.0186C36.4209 39.4192 36.3519 41.9241 36.8257 44.3544C37.2854 46.6567 38.2325 48.834 39.6035 50.7399C42.0722 54.1891 45.7626 56.5679 49.9235 57.392L51.321 57.607C51.7854 57.6457 52.2412 57.6586 52.6927 57.6887C53.5675 57.7239 54.4438 57.6821 55.3114 57.564C58.2131 57.1811 60.9627 56.0406 63.2836 54.2573L63.7136 53.9348L63.3911 54.3648L63.3524 54.2616L70.8645 56.0848Z" fill="#263238"/>
<path d="M50.2111 38.8418H51.2689L53.5737 35.6254V33.5141C53.5737 33.5141 55.2077 33.4152 55.0185 36.1758C54.8293 38.9364 55.0185 38.2355 55.0185 38.2355C55.0185 38.2355 58.4886 38.2355 58.7767 38.5537C58.9874 38.7687 59.082 42.2173 59.1164 44.0835C59.1405 44.5345 59.0124 44.9805 58.7528 45.3501C58.4931 45.7197 58.117 45.9914 57.6845 46.1217C57.5627 46.1557 57.4369 46.1731 57.3104 46.1733C56.4504 46.1733 52.0257 45.4681 52.0257 45.4681H50.1982L50.2111 38.8418Z" fill="#EF4949"/>
<path d="M47.1846 38.2612L47.8382 45.4895H49.6485V38.4074L47.1846 38.2612Z" fill="#EF4949"/>
<path d="M137.759 129.86C137.759 129.86 147.71 129.86 148.118 139.131C148.527 148.402 119.153 197.31 119.153 197.31L109.852 192.894L129.796 145.435L86.5205 141.178L87.746 130.29L137.759 129.86Z" fill="#FFBE9D"/>
<path d="M121.118 194.489L120.83 195.147C120.83 195.147 129.946 204.521 129.129 206.68L107.151 196.79L110.742 189.609C113.326 192.597 116.672 194.309 121.118 194.489Z" fill="#455A64"/>
<g opacity="0.6">
<path d="M111.916 192.954C111.675 192.924 111.432 192.983 111.232 193.12C111.033 193.257 110.89 193.463 110.832 193.698C110.792 193.937 110.846 194.183 110.982 194.383C111.118 194.584 111.326 194.725 111.563 194.777C111.818 194.808 112.075 194.744 112.285 194.597C112.495 194.451 112.644 194.231 112.703 193.982C112.719 193.728 112.637 193.478 112.472 193.285C112.308 193.091 112.074 192.969 111.821 192.945" fill="white"/>
</g>
<g opacity="0.6">
<path d="M107.151 196.794L108.011 195.074L128.759 205.183C128.759 205.183 129.546 206.043 129.124 206.688L107.151 196.794Z" fill="white"/>
</g>
<path d="M120.877 195.241C120.825 195.345 120.266 195.155 119.587 195.263C118.908 195.37 118.417 195.693 118.336 195.607C118.254 195.521 118.697 194.971 119.527 194.854C120.357 194.738 120.946 195.151 120.877 195.241Z" fill="#263238"/>
<path d="M122.757 197.233C122.735 197.344 122.185 197.319 121.617 197.611C121.05 197.903 120.727 198.333 120.624 198.282C120.521 198.23 120.723 197.589 121.437 197.241C122.15 196.893 122.8 197.129 122.757 197.233Z" fill="#263238"/>
<path d="M122.825 200.578C122.717 200.578 122.825 199.954 123.345 199.49C123.865 199.026 124.493 199.021 124.497 199.129C124.502 199.236 124.067 199.413 123.637 199.8C123.207 200.187 122.937 200.617 122.825 200.578Z" fill="#263238"/>
<path d="M118.934 94.9053L120.701 100.31L111.065 101.063L109.942 98.169L118.934 94.9053Z" fill="#FFBE9D"/>
<path d="M146.295 101.996C146.479 102.366 146.961 102.426 147.331 102.62C147.675 102.817 147.957 103.107 148.145 103.456C148.333 103.806 148.419 104.202 148.393 104.598C148.331 105.39 148.069 106.153 147.632 106.816C147.497 107.086 147.302 107.32 147.06 107.5C146.937 107.585 146.792 107.631 146.643 107.631C146.494 107.631 146.348 107.585 146.226 107.5C145.942 107.264 145.976 106.825 146.037 106.459C146.264 105.088 145.968 103.355 146.29 102" fill="#FFBE9D"/>
<path d="M82.2076 34.2239C82.1259 33.6209 82.2731 33.0092 82.6201 32.5093C82.9672 32.0095 83.4889 31.6578 84.0824 31.5235L94.7206 24.7553C98.7755 23.8437 103.884 30.6162 104.611 34.7012C105.345 39.1911 105.633 43.7426 105.471 48.2892C105.178 55.281 100.594 56.0292 100.594 56.0292L104.034 79.2793L87.4579 69.0582L82.2076 34.2239Z" fill="#FFBE9D"/>
<path d="M102.4 40.5017C102.428 40.7303 102.367 40.961 102.228 41.1449C102.089 41.3287 101.884 41.4512 101.656 41.4864C101.432 41.5278 101.201 41.4787 101.013 41.3497C100.825 41.2207 100.696 41.0224 100.654 40.7984C100.626 40.5697 100.688 40.339 100.826 40.1552C100.965 39.9713 101.17 39.8488 101.398 39.8137C101.622 39.7722 101.854 39.8214 102.041 39.9504C102.229 40.0794 102.358 40.2777 102.4 40.5017Z" fill="#263238"/>
<path d="M103.767 37.9905C103.681 38.0851 102.976 38.0722 102.086 38.4205C101.196 38.7688 100.607 39.2332 100.495 39.2074C100.383 39.1816 100.495 39.0569 100.766 38.8419C101.14 38.5368 101.563 38.2982 102.017 38.1367C102.451 37.9698 102.912 37.8838 103.376 37.883C103.686 37.8744 103.81 37.9475 103.767 37.9905Z" fill="#263238"/>
<path d="M93.5939 40.9275C93.6211 41.1566 93.5583 41.3873 93.4187 41.571C93.2791 41.7547 93.0737 41.877 92.8457 41.9122C92.6223 41.9524 92.392 41.9026 92.2051 41.7737C92.0182 41.6448 91.8899 41.4473 91.8481 41.2242C91.8185 40.9953 91.8799 40.764 92.019 40.5799C92.1581 40.3958 92.3638 40.2736 92.592 40.2395C92.8161 40.198 93.0474 40.2472 93.2353 40.3762C93.4231 40.5052 93.5521 40.7034 93.5939 40.9275Z" fill="#263238"/>
<path d="M94.5183 39.7921C94.3893 39.8437 93.7271 39.4481 92.6994 39.2976C91.6717 39.1471 90.8676 39.2976 90.7687 39.2288C90.6698 39.16 90.8676 39.0869 91.1987 39.0052C91.7146 38.9027 92.2445 38.8925 92.7639 38.9751C93.2673 39.044 93.7531 39.2074 94.1958 39.4567C94.5011 39.633 94.6 39.7706 94.5183 39.7921Z" fill="#263238"/>
<path d="M98.7145 45.6401C99.1944 45.4229 99.7002 45.2682 100.219 45.18C100.456 45.1284 100.68 45.0553 100.701 44.8833C100.694 44.6313 100.608 44.3879 100.456 44.1867C100.169 43.6133 99.8597 43.0271 99.5272 42.428C98.2372 39.9211 97.2568 37.8485 97.3772 37.7969C97.4976 37.7453 98.6156 39.7362 99.9142 42.2431L100.813 44.0147C101 44.2895 101.083 44.6215 101.049 44.9521C101.024 45.0414 100.979 45.1237 100.917 45.193C100.855 45.2622 100.778 45.3166 100.692 45.352C100.563 45.4029 100.427 45.4376 100.288 45.4552C99.7735 45.5822 99.2448 45.6443 98.7145 45.6401Z" fill="#263238"/>
<path d="M100.59 56.0461C97.378 56.521 94.0973 56.0736 91.1299 54.7561C91.1299 54.7561 93.955 59.5893 100.749 58.1445L100.59 56.0461Z" fill="#EB996E"/>
<path d="M98.8227 47.9579C98.5915 47.6567 98.2958 47.4111 97.9572 47.2392C97.6186 47.0673 97.2458 46.9735 96.8662 46.9646C96.6468 46.9692 96.4339 47.0403 96.2557 47.1685C96.0776 47.2967 95.9426 47.4761 95.8686 47.6827C95.7943 47.9496 95.7857 48.2306 95.8433 48.5016C95.9009 48.7726 96.0232 49.0257 96.1997 49.2393C96.3731 49.4653 96.6086 49.6358 96.8775 49.7297C97.1464 49.8237 97.4369 49.8371 97.7133 49.7682C98.1619 49.5832 98.5441 49.2669 98.8098 48.8609C98.9062 48.7575 98.9756 48.632 99.0119 48.4954C99.0276 48.4092 99.0242 48.3207 99.0019 48.2359C98.9797 48.1512 98.939 48.0725 98.8829 48.0052" fill="#EB996E"/>
<path d="M96.0019 46.6205C96.1567 46.5904 96.2771 47.6181 97.2403 48.2459C98.2035 48.8737 99.2871 48.6329 99.3129 48.7748C99.3129 48.8393 99.0936 49.0027 98.6292 49.0715C98.0287 49.1498 97.4198 49.0143 96.9092 48.6888C96.4189 48.3737 96.0704 47.8803 95.9374 47.3128C95.8471 46.8699 95.9331 46.6205 96.0019 46.6205Z" fill="#263238"/>
<path d="M94.8189 35.5651C94.7286 35.8231 93.774 35.7156 92.6689 35.8704C91.5638 36.0252 90.6522 36.3391 90.4974 36.1112C90.4286 35.9994 90.5834 35.7543 90.9274 35.4963C91.4084 35.1788 91.9554 34.975 92.5268 34.9005C93.0983 34.826 93.6793 34.8827 94.2255 35.0663C94.6469 35.2598 94.8576 35.4404 94.8189 35.5651Z" fill="#263238"/>
<path d="M103.819 35.8704C103.634 36.1069 102.8 35.9779 101.824 36.0768C100.848 36.1757 100.039 36.4251 99.8244 36.2187C99.7255 36.1198 99.8244 35.8876 100.173 35.6468C100.646 35.3434 101.186 35.1591 101.746 35.1097C102.306 35.0603 102.87 35.1472 103.389 35.363C103.759 35.5479 103.897 35.7543 103.819 35.8704Z" fill="#263238"/>
<path d="M77.5417 52.0945C77.7137 48.977 78.2125 38.9967 80.2249 33.5529C82.2373 28.1091 85.071 25.671 87.9864 24.5229C89.0875 24.0524 90.2914 23.8741 91.4816 24.0052C92.6718 24.1363 93.808 24.5723 94.7804 25.2711C96.2768 26.3289 97.1454 29.8119 97.1454 29.8119C97.1454 29.8119 90.0719 32.2543 88.1154 36.6919C85.8493 41.7659 85.4451 44.2341 85.4451 44.2341L84.8345 46.9388C84.8345 46.9388 86.1632 58.695 86.7609 61.1288L77.1719 70.3996C77.4858 67.338 77.3697 55.2077 77.5417 52.0945Z" fill="#263238"/>
<path d="M97.3561 29.829C97.3561 29.829 101.454 28.9045 103.522 33.4152C104.46 35.4577 105.388 41.6411 105.388 41.6411C105.388 41.6411 105.737 36.5886 105.195 33.8409C104.653 31.0932 102.869 27.7392 100.521 26.0407C98.1731 24.3422 96.3929 23.7015 92.7207 24.3465C93.8265 24.623 94.8304 25.2092 95.6146 26.0364C96.1693 26.6857 96.4445 27.2619 97.3561 29.829Z" fill="#263238"/>
<path d="M85.5227 44.5694C85.2733 43.0558 83.5017 42.2302 82.2719 43.1461C81.5968 43.6449 81.141 44.5479 81.3904 46.1561C82.0612 50.4561 86.2193 48.8823 86.2064 48.7619C86.1935 48.6415 85.8151 46.3367 85.5227 44.5694Z" fill="#FFBE9D"/>
<path d="M84.645 47.3386C84.645 47.3386 84.5805 47.4031 84.4644 47.4805C84.297 47.5823 84.0976 47.6176 83.9054 47.5794C83.4281 47.4848 82.9379 46.8226 82.796 46.0572C82.7272 45.6917 82.7419 45.3154 82.839 44.9564C82.8566 44.816 82.9086 44.6821 82.9904 44.5666C83.0721 44.4511 83.1811 44.3575 83.3077 44.2942C83.3904 44.2595 83.4825 44.2542 83.5686 44.2792C83.6547 44.3043 83.7296 44.3582 83.7807 44.4318C83.8581 44.5436 83.8409 44.6296 83.8667 44.6339C83.8925 44.6382 83.9484 44.5479 83.8667 44.3759C83.8266 44.2736 83.7521 44.1885 83.656 44.1351C83.5238 44.0651 83.3695 44.0497 83.226 44.0921C83.0553 44.1548 82.9033 44.2599 82.7844 44.3976C82.6655 44.5353 82.5837 44.7009 82.5466 44.879C82.4232 45.2771 82.3996 45.6994 82.4778 46.1088C82.6369 46.9688 83.2045 47.7084 83.8538 47.7901C83.9736 47.8053 84.0952 47.7935 84.2098 47.7556C84.3244 47.7176 84.429 47.6545 84.516 47.5708C84.6536 47.4418 84.6622 47.3429 84.645 47.3386Z" fill="#EB996E"/>
<path d="M89.6768 24.0499C89.6768 24.0843 90.2702 23.9983 91.2162 24.0155C91.7696 24.0264 92.3181 24.1236 92.8416 24.3036C93.4774 24.5387 94.0615 24.8951 94.5616 25.3528C95.487 26.1799 96.2082 27.2102 96.6686 28.3628C97.0212 29.2228 97.0986 29.8334 97.1502 29.8248C97.144 29.687 97.1238 29.5501 97.09 29.4163C96.7472 27.8053 95.8972 26.3465 94.6648 25.2539C94.149 24.7762 93.542 24.4076 92.8803 24.1703C92.3426 23.9905 91.7787 23.9018 91.2119 23.908C90.8323 23.9079 90.4531 23.9323 90.0767 23.9811C89.9417 23.9929 89.8079 24.016 89.6768 24.0499Z" fill="#455A64"/>
<path d="M81.898 48.1341C81.8996 48.1098 81.8996 48.0854 81.898 48.061L81.8378 47.8675C81.8077 47.7772 81.7776 47.6697 81.7389 47.5493L81.6228 47.1193C81.3884 46.1793 81.29 45.2106 81.3304 44.2426C81.3851 42.8068 81.738 41.398 82.3667 40.106C83.1703 38.5417 84.3169 37.1791 85.7207 36.1199C86.4412 35.5639 87.1951 35.0527 87.9782 34.5891C88.735 34.1333 89.4961 33.7549 90.2013 33.3335C91.4346 32.5811 92.6077 31.7344 93.7101 30.8008C94.6518 30.0053 95.3785 29.3216 95.8601 28.84C96.1052 28.5992 96.2901 28.41 96.4148 28.2767L96.5567 28.1262C96.5868 28.0918 96.604 28.0746 96.5997 28.0703L96.5481 28.1133L96.3933 28.2552L95.8257 28.8099C95.3226 29.2786 94.5873 29.9494 93.637 30.7277C92.5306 31.6458 91.3578 32.4809 90.1282 33.226C89.4316 33.656 88.6619 34.0129 87.9008 34.473C87.1101 34.9364 86.3502 35.4506 85.6261 36.0124C84.1986 37.0818 83.0339 38.4627 82.2205 40.0501C81.5897 41.3602 81.2439 42.7891 81.2057 44.2426C81.1762 45.2187 81.2906 46.1938 81.5454 47.1365L81.6744 47.5665C81.7217 47.6869 81.7604 47.7901 81.7905 47.8804L81.8679 48.0739C81.8851 48.1126 81.8937 48.1341 81.898 48.1341Z" fill="#455A64"/>
<path d="M80.715 46.6207C80.715 46.6207 80.715 46.5949 80.715 46.5519L80.6892 46.3455C80.6892 46.1649 80.6204 45.9155 80.586 45.5586C80.4847 44.59 80.4689 43.6145 80.5387 42.6432C80.6438 41.2047 80.9328 39.7856 81.3987 38.4206C81.9808 36.7534 82.8304 35.1922 83.9142 33.7981C85.0304 32.4203 86.3329 31.2046 87.7842 30.1861C89.0742 29.2229 90.3642 28.4661 91.3919 27.7867C92.4196 27.1073 93.2753 26.587 93.8472 26.1914C94.1353 26.0022 94.3503 25.8431 94.4965 25.7356L94.6642 25.6152L94.7201 25.5679C94.7201 25.5679 94.6943 25.5679 94.6556 25.6023L94.4793 25.7098L93.8128 26.1398C93.2366 26.5139 92.3852 27.0428 91.3317 27.6878C90.2782 28.3328 89.0226 29.1068 87.6982 30.07C86.2438 31.0897 84.9408 32.3101 83.8282 33.6949C82.7228 35.1023 81.8583 36.6832 81.2697 38.3733C80.7983 39.7516 80.5092 41.1856 80.4097 42.6389C80.3499 43.6145 80.3831 44.5935 80.5086 45.5629C80.5516 45.9069 80.6118 46.1692 80.6419 46.3498C80.6419 46.4315 80.672 46.5003 80.6849 46.5519C80.6978 46.6035 80.7107 46.6207 80.715 46.6207Z" fill="#455A64"/>
<path d="M103.673 63.1799C103.673 63.1799 109.216 65.4331 110.278 68.3184C111.34 71.2037 119.398 95.03 119.398 95.03L110.045 98.6162L105.78 79.0082L103.673 63.1799Z" fill="#455A64"/>
<path d="M75.0172 130.84C75.0172 130.84 132.207 128.213 135.798 129.159C139.388 130.105 141.534 131.915 142.248 136.22C142.962 140.524 153.987 197.551 153.987 197.551L143.959 200.5C143.959 200.5 129.89 168.379 129.292 163.004C128.694 157.629 126.712 146.613 126.712 146.613C126.712 146.613 104.971 146.97 88.9621 146.613C72.9532 146.256 75.1032 131.438 75.1032 131.438L75.0172 130.84Z" fill="#FFBE9D"/>
<path d="M143.835 200.758L143.761 200.586C143.185 199.271 129.675 168.375 129.081 163.026C128.531 158.094 126.798 148.277 126.54 146.828C124.39 146.862 104.021 147.163 88.9666 146.828C83.9915 146.716 80.2462 145.207 77.8253 142.347C74.1617 138.017 74.8153 131.954 74.897 131.442L74.7637 130.638H75.0045C77.3437 130.531 132.276 128.02 135.854 128.966C139.87 130.028 141.783 132.122 142.463 136.194C143.168 140.442 154.073 196.953 154.202 197.525L154.236 197.714L143.835 200.758ZM126.897 146.393L126.931 146.574C126.953 146.682 128.918 157.659 129.511 162.979C130.075 168.057 142.966 197.684 144.084 200.238L153.746 197.4C153.041 193.749 142.729 140.382 142.041 136.254C141.396 132.384 139.573 130.38 135.746 129.374C132.358 128.475 79.326 130.866 75.2711 131.051L75.3356 131.442V131.472C75.3356 131.537 74.4756 137.725 78.165 142.076C80.5042 144.837 84.142 146.29 88.9838 146.402C104.803 146.755 126.506 146.402 126.725 146.402L126.897 146.393Z" fill="#EB996E"/>
<path d="M78.8794 99.9964L80.3199 108.906C80.3199 108.906 74.0634 120.761 73.3582 130.952C73.0228 135.794 75.8006 145.71 75.8006 145.71C75.8006 145.71 97.8338 148.131 109.719 147.821L122.4 147.266L124.636 127.456L110.403 125.401L110.618 98.4054C110.618 98.4054 113.198 91.2975 113.395 89.1948C113.851 84.7572 113.662 80.268 109.229 74.5146L103.673 63.1798L101.82 62.3198L102.701 76.0497L86.7312 60.875L78.6429 63.7775L76.351 74.592L78.8794 99.9964Z" fill="#455A64"/>
<g opacity="0.3">
<path d="M106.562 128.682C105.526 128.862 98.048 128.97 97.0117 129.151C96.8353 129.205 96.6499 129.222 96.4665 129.202C96.2832 129.182 96.1058 129.125 95.9453 129.034C95.8158 128.912 95.7262 128.753 95.6878 128.579C95.6495 128.405 95.6643 128.224 95.7303 128.058C95.8674 127.725 96.0827 127.43 96.3581 127.198C98.1684 125.478 100.52 124.485 102.808 123.513C103.539 123.208 104.33 122.894 105.096 123.083C105.471 123.207 105.81 123.421 106.085 123.706C106.359 123.99 106.56 124.338 106.669 124.717C106.888 125.475 106.978 126.264 106.936 127.052" fill="black"/>
</g>
<g opacity="0.3">
<path d="M79.4683 106.21C82.1386 105.587 83.8156 102.955 84.8992 100.435C85.9828 97.9154 86.8772 95.1333 89.0014 93.3961C90.558 92.1061 92.6435 91.5385 93.9894 90.0421C94.6291 89.3091 95.0533 88.4132 95.215 87.4538C95.3767 86.4945 95.2695 85.5091 94.9053 84.6069C94.5183 83.6867 93.74 82.8181 92.7553 82.7665C91.5943 82.7063 90.6913 83.7125 89.9818 84.637C86.7367 88.8883 83.6766 93.2743 80.8013 97.795C79.2576 100.224 77.7182 103.174 78.7932 105.845" fill="black"/>
</g>
<path d="M79.4852 65.1965C79.4852 65.1965 74.9659 66.6327 73.3319 69.4664C71.6979 72.3001 68.9889 86.0601 68.3353 89.7667C67.6817 93.4733 64.5212 108.725 68.3353 111.125C72.1494 113.524 77.1632 109.835 78.4704 107.638C79.7776 105.44 85.1139 94.0151 85.1139 94.0151L80.3194 89.986C80.3194 89.986 81.1794 79.0898 80.8655 76.7979C80.5516 74.506 79.4852 65.1965 79.4852 65.1965Z" fill="#FFBE9D"/>
<path d="M65.3125 93.4862L75.8002 94.1699L80.5904 88.5455L81.9148 79.6875L81.5622 62.7412C81.5622 62.7412 72.2011 65.0245 70.1758 72.141C68.6751 77.3999 65.3125 93.4862 65.3125 93.4862Z" fill="#455A64"/>
<path d="M83.8712 73.444C83.2692 73.3623 82.4995 74.0718 83.0112 75.7832C83.4412 77.2108 84.2496 78.5997 84.1894 79.3952C84.1292 80.1907 83.8196 81.8462 83.8196 82.7062C83.7822 83.547 83.7004 84.3853 83.5745 85.2174L76.4365 93.8174L82.6156 99.2698L87.5047 91.59C87.5047 91.59 88.9796 91.8351 89.8353 90.8547L91.1253 89.3798C91.1253 89.3798 94.4363 88.1543 93.7612 86.3698C93.7612 86.3698 94.7416 85.4367 93.8515 83.9403C93.8515 83.9403 94.3159 82.3837 93.6408 81.4678C93.6408 81.4678 93.5806 79.3823 93.0259 79.0125C92.4712 78.6427 86.735 78.5825 86.735 78.5825C86.4226 77.629 86.0624 76.6919 85.6557 75.7746C85.0279 74.7383 84.7097 73.5558 83.8712 73.444Z" fill="#FFBE9D"/>
<path d="M86.3137 81.9022C86.3137 81.9237 86.1632 81.842 86.0299 81.6399C85.8562 81.3675 85.7803 81.0442 85.8147 80.7231C85.8491 80.4019 85.9917 80.102 86.2191 79.8726C86.3911 79.7049 86.5373 79.6533 86.5502 79.6748C86.2945 79.9844 86.1188 80.3521 86.0385 80.7455C86.0389 81.1472 86.1332 81.5433 86.3137 81.9022Z" fill="#EB996E"/>
<path d="M93.4006 81.313C92.5358 81.5651 91.6462 81.7222 90.7475 81.7817C89.8563 81.9113 88.9535 81.9415 88.0557 81.872C88.9393 81.7181 89.8308 81.6133 90.726 81.5581C91.6121 81.4253 92.5051 81.3435 93.4006 81.313Z" fill="#EB996E"/>
<path d="M93.9074 83.7725C93.1947 84.0619 92.4423 84.2417 91.6757 84.3057C90.9199 84.4456 90.1473 84.4717 89.3838 84.3831C89.3838 84.3186 90.3986 84.2541 91.6456 84.0821C92.8926 83.9101 93.8945 83.7123 93.9074 83.7725Z" fill="#EB996E"/>
<path d="M93.7828 86.2966C92.6702 86.6378 91.5006 86.7533 90.3428 86.6363C90.9085 86.5126 91.4841 86.4392 92.0628 86.417C92.6315 86.327 93.207 86.2868 93.7828 86.2966Z" fill="#EB996E"/>
<path d="M88.3651 87.0707C88.3651 87.0965 88.2447 87.0707 88.0985 86.989C87.9058 86.8576 87.7705 86.6577 87.7201 86.43C87.665 86.2049 87.6957 85.9673 87.8061 85.7635C87.8921 85.613 87.9867 85.5528 88.0082 85.57C88.0297 85.5872 87.8319 85.9441 87.9351 86.3784C88.0383 86.8127 88.3952 87.0148 88.3651 87.0707Z" fill="#EB996E"/>
<path d="M86.9544 85.024C86.9544 85.0455 86.8125 84.9724 86.6792 84.7875C86.5081 84.5432 86.4097 84.2555 86.3954 83.9576C86.3777 83.659 86.4432 83.3612 86.5846 83.0976C86.7007 82.8998 86.8125 82.8138 86.834 82.831C86.7025 83.1867 86.6299 83.5614 86.619 83.9404C86.6739 84.3168 86.787 84.6824 86.9544 85.024Z" fill="#EB996E"/>
<path d="M92.0202 89.0101C91.7084 89.1754 91.3659 89.2749 91.014 89.3025C90.6734 89.4005 90.3158 89.4254 89.9648 89.3756C90.276 89.2085 90.6188 89.1088 90.971 89.0832C91.3113 88.9826 91.6694 88.9577 92.0202 89.0101Z" fill="#EB996E"/>
<path d="M89.2548 78.6212C89.2548 78.6857 88.3948 78.6858 87.3069 78.7933C86.219 78.9008 85.3805 79.0685 85.3633 79.0083C85.9728 78.7501 86.624 78.6044 87.2854 78.5783C87.9392 78.4759 88.606 78.4905 89.2548 78.6212Z" fill="#EB996E"/>
<path d="M108.137 99.2913H143.68C144.308 99.2913 144.909 99.5404 145.353 99.984C145.796 100.427 146.045 101.029 146.045 101.656V126.85H105.78V101.652C105.781 101.027 106.03 100.428 106.471 99.9855C106.913 99.5431 107.512 99.2935 108.137 99.2913Z" fill="#E0E0E0"/>
<path d="M146.045 128.682H98.7451C98.7451 128.201 98.9363 127.739 99.2766 127.399C99.6169 127.058 100.078 126.867 100.56 126.867H146.045V128.682Z" fill="#E0E0E0"/>
<path d="M144.557 101.063H107.001V126.867H144.557V101.063Z" fill="white"/>
<path d="M144.553 126.85C144.553 126.85 144.553 126.687 144.553 126.377C144.553 126.067 144.553 125.603 144.553 125.01C144.553 123.81 144.553 122.056 144.527 119.811C144.527 115.322 144.501 108.885 144.479 101.046L144.57 101.136H107.018L107.13 101.024C107.13 110.239 107.13 118.99 107.13 126.824L107.031 126.721L134.082 126.773L141.822 126.803H143.882H144.411H144.596H144.424H143.903H141.865L134.164 126.829L107.044 126.88H106.94V126.85C106.94 119.011 106.94 110.261 106.94 101.05V100.938H107.052H144.604H144.694V101.05C144.694 108.91 144.66 115.369 144.647 119.871C144.647 122.107 144.647 123.853 144.647 125.031C144.647 125.62 144.647 126.072 144.647 126.381C144.647 126.691 144.553 126.85 144.553 126.85Z" fill="#263238"/>
<path d="M145.847 126.85C145.847 126.915 135.695 126.962 123.173 126.962C110.652 126.962 100.495 126.915 100.495 126.85C100.495 126.786 110.647 126.738 123.173 126.738C135.699 126.738 145.847 126.807 145.847 126.85Z" fill="#263238"/>
<path d="M125.775 123.836C131.225 123.836 135.643 119.417 135.643 113.967C135.643 108.517 131.225 104.099 125.775 104.099C120.325 104.099 115.906 108.517 115.906 113.967C115.906 119.417 120.325 123.836 125.775 123.836Z" fill="#EF4949"/>
<path d="M119.643 114.208L121.732 112.23L124.618 114.887L130.298 109.542L132.362 111.495L124.588 118.873L119.643 114.208Z" fill="white"/>
<path d="M83.5828 85.2174C83.6301 85.2561 80.6674 88.8337 76.9651 93.2025C73.2628 97.5713 70.2227 101.08 70.1754 101.05C70.1281 101.02 73.0908 97.438 76.7931 93.0649C80.4954 88.6918 83.5355 85.1787 83.5828 85.2174Z" fill="#EB996E"/>
<path d="M83.0718 79.6748C82.9751 80.9223 82.8043 82.1629 82.5601 83.39C82.3908 84.6305 82.1467 85.8597 81.8291 87.0708C81.9256 85.8219 82.0965 84.5799 82.3408 83.3513C82.5129 82.1127 82.7569 80.8851 83.0718 79.6748Z" fill="#263238"/>
<path d="M110.618 98.4056C110.633 98.3178 110.656 98.2315 110.687 98.1476L110.919 97.4252C111.125 96.8017 111.43 95.8987 111.779 94.7764C112.195 93.4653 112.542 92.1333 112.819 90.786C113.166 89.141 113.32 87.4614 113.279 85.7808C113.124 82.721 112.265 79.7382 110.768 77.0647C110.324 76.2507 109.836 75.4612 109.306 74.6997C109.126 74.4288 108.971 74.2267 108.876 74.0848C108.821 74.0142 108.773 73.9378 108.734 73.8569C108.8 73.9164 108.859 73.9827 108.911 74.0547C109.022 74.1923 109.19 74.3858 109.384 74.6524C109.943 75.3977 110.454 76.1776 110.914 76.9873C111.599 78.1929 112.162 79.4633 112.596 80.7799C113.135 82.3928 113.446 84.0732 113.52 85.7722C113.564 87.4711 113.402 89.1689 113.039 90.829C112.749 92.1799 112.385 93.5135 111.946 94.8237C111.577 95.9417 111.25 96.8404 111.018 97.4553C110.906 97.742 110.816 97.9785 110.747 98.1648C110.714 98.2501 110.67 98.3309 110.618 98.4056Z" fill="#263238"/>
<path d="M101.48 85.0154C101.498 85.2157 101.498 85.4171 101.48 85.6174C101.479 85.8534 101.462 86.089 101.428 86.3226C101.397 86.6344 101.35 86.9445 101.287 87.2514C101.218 87.6237 101.126 87.9913 101.011 88.3522C100.89 88.7709 100.747 89.1829 100.581 89.5863C100.184 90.4962 99.6914 91.3611 99.1107 92.1663C98.5155 92.9699 97.8334 93.7053 97.0768 94.3593C96.7452 94.6425 96.3978 94.9067 96.0362 95.1505C95.7269 95.3702 95.4037 95.5699 95.0687 95.7482C94.791 95.9087 94.5038 96.0523 94.2087 96.1782C93.9974 96.2811 93.779 96.3688 93.5551 96.4405C93.369 96.5171 93.1761 96.5761 92.9789 96.6168C92.9574 96.5695 93.783 96.3158 94.9698 95.6235C95.2944 95.4369 95.6088 95.2331 95.9115 95.0129C96.2469 94.7893 96.5694 94.5055 96.922 94.2174C98.4036 92.9138 99.5784 91.2985 100.362 89.4874C100.526 89.0937 100.67 88.6919 100.792 88.2834C100.911 87.9279 101.01 87.5662 101.089 87.1998C101.446 85.8754 101.437 85.0154 101.48 85.0154Z" fill="#263238"/>
<path d="M113.301 88.924C113.276 88.9003 113.256 88.8727 113.24 88.8423L113.09 88.58C112.948 88.3435 112.754 88.021 112.509 87.6211C112.264 87.2212 111.882 86.731 111.482 86.172C111.082 85.613 110.574 85.0024 110.037 84.3187C107.827 81.6183 104.563 78.0708 100.822 74.2825C97.0809 70.4942 93.5678 67.1918 90.9921 64.8225L89.2377 63.253C88.7217 62.7972 88.2745 62.393 87.9004 62.0834L87.0404 61.3567L86.8211 61.1632C86.7929 61.1431 86.7681 61.1184 86.748 61.0901C86.7788 61.1052 86.8077 61.124 86.834 61.146C86.8985 61.1933 86.9759 61.2492 87.0662 61.3223L87.952 62.0146L89.3151 63.1584C89.844 63.6142 90.4374 64.1345 91.091 64.7064C93.7011 67.0284 97.2228 70.3265 100.981 74.1105C104.739 77.8945 107.977 81.4721 110.157 84.2026C110.69 84.8949 111.172 85.5184 111.585 86.0774L112.582 87.5566C112.81 87.9866 113.012 88.2962 113.129 88.5413L113.266 88.7993C113.295 88.8824 113.306 88.924 113.301 88.924Z" fill="#263238"/>
<path d="M104.95 108.816C104.871 108.843 104.788 108.859 104.705 108.863L104.004 108.962C103.393 109.044 102.503 109.138 101.424 109.237C99.2265 109.435 96.1778 109.594 92.8238 109.555C89.4698 109.517 86.4082 109.272 84.2238 109.022C83.1273 108.898 82.2415 108.777 81.6438 108.678L80.943 108.566C80.8608 108.557 80.7799 108.539 80.7021 108.511C80.785 108.5 80.8687 108.5 80.9515 108.511L81.6567 108.584C82.2673 108.657 83.1574 108.751 84.2367 108.855C86.4254 109.065 89.4655 109.285 92.8367 109.323C96.2079 109.362 99.2394 109.224 101.437 109.07C102.533 108.992 103.423 108.923 104.017 108.867L104.722 108.812C104.798 108.805 104.874 108.806 104.95 108.816Z" fill="#263238"/>
<path d="M123.573 99.2612C123.573 99.2612 130.617 96.5135 131.283 96.2942C131.95 96.0749 138.107 95.5933 138.107 95.5933L146.045 98.4442C146.045 98.4442 146.118 100.074 144.265 99.8546C142.631 99.5786 141.02 99.1819 139.445 98.6678L138.331 99.33L123.573 99.2612Z" fill="#FFBE9D"/>
<path d="M145.662 100.306C145.847 100.68 146.329 100.736 146.699 100.934C147.041 101.134 147.321 101.424 147.508 101.773C147.696 102.122 147.783 102.516 147.761 102.912C147.699 103.703 147.437 104.465 146.999 105.126C146.865 105.394 146.671 105.626 146.432 105.806C146.309 105.891 146.164 105.936 146.015 105.936C145.866 105.936 145.72 105.891 145.598 105.806C145.48 105.663 145.401 105.492 145.368 105.31C145.335 105.128 145.349 104.94 145.409 104.765C145.636 103.393 145.34 101.656 145.662 100.302" fill="#FFBE9D"/>
<path d="M153.643 195.422L153.884 196.093C153.884 196.093 166.956 196.605 167.85 198.729L145.112 206.718L142.76 199.043C146.694 199.421 150.293 198.355 153.643 195.422Z" fill="#455A64"/>
<g opacity="0.6">
<path d="M145.916 200.651C145.721 200.795 145.585 201.006 145.535 201.244C145.485 201.482 145.524 201.73 145.646 201.941C145.782 202.145 145.993 202.289 146.234 202.341C146.475 202.393 146.726 202.35 146.936 202.22C147.143 202.068 147.286 201.845 147.338 201.593C147.39 201.341 147.346 201.079 147.215 200.857C147.051 200.664 146.819 200.541 146.566 200.514C146.314 200.488 146.061 200.56 145.861 200.715" fill="white"/>
</g>
<g opacity="0.6">
<path d="M145.112 206.718L144.549 204.874L166.548 197.89C166.548 197.89 167.713 197.976 167.838 198.75L145.112 206.718Z" fill="white"/>
</g>
<path d="M153.987 196.132C154.021 196.243 153.484 196.489 153.062 197.039C152.641 197.589 152.516 198.157 152.4 198.148C152.284 198.14 152.219 197.439 152.74 196.785C153.26 196.132 153.974 196.02 153.987 196.132Z" fill="#263238"/>
<path d="M156.718 196.278C156.782 196.377 156.365 196.734 156.154 197.336C155.944 197.938 156.008 198.475 155.896 198.509C155.785 198.544 155.492 197.938 155.772 197.194C156.051 196.45 156.679 196.175 156.718 196.278Z" fill="#263238"/>
<path d="M159.074 198.66C158.984 198.72 158.644 198.23 158.704 197.512C158.765 196.794 159.212 196.381 159.289 196.454C159.367 196.527 159.164 196.97 159.113 197.551C159.061 198.131 159.182 198.608 159.074 198.66Z" fill="#263238"/>
</svg>
