<svg width="28" height="28" viewBox="0 0 28 28" fill="none" xmlns="http://www.w3.org/2000/svg">
<g clip-path="url(#clip0_2389_1300)">
<path d="M5.14285 13.7143C6.72081 13.7143 7.99999 12.4351 7.99999 10.8571C7.99999 9.27919 6.72081 8 5.14285 8C3.56489 8 2.28571 9.27919 2.28571 10.8571C2.28571 12.4351 3.56489 13.7143 5.14285 13.7143Z" fill="#EF4949"/>
<path d="M10.2857 9.143C11.8637 9.143 13.1428 7.86381 13.1428 6.28585C13.1428 4.7079 11.8637 3.42871 10.2857 3.42871C8.70774 3.42871 7.42856 4.7079 7.42856 6.28585C7.42856 7.86381 8.70774 9.143 10.2857 9.143Z" fill="#EF4949"/>
<path d="M17.1428 9.143C18.7208 9.143 20 7.86381 20 6.28585C20 4.7079 18.7208 3.42871 17.1428 3.42871C15.5649 3.42871 14.2857 4.7079 14.2857 6.28585C14.2857 7.86381 15.5649 9.143 17.1428 9.143Z" fill="#EF4949"/>
<path d="M22.2857 13.7143C23.8637 13.7143 25.1429 12.4351 25.1429 10.8571C25.1429 9.27919 23.8637 8 22.2857 8C20.7078 8 19.4286 9.27919 19.4286 10.8571C19.4286 12.4351 20.7078 13.7143 22.2857 13.7143Z" fill="#EF4949"/>
<path d="M19.8172 16.9829C18.8229 15.8171 17.9886 14.8229 16.9829 13.6571C16.4572 13.04 15.7829 12.4229 14.9829 12.1486C14.8572 12.1029 14.7314 12.0686 14.6057 12.0457C14.32 12 14.0114 12 13.7143 12C13.4172 12 13.1086 12 12.8114 12.0571C12.6857 12.08 12.56 12.1143 12.4343 12.16C11.6343 12.4343 10.9714 13.0514 10.4343 13.6686C9.44002 14.8343 8.60573 15.8286 7.60002 16.9943C6.10287 18.4914 4.26287 20.1486 4.60573 22.4686C4.93716 23.6343 5.77144 24.7886 7.26859 25.12C8.10287 25.2914 10.7657 24.6171 13.6 24.6171H13.8057C16.64 24.6171 19.3029 25.28 20.1372 25.12C21.6343 24.7886 22.4686 23.6229 22.8 22.4686C23.1543 20.1371 21.3143 18.48 19.8172 16.9829Z" fill="#EF4949"/>
</g>
<defs>
<clipPath id="clip0_2389_1300">
<rect width="27.4286" height="27.4286" fill="white"/>
</clipPath>
</defs>
</svg>
