<svg width="26" height="26" viewBox="0 0 26 26" fill="none" xmlns="http://www.w3.org/2000/svg">
<path d="M21.5949 12.309C21.3486 12.309 21.1125 12.2111 20.9383 12.037C20.7642 11.8629 20.6663 11.6267 20.6663 11.3804V8.75812C20.6663 5.04383 17.2343 2.0724 13.0149 2.0724C8.79549 2.0724 5.36349 5.08097 5.36349 8.75812V11.3804C5.36349 11.6267 5.26566 11.8629 5.09152 12.037C4.91738 12.2111 4.68119 12.309 4.43492 12.309C4.18865 12.309 3.95246 12.2111 3.77832 12.037C3.60418 11.8629 3.50635 11.6267 3.50635 11.3804V8.75812C3.50635 4.03355 7.77778 0.185547 13.0149 0.185547C18.2521 0.185547 22.5235 4.03355 22.5235 8.75812V11.3804C22.5245 11.5026 22.5011 11.6238 22.4548 11.7369C22.4085 11.85 22.3401 11.9528 22.2537 12.0392C22.1673 12.1256 22.0645 12.194 21.9514 12.2403C21.8383 12.2866 21.7171 12.31 21.5949 12.309Z" fill="black"/>
<path d="M19.0841 21.045C18.8378 21.045 18.6016 20.9472 18.4275 20.7731C18.2533 20.5989 18.1555 20.3627 18.1555 20.1165V11.2988C18.1632 11.0577 18.2645 10.8291 18.4378 10.6613C18.6111 10.4935 18.8429 10.3998 19.0841 10.3999C22.2858 10.3999 24.8932 12.7993 24.8932 15.741C24.8932 18.6828 22.2858 21.045 19.0841 21.045ZM20.0127 12.3239V19.0913C20.8256 18.9567 21.5681 18.5481 22.1167 17.9332C22.6654 17.3184 22.9872 16.5343 23.0287 15.7113C22.9888 14.887 22.6678 14.1013 22.119 13.4849C21.5702 12.8685 20.8268 12.4588 20.0127 12.3239ZM6.91608 21.045C3.71436 21.045 1.10693 18.653 1.10693 15.7113C1.10693 12.7696 3.71436 10.3999 6.91608 10.3999C7.16235 10.3999 7.39854 10.4977 7.57268 10.6719C7.74682 10.846 7.84465 11.0822 7.84465 11.3285V20.1165C7.84465 20.3627 7.74682 20.5989 7.57268 20.7731C7.39854 20.9472 7.16235 21.045 6.91608 21.045ZM5.98751 12.3239C5.17334 12.4588 4.42996 12.8685 3.88118 13.4849C3.3324 14.1013 3.01135 14.887 2.97151 15.7113C3.013 16.5343 3.33479 17.3184 3.88343 17.9332C4.43207 18.5481 5.17453 18.9567 5.98751 19.0913V12.3239Z" fill="black"/>
<path d="M18.7794 24.0684H15.704C15.4577 24.0684 15.2215 23.9705 15.0474 23.7964C14.8732 23.6223 14.7754 23.3861 14.7754 23.1398C14.7754 22.8935 14.8732 22.6574 15.0474 22.4832C15.2215 22.3091 15.4577 22.2112 15.704 22.2112H18.7794C19.2601 22.2112 19.7211 22.0203 20.0611 21.6803C20.401 21.3404 20.592 20.8794 20.592 20.3987V19.9901C20.592 19.7438 20.6898 19.5076 20.8639 19.3335C21.0381 19.1594 21.2743 19.0615 21.5205 19.0615C21.7668 19.0615 22.003 19.1594 22.1771 19.3335C22.3513 19.5076 22.4491 19.7438 22.4491 19.9901V20.3987C22.4491 21.3719 22.0625 22.3053 21.3743 22.9935C20.6861 23.6818 19.7527 24.0684 18.7794 24.0684Z" fill="black"/>
<path d="M14.1142 25.8144H12.2793C11.6055 25.8144 10.9593 25.5468 10.4829 25.0703C10.0064 24.5939 9.73877 23.9477 9.73877 23.2739V23.1699C9.74074 22.4973 10.0093 21.8531 10.4855 21.3782C10.9617 20.9034 11.6068 20.6367 12.2793 20.6367H14.1142C14.786 20.6367 15.4303 20.9036 15.9054 21.3787C16.3805 21.8537 16.6473 22.498 16.6473 23.1699V23.2739C16.6473 23.9464 16.3807 24.5915 15.9059 25.0677C15.431 25.5439 14.7867 25.8125 14.1142 25.8144ZM12.2942 22.4939C12.1142 22.4939 11.9415 22.5648 11.8135 22.6914C11.6856 22.818 11.6127 22.9899 11.6108 23.1699V23.2739C11.6108 23.4551 11.6828 23.629 11.8109 23.7571C11.9391 23.8853 12.1129 23.9573 12.2942 23.9573H14.1142C14.2942 23.9553 14.4661 23.8825 14.5927 23.7545C14.7192 23.6266 14.7902 23.4538 14.7902 23.2739V23.1699C14.7902 22.9906 14.719 22.8186 14.5922 22.6919C14.4654 22.5651 14.2935 22.4939 14.1142 22.4939H12.2942Z" fill="black"/>
</svg>
