<svg width="24" height="24" viewBox="0 0 24 24" fill="none" xmlns="http://www.w3.org/2000/svg">
<path d="M19.9143 22.4062H18.4688V19.6875H17.7188V22.4062H16.3031C16.2037 22.4062 16.1083 22.4458 16.038 22.5161C15.9676 22.5864 15.9281 22.6818 15.9281 22.7812C15.9281 22.8807 15.9676 22.9761 16.038 23.0464C16.1083 23.1167 16.2037 23.1562 16.3031 23.1562H19.9144C20.0139 23.1562 20.1093 23.1167 20.1796 23.0464C20.2499 22.9761 20.2894 22.8807 20.2894 22.7812C20.2894 22.6818 20.2499 22.5864 20.1796 22.5161C20.1093 22.4458 20.0139 22.4062 19.9144 22.4062H19.9143Z" fill="#EF4949"/>
<path d="M7.98567 7.19775C7.97555 7.18341 7.96641 7.17947 7.95834 7.16386C7.92647 7.10208 7.89848 7.03125 7.8727 6.98438H5.31712C5.29556 7.03125 5.27311 7.08502 5.24681 7.13878C5.2397 7.15236 5.2316 7.16539 5.22258 7.17778L3.59531 9.63455C3.3884 10.0722 3.28114 10.5503 3.28125 11.0344V21.357C3.28125 21.9257 3.73927 22.4062 4.30781 22.4062H9.01406C9.5827 22.4062 10.0312 21.9257 10.0312 21.357V11.0823C10.0331 10.5704 9.91492 10.0652 9.68625 9.60712L7.98567 7.19775ZM9.46875 20.25C9.46875 20.3495 9.42924 20.4448 9.35892 20.5152C9.28859 20.5855 9.19321 20.625 9.09375 20.625H4.21875C4.11929 20.625 4.02391 20.5855 3.95359 20.5152C3.88326 20.4448 3.84375 20.3495 3.84375 20.25V13.125C3.84375 13.0255 3.88326 12.9302 3.95359 12.8598C4.02391 12.7895 4.11929 12.75 4.21875 12.75H9.09375C9.19321 12.75 9.28859 12.7895 9.35892 12.8598C9.42924 12.9302 9.46875 13.0255 9.46875 13.125V20.25Z" fill="#EF4949"/>
<path d="M4.59375 19.875H8.71875V13.5H4.59375V19.875ZM5.16206 14.9062H6.28472C6.38418 14.9062 6.47956 14.9458 6.54988 15.0161C6.62021 15.0864 6.65972 15.1818 6.65972 15.2812C6.65972 15.3807 6.62021 15.4761 6.54988 15.5464C6.47956 15.6167 6.38418 15.6562 6.28472 15.6562H5.16206C5.06261 15.6562 4.96722 15.6167 4.8969 15.5464C4.82657 15.4761 4.78706 15.3807 4.78706 15.2812C4.78706 15.1818 4.82657 15.0864 4.8969 15.0161C4.96722 14.9458 5.06261 14.9062 5.16206 14.9062ZM5.16206 16.3125H8.15972C8.25918 16.3125 8.35456 16.352 8.42488 16.4223C8.49521 16.4927 8.53472 16.588 8.53472 16.6875C8.53472 16.787 8.49521 16.8823 8.42488 16.9527C8.35456 17.023 8.25918 17.0625 8.15972 17.0625H5.16206C5.06261 17.0625 4.96722 17.023 4.8969 16.9527C4.82657 16.8823 4.78706 16.787 4.78706 16.6875C4.78706 16.588 4.82657 16.4927 4.8969 16.4223C4.96722 16.352 5.06261 16.3125 5.16206 16.3125ZM5.16206 17.7188H8.15972C8.25918 17.7188 8.35456 17.7583 8.42488 17.8286C8.49521 17.8989 8.53472 17.9943 8.53472 18.0938C8.53472 18.1932 8.49521 18.2886 8.42488 18.3589C8.35456 18.4292 8.25918 18.4688 8.15972 18.4688H5.16206C5.06261 18.4688 4.96722 18.4292 4.8969 18.3589C4.82657 18.2886 4.78706 18.1932 4.78706 18.0938C4.78706 17.9943 4.82657 17.8989 4.8969 17.8286C4.96722 17.7583 5.06261 17.7188 5.16206 17.7188Z" fill="#EF4949"/>
<path d="M20.7188 9.60938H15.5156V11.6719H20.7188V9.60938Z" fill="#EF4949"/>
<path d="M15.5156 16.6903C15.5156 17.3802 15.7897 18.042 16.2776 18.5298C16.7655 19.0177 17.4272 19.2918 18.1172 19.2918C18.8072 19.2918 19.4689 19.0177 19.9568 18.5298C20.4446 18.042 20.7187 17.3802 20.7187 16.6903V12.4219H15.5156V16.6903ZM16.8022 2.75559C16.6432 1.96959 16.1128 1.48125 15.4176 1.48125C15.0095 1.48125 14.5521 1.65656 14.0951 1.9883C14.0304 2.03527 13.9523 2.06032 13.8724 2.05978C13.7924 2.05925 13.7147 2.03317 13.6506 1.98534C13.1938 1.64461 12.735 1.46447 12.3236 1.46447C11.6258 1.46447 11.0987 1.95797 10.948 2.75245C10.7028 4.03064 11.5144 5.73966 13.8742 6.69722C16.234 5.71973 17.0464 4.0178 16.8022 2.75559ZM5.46491 6.23437H7.71608C7.72412 6.20561 7.73023 6.17634 7.73436 6.14676V3.09375H8.61528C8.71474 3.09375 8.81012 3.05424 8.88045 2.98391C8.95078 2.91359 8.99028 2.81821 8.99028 2.71875C8.99028 2.61929 8.95078 2.52391 8.88045 2.45358C8.81012 2.38326 8.71474 2.34375 8.61528 2.34375H7.73436V0.890625H5.48436V2.34375H4.70624C4.60678 2.34375 4.5114 2.38326 4.44107 2.45358C4.37075 2.52391 4.33124 2.61929 4.33124 2.71875C4.33124 2.81821 4.37075 2.91359 4.44107 2.98391C4.5114 3.05424 4.60678 3.09375 4.70624 3.09375H5.48436V6.17086C5.48006 6.19264 5.47354 6.21392 5.46491 6.23437Z" fill="#EF4949"/>
</svg>
